<svg width="874" height="340" viewBox="0 0 874 340" fill="none" xmlns="http://www.w3.org/2000/svg">
<path opacity="0.06" d="M605.492 280.416V217.581L749.375 11.7734H836.343V213.028H873.679V280.416H836.343V339.608H758.482V280.416H605.492ZM763.946 97.3747L687.451 213.028H763.946V97.3747Z" fill="#2D5551"/>
<path opacity="0.06" d="M306.643 168.861C306.643 116.651 316.66 75.5194 336.694 45.4679C357.032 15.4164 389.664 0.390625 434.589 0.390625C479.515 0.390625 511.995 15.4164 532.029 45.4679C552.367 75.5194 562.536 116.651 562.536 168.861C562.536 221.679 552.367 263.114 532.029 293.165C511.995 323.217 479.515 338.243 434.589 338.243C389.664 338.243 357.032 323.217 336.694 293.165C316.66 263.114 306.643 221.679 306.643 168.861ZM486.041 168.861C486.041 138.203 482.702 114.677 476.024 98.2857C469.346 81.5904 455.534 73.2428 434.589 73.2428C413.644 73.2428 399.833 81.5904 393.155 98.2857C386.476 114.677 383.137 138.203 383.137 168.861C383.137 189.503 384.352 206.653 386.78 220.313C389.208 233.669 394.065 244.597 401.35 253.097C408.939 261.292 420.019 265.39 434.589 265.39C449.16 265.39 460.087 261.292 467.373 253.097C474.961 244.597 479.97 233.669 482.398 220.313C484.827 206.653 486.041 189.503 486.041 168.861Z" fill="#2D5551"/>
<path opacity="0.06" d="M0.318359 280.416V217.581L144.201 11.7734H231.169V213.028H268.505V280.416H231.169V339.608H153.308V280.416H0.318359ZM158.772 97.3747L82.2771 213.028H158.772V97.3747Z" fill="#2D5551"/>
</svg>
