<svg width="375" height="168" viewBox="0 0 375 168" fill="none" xmlns="http://www.w3.org/2000/svg">
<path opacity="0.06" d="M270.019 138.327V107.368L340.911 5.96484H383.76V105.124H402.156V138.327H383.76V167.492H345.398V138.327H270.019ZM348.09 48.1413L310.4 105.124H348.09V48.1413Z" fill="#2D5551"/>
<path opacity="0.06" d="M122.772 83.3623C122.772 57.6377 127.708 37.372 137.579 22.5654C147.6 7.75878 163.678 0.355469 185.813 0.355469C207.948 0.355469 223.951 7.75878 233.822 22.5654C243.843 37.372 248.853 57.6377 248.853 83.3623C248.853 109.386 243.843 129.801 233.822 144.608C223.951 159.415 207.948 166.818 185.813 166.818C163.678 166.818 147.6 159.415 137.579 144.608C127.708 129.801 122.772 109.386 122.772 83.3623ZM211.164 83.3623C211.164 68.2566 209.518 56.6655 206.228 48.5892C202.938 40.3633 196.133 36.2503 185.813 36.2503C175.493 36.2503 168.688 40.3633 165.398 48.5892C162.107 56.6655 160.462 68.2566 160.462 83.3623C160.462 93.5325 161.06 101.983 162.257 108.713C163.453 115.294 165.846 120.678 169.436 124.866C173.175 128.904 178.634 130.923 185.813 130.923C192.992 130.923 198.376 128.904 201.965 124.866C205.705 120.678 208.172 115.294 209.369 108.713C210.565 101.983 211.164 93.5325 211.164 83.3623Z" fill="#2D5551"/>
<path opacity="0.06" d="M-28.1562 138.327V107.368L42.7361 5.96484H85.5856V105.124H103.982V138.327H85.5856V167.492H47.2229V138.327H-28.1562ZM49.9151 48.1413L12.2255 105.124H49.9151V48.1413Z" fill="#2D5551"/>
</svg>
