<svg width="648" height="252" viewBox="0 0 648 252" fill="none" xmlns="http://www.w3.org/2000/svg">
<path opacity="0.06" d="M449.016 207.924V161.302L555.771 8.60156H620.297V157.924H648V207.924H620.297V251.842H562.528V207.924H449.016ZM566.582 72.1143L509.826 157.924H566.582V72.1143Z" fill="#2D5551"/>
<path opacity="0.06" d="M227.28 125.155C227.28 86.4165 234.713 55.8989 249.577 33.6018C264.667 11.3048 288.879 0.15625 322.212 0.15625C355.545 0.15625 379.643 11.3048 394.508 33.6018C409.598 55.8989 417.143 86.4165 417.143 125.155C417.143 164.344 409.598 195.086 394.508 217.383C379.643 239.681 355.545 250.829 322.212 250.829C288.879 250.829 264.667 239.681 249.577 217.383C234.713 195.086 227.28 164.344 227.28 125.155ZM360.387 125.155C360.387 102.407 357.909 84.9526 352.954 72.7906C348 60.4033 337.752 54.2097 322.212 54.2097C306.671 54.2097 296.424 60.4033 291.469 72.7906C286.514 84.9526 284.036 102.407 284.036 125.155C284.036 140.47 284.937 153.195 286.739 163.33C288.541 173.24 292.144 181.348 297.55 187.654C303.18 193.735 311.401 196.776 322.212 196.776C333.022 196.776 341.13 193.735 346.536 187.654C352.166 181.348 355.882 173.24 357.684 163.33C359.486 153.195 360.387 140.47 360.387 125.155Z" fill="#2D5551"/>
<path opacity="0.06" d="M0 207.924V161.302L106.756 8.60156H171.282V157.924H198.984V207.924H171.282V251.842H113.512V207.924H0ZM117.566 72.1143L60.8101 157.924H117.566V72.1143Z" fill="#2D5551"/>
</svg>
