<svg width="21" height="21" viewBox="0 0 21 21" fill="none" xmlns="http://www.w3.org/2000/svg">
<mask id="mask0_841_13622" style="mask-type:alpha" maskUnits="userSpaceOnUse" x="0" y="0" width="21" height="21">
<rect width="21" height="21" fill="#D9D9D9"/>
</mask>
<g mask="url(#mask0_841_13622)">
<path d="M4.375 19.25C3.89375 19.25 3.48177 19.0786 3.13906 18.7359C2.79635 18.3932 2.625 17.9812 2.625 17.5V5.25C2.625 4.76875 2.79635 4.35677 3.13906 4.01406C3.48177 3.67135 3.89375 3.5 4.375 3.5H5.25V1.75H7V3.5H14V1.75H15.75V3.5H16.625C17.1062 3.5 17.5182 3.67135 17.8609 4.01406C18.2036 4.35677 18.375 4.76875 18.375 5.25V17.5C18.375 17.9812 18.2036 18.3932 17.8609 18.7359C17.5182 19.0786 17.1062 19.25 16.625 19.25H4.375ZM4.375 17.5H16.625V8.75H4.375V17.5ZM4.375 7H16.625V5.25H4.375V7ZM10.5 12.25C10.2521 12.25 10.0443 12.1661 9.87656 11.9984C9.70885 11.8307 9.625 11.6229 9.625 11.375C9.625 11.1271 9.70885 10.9193 9.87656 10.7516C10.0443 10.5839 10.2521 10.5 10.5 10.5C10.7479 10.5 10.9557 10.5839 11.1234 10.7516C11.2911 10.9193 11.375 11.1271 11.375 11.375C11.375 11.6229 11.2911 11.8307 11.1234 11.9984C10.9557 12.1661 10.7479 12.25 10.5 12.25ZM7 12.25C6.75208 12.25 6.54427 12.1661 6.37656 11.9984C6.20885 11.8307 6.125 11.6229 6.125 11.375C6.125 11.1271 6.20885 10.9193 6.37656 10.7516C6.54427 10.5839 6.75208 10.5 7 10.5C7.24792 10.5 7.45573 10.5839 7.62344 10.7516C7.79115 10.9193 7.875 11.1271 7.875 11.375C7.875 11.6229 7.79115 11.8307 7.62344 11.9984C7.45573 12.1661 7.24792 12.25 7 12.25ZM14 12.25C13.7521 12.25 13.5443 12.1661 13.3766 11.9984C13.2089 11.8307 13.125 11.6229 13.125 11.375C13.125 11.1271 13.2089 10.9193 13.3766 10.7516C13.5443 10.5839 13.7521 10.5 14 10.5C14.2479 10.5 14.4557 10.5839 14.6234 10.7516C14.7911 10.9193 14.875 11.1271 14.875 11.375C14.875 11.6229 14.7911 11.8307 14.6234 11.9984C14.4557 12.1661 14.2479 12.25 14 12.25ZM10.5 15.75C10.2521 15.75 10.0443 15.6661 9.87656 15.4984C9.70885 15.3307 9.625 15.1229 9.625 14.875C9.625 14.6271 9.70885 14.4193 9.87656 14.2516C10.0443 14.0839 10.2521 14 10.5 14C10.7479 14 10.9557 14.0839 11.1234 14.2516C11.2911 14.4193 11.375 14.6271 11.375 14.875C11.375 15.1229 11.2911 15.3307 11.1234 15.4984C10.9557 15.6661 10.7479 15.75 10.5 15.75ZM7 15.75C6.75208 15.75 6.54427 15.6661 6.37656 15.4984C6.20885 15.3307 6.125 15.1229 6.125 14.875C6.125 14.6271 6.20885 14.4193 6.37656 14.2516C6.54427 14.0839 6.75208 14 7 14C7.24792 14 7.45573 14.0839 7.62344 14.2516C7.79115 14.4193 7.875 14.6271 7.875 14.875C7.875 15.1229 7.79115 15.3307 7.62344 15.4984C7.45573 15.6661 7.24792 15.75 7 15.75ZM14 15.75C13.7521 15.75 13.5443 15.6661 13.3766 15.4984C13.2089 15.3307 13.125 15.1229 13.125 14.875C13.125 14.6271 13.2089 14.4193 13.3766 14.2516C13.5443 14.0839 13.7521 14 14 14C14.2479 14 14.4557 14.0839 14.6234 14.2516C14.7911 14.4193 14.875 14.6271 14.875 14.875C14.875 15.1229 14.7911 15.3307 14.6234 15.4984C14.4557 15.6661 14.2479 15.75 14 15.75Z" fill="#111111"/>
</g>
</svg>
