<svg width="182" height="125" viewBox="0 0 182 125" fill="none" xmlns="http://www.w3.org/2000/svg">
<g clip-path="url(#clip0_2147_23478)">
<path fill-rule="evenodd" clip-rule="evenodd" d="M175.113 124C185.847 97.1844 182.6 67.2418 168.756 44.2452L23.8348 64.2955L162.715 35.3746C104.183 -37.5584 -9.74152 10.8172 1.24023 102.9L175.113 124Z" fill="#2D5551" fill-opacity="0.1"/>
<mask id="mask0_2147_23478" style="mask-type:alpha" maskUnits="userSpaceOnUse" x="54" y="62" width="73" height="73">
<rect x="54" y="62" width="73" height="73" fill="#D9D9D9"/>
</mask>
<g mask="url(#mask0_2147_23478)">
<path d="M66.1668 122.835C64.4939 122.835 63.0618 122.239 61.8705 121.048C60.6792 119.856 60.0835 118.424 60.0835 116.751V80.2513C60.0835 78.5784 60.6792 77.1463 61.8705 75.9549C63.0618 74.7636 64.4939 74.168 66.1668 74.168H114.833C116.506 74.168 117.939 74.7636 119.13 75.9549C120.321 77.1463 120.917 78.5784 120.917 80.2513V116.751C120.917 118.424 120.321 119.856 119.13 121.048C117.939 122.239 116.506 122.835 114.833 122.835H66.1668ZM90.5002 101.011C90.7536 101.011 91.0198 100.973 91.2986 100.897C91.5774 100.821 91.8436 100.707 92.097 100.554L113.617 87.0951C114.022 86.8416 114.327 86.5247 114.529 86.1445C114.732 85.7643 114.833 85.3461 114.833 84.8898C114.833 83.876 114.403 83.1155 113.541 82.6086C112.679 82.1016 111.792 82.127 110.879 82.6846L90.5002 95.4596L70.121 82.6846C69.2085 82.127 68.3213 82.1143 67.4595 82.6466C66.5977 83.1789 66.1668 83.9266 66.1668 84.8898C66.1668 85.3968 66.2682 85.8404 66.471 86.2206C66.6738 86.6008 66.9779 86.8923 67.3835 87.0951L88.9033 100.554C89.1568 100.707 89.4229 100.821 89.7017 100.897C89.9805 100.973 90.2467 101.011 90.5002 101.011Z" fill="#2D5551"/>
<path d="M90.5002 101.011C90.7536 101.011 91.0198 100.973 91.2986 100.897C91.5774 100.821 91.8436 100.707 92.097 100.554L113.617 87.0951C114.022 86.8416 114.327 86.5247 114.529 86.1445C114.732 85.7643 114.833 85.3461 114.833 84.8898C114.833 83.876 114.403 83.1155 113.541 82.6086C112.679 82.1016 111.792 82.127 110.879 82.6846L90.5002 95.4596L70.121 82.6846C69.2085 82.127 68.3213 82.1143 67.4595 82.6466C66.5977 83.1789 66.1668 83.9266 66.1668 84.8898C66.1668 85.3968 66.2682 85.8404 66.471 86.2206C66.6738 86.6008 66.9779 86.8923 67.3835 87.0951L88.9033 100.554C89.1568 100.707 89.4229 100.821 89.7017 100.897C89.9805 100.973 90.2467 101.011 90.5002 101.011Z" fill="white"/>
</g>
</g>
<defs>
<clipPath id="clip0_2147_23478">
<rect width="181" height="125" fill="white" transform="translate(0.5)"/>
</clipPath>
</defs>
</svg>
