<svg width="48" height="48" viewBox="0 0 48 48" fill="none" xmlns="http://www.w3.org/2000/svg">
<circle cx="23.5" cy="23.5" r="17.5" fill="white"/>
<path d="M24 47.906C37.055 47.906 47.906 37.055 47.906 24C47.906 10.922 37.031 0.0939941 23.976 0.0939941C10.899 0.0939941 0.0949707 10.922 0.0949707 24C0.0949707 37.055 10.922 47.906 24 47.906ZM34.407 13.102C37.313 15.984 37.056 19.547 33.704 22.875L29.673 26.93C30.001 25.805 29.978 24.492 29.603 23.602L31.97 21.234C34.267 18.984 34.524 16.617 32.696 14.812C30.892 13.032 28.524 13.312 26.274 15.562L22.923 18.867C20.603 21.211 20.298 23.602 22.126 25.383C22.665 25.945 23.462 26.297 24.493 26.484C24.141 27.234 23.415 28.102 22.735 28.57C22.032 28.453 21.141 27.89 20.391 27.117C17.485 24.234 17.79 20.625 21.188 17.203L24.61 13.805C27.962 10.453 31.524 10.219 34.407 13.102ZM12.75 34.758C9.84397 31.875 10.101 28.312 13.477 24.984L17.507 20.93C17.157 22.055 17.18 23.367 17.555 24.258L15.187 26.625C12.89 28.852 12.633 31.242 14.461 33.047C16.266 34.828 18.656 34.547 20.883 32.297L24.234 28.992C26.554 26.648 26.859 24.258 25.031 22.477C24.492 21.914 23.695 21.562 22.664 21.375C23.015 20.625 23.742 19.758 24.422 19.289C25.125 19.406 26.015 19.969 26.789 20.742C29.672 23.625 29.367 27.211 25.969 30.632L22.547 34.055C19.195 37.406 15.633 37.641 12.75 34.758Z" fill="#008081"/>
</svg>
