<svg width="24" height="25" viewBox="0 0 24 25" fill="none" xmlns="http://www.w3.org/2000/svg">
<mask id="mask0_6_1048" style="mask-type:alpha" maskUnits="userSpaceOnUse" x="1" y="2" width="22" height="21">
<rect x="1.5" y="2" width="21" height="21" fill="#D9D9D9"/>
</mask>
<g mask="url(#mask0_6_1048)">
<path d="M12.875 9V5.5C12.875 5.25208 12.9589 5.04427 13.1266 4.87656C13.2943 4.70885 13.5021 4.625 13.75 4.625H19C19.2479 4.625 19.4557 4.70885 19.6234 4.87656C19.7911 5.04427 19.875 5.25208 19.875 5.5V9C19.875 9.24792 19.7911 9.45573 19.6234 9.62344C19.4557 9.79115 19.2479 9.875 19 9.875H13.75C13.5021 9.875 13.2943 9.79115 13.1266 9.62344C12.9589 9.45573 12.875 9.24792 12.875 9ZM4.125 12.5V5.5C4.125 5.25208 4.20885 5.04427 4.37656 4.87656C4.54427 4.70885 4.75208 4.625 5 4.625H10.25C10.4979 4.625 10.7057 4.70885 10.8734 4.87656C11.0411 5.04427 11.125 5.25208 11.125 5.5V12.5C11.125 12.7479 11.0411 12.9557 10.8734 13.1234C10.7057 13.2911 10.4979 13.375 10.25 13.375H5C4.75208 13.375 4.54427 13.2911 4.37656 13.1234C4.20885 12.9557 4.125 12.7479 4.125 12.5ZM12.875 19.5V12.5C12.875 12.2521 12.9589 12.0443 13.1266 11.8766C13.2943 11.7089 13.5021 11.625 13.75 11.625H19C19.2479 11.625 19.4557 11.7089 19.6234 11.8766C19.7911 12.0443 19.875 12.2521 19.875 12.5V19.5C19.875 19.7479 19.7911 19.9557 19.6234 20.1234C19.4557 20.2911 19.2479 20.375 19 20.375H13.75C13.5021 20.375 13.2943 20.2911 13.1266 20.1234C12.9589 19.9557 12.875 19.7479 12.875 19.5ZM4.125 19.5V16C4.125 15.7521 4.20885 15.5443 4.37656 15.3766C4.54427 15.2089 4.75208 15.125 5 15.125H10.25C10.4979 15.125 10.7057 15.2089 10.8734 15.3766C11.0411 15.5443 11.125 15.7521 11.125 16V19.5C11.125 19.7479 11.0411 19.9557 10.8734 20.1234C10.7057 20.2911 10.4979 20.375 10.25 20.375H5C4.75208 20.375 4.54427 20.2911 4.37656 20.1234C4.20885 19.9557 4.125 19.7479 4.125 19.5ZM5.875 11.625H9.375V6.375H5.875V11.625ZM14.625 18.625H18.125V13.375H14.625V18.625ZM14.625 8.125H18.125V6.375H14.625V8.125ZM5.875 18.625H9.375V16.875H5.875V18.625Z" fill="#6C8180"/>
</g>
</svg>
