<svg width="24" height="24" viewBox="0 0 24 24" fill="none" xmlns="http://www.w3.org/2000/svg">
<mask id="mask0_1590_6842" style="mask-type:alpha" maskUnits="userSpaceOnUse" x="1" y="1" width="22" height="22">
<rect x="1.5" y="1.5" width="21" height="21" fill="#D9D9D9"/>
</mask>
<g mask="url(#mask0_1590_6842)">
<path d="M12.875 8.5V5C12.875 4.75208 12.9589 4.54427 13.1266 4.37656C13.2943 4.20885 13.5021 4.125 13.75 4.125H19C19.2479 4.125 19.4557 4.20885 19.6234 4.37656C19.7911 4.54427 19.875 4.75208 19.875 5V8.5C19.875 8.74792 19.7911 8.95573 19.6234 9.12344C19.4557 9.29115 19.2479 9.375 19 9.375H13.75C13.5021 9.375 13.2943 9.29115 13.1266 9.12344C12.9589 8.95573 12.875 8.74792 12.875 8.5ZM4.125 12V5C4.125 4.75208 4.20885 4.54427 4.37656 4.37656C4.54427 4.20885 4.75208 4.125 5 4.125H10.25C10.4979 4.125 10.7057 4.20885 10.8734 4.37656C11.0411 4.54427 11.125 4.75208 11.125 5V12C11.125 12.2479 11.0411 12.4557 10.8734 12.6234C10.7057 12.7911 10.4979 12.875 10.25 12.875H5C4.75208 12.875 4.54427 12.7911 4.37656 12.6234C4.20885 12.4557 4.125 12.2479 4.125 12ZM12.875 19V12C12.875 11.7521 12.9589 11.5443 13.1266 11.3766C13.2943 11.2089 13.5021 11.125 13.75 11.125H19C19.2479 11.125 19.4557 11.2089 19.6234 11.3766C19.7911 11.5443 19.875 11.7521 19.875 12V19C19.875 19.2479 19.7911 19.4557 19.6234 19.6234C19.4557 19.7911 19.2479 19.875 19 19.875H13.75C13.5021 19.875 13.2943 19.7911 13.1266 19.6234C12.9589 19.4557 12.875 19.2479 12.875 19ZM4.125 19V15.5C4.125 15.2521 4.20885 15.0443 4.37656 14.8766C4.54427 14.7089 4.75208 14.625 5 14.625H10.25C10.4979 14.625 10.7057 14.7089 10.8734 14.8766C11.0411 15.0443 11.125 15.2521 11.125 15.5V19C11.125 19.2479 11.0411 19.4557 10.8734 19.6234C10.7057 19.7911 10.4979 19.875 10.25 19.875H5C4.75208 19.875 4.54427 19.7911 4.37656 19.6234C4.20885 19.4557 4.125 19.2479 4.125 19ZM5.875 11.125H9.375V5.875H5.875V11.125ZM14.625 18.125H18.125V12.875H14.625V18.125ZM14.625 7.625H18.125V5.875H14.625V7.625ZM5.875 18.125H9.375V16.375H5.875V18.125Z" fill="#2D5551"/>
</g>
</svg>
