<svg width="19" height="18" viewBox="0 0 19 18" fill="none" xmlns="http://www.w3.org/2000/svg">
<mask id="mask0_867_35759" style="mask-type:alpha" maskUnits="userSpaceOnUse" x="0" y="0" width="19" height="18">
<rect x="0.75" width="18" height="18" fill="#D9D9D9"/>
</mask>
<g mask="url(#mask0_867_35759)">
<path d="M12 15C10.325 15 8.90625 14.4187 7.74375 13.2563C6.58125 12.0938 6 10.675 6 9C6 7.3375 6.58125 5.92188 7.74375 4.75313C8.90625 3.58438 10.325 3 12 3C13.6625 3 15.0781 3.58438 16.2469 4.75313C17.4156 5.92188 18 7.3375 18 9C18 10.675 17.4156 12.0938 16.2469 13.2563C15.0781 14.4187 13.6625 15 12 15ZM12 13.5C13.25 13.5 14.3125 13.0625 15.1875 12.1875C16.0625 11.3125 16.5 10.25 16.5 9C16.5 7.75 16.0625 6.6875 15.1875 5.8125C14.3125 4.9375 13.25 4.5 12 4.5C10.75 4.5 9.6875 4.9375 8.8125 5.8125C7.9375 6.6875 7.5 7.75 7.5 9C7.5 10.25 7.9375 11.3125 8.8125 12.1875C9.6875 13.0625 10.75 13.5 12 13.5ZM13.7062 11.7938L14.775 10.725L12.75 8.7V6H11.25V9.31875L13.7062 11.7938ZM2.25 6.75V5.25H5.25V6.75H2.25ZM1.5 9.75V8.25H5.25V9.75H1.5ZM2.25 12.75V11.25H5.25V12.75H2.25Z" fill="#111111"/>
</g>
</svg>
