<svg width="648" height="287" viewBox="0 0 648 287" fill="none" xmlns="http://www.w3.org/2000/svg">
<path d="M5.55753 10.2727V19H4.50071V11.3807H4.44957L2.31889 12.7955V11.7216L4.50071 10.2727H5.55753ZM10.9141 19.1193C10.272 19.1193 9.72514 18.9446 9.27344 18.5952C8.82173 18.2429 8.47656 17.733 8.23793 17.0653C7.99929 16.3949 7.87997 15.5852 7.87997 14.6364C7.87997 13.6932 7.99929 12.8878 8.23793 12.2202C8.4794 11.5497 8.82599 11.0384 9.2777 10.6861C9.73224 10.331 10.2777 10.1534 10.9141 10.1534C11.5504 10.1534 12.0945 10.331 12.5462 10.6861C13.0007 11.0384 13.3473 11.5497 13.5859 12.2202C13.8274 12.8878 13.9482 13.6932 13.9482 14.6364C13.9482 15.5852 13.8288 16.3949 13.5902 17.0653C13.3516 17.733 13.0064 18.2429 12.5547 18.5952C12.103 18.9446 11.5561 19.1193 10.9141 19.1193ZM10.9141 18.1818C11.5504 18.1818 12.0447 17.875 12.397 17.2614C12.7493 16.6477 12.9254 15.7727 12.9254 14.6364C12.9254 13.8807 12.8445 13.2372 12.6825 12.706C12.5234 12.1747 12.2933 11.7699 11.9922 11.4915C11.6939 11.2131 11.3345 11.0739 10.9141 11.0739C10.2834 11.0739 9.79048 11.3849 9.43537 12.0071C9.08026 12.6264 8.9027 13.5028 8.9027 14.6364C8.9027 15.392 8.98224 16.0341 9.14134 16.5625C9.30043 17.0909 9.52912 17.4929 9.82741 17.7685C10.1286 18.044 10.4908 18.1818 10.9141 18.1818ZM20.0163 17.3636V16.9034C20.0163 16.5852 20.0817 16.294 20.2124 16.0298C20.3459 15.7628 20.5391 15.5497 20.7919 15.3906C21.0476 15.2287 21.3572 15.1477 21.7209 15.1477C22.0902 15.1477 22.3999 15.2287 22.6499 15.3906C22.8999 15.5497 23.0888 15.7628 23.2166 16.0298C23.3445 16.294 23.4084 16.5852 23.4084 16.9034V17.3636C23.4084 17.6818 23.343 17.9744 23.2124 18.2415C23.0845 18.5057 22.8942 18.7187 22.6413 18.8807C22.3913 19.0398 22.0845 19.1193 21.7209 19.1193C21.3516 19.1193 21.0405 19.0398 20.7876 18.8807C20.5348 18.7187 20.343 18.5057 20.2124 18.2415C20.0817 17.9744 20.0163 17.6818 20.0163 17.3636ZM20.8857 16.9034V17.3636C20.8857 17.6278 20.9482 17.8651 21.0732 18.0753C21.1982 18.2827 21.4141 18.3864 21.7209 18.3864C22.0192 18.3864 22.2294 18.2827 22.3516 18.0753C22.4766 17.8651 22.5391 17.6278 22.5391 17.3636V16.9034C22.5391 16.6392 22.4794 16.4034 22.3601 16.196C22.2408 15.9858 22.0277 15.8807 21.7209 15.8807C21.4226 15.8807 21.2081 15.9858 21.0774 16.196C20.9496 16.4034 20.8857 16.6392 20.8857 16.9034ZM15.6697 12.3693V11.9091C15.6697 11.5909 15.7351 11.2997 15.8658 11.0355C15.9993 10.7685 16.1925 10.5554 16.4453 10.3963C16.701 10.2344 17.0107 10.1534 17.3743 10.1534C17.7436 10.1534 18.0533 10.2344 18.3033 10.3963C18.5533 10.5554 18.7422 10.7685 18.87 11.0355C18.9979 11.2997 19.0618 11.5909 19.0618 11.9091V12.3693C19.0618 12.6875 18.9964 12.9801 18.8658 13.2472C18.7379 13.5114 18.5476 13.7244 18.2947 13.8864C18.0447 14.0455 17.7379 14.125 17.3743 14.125C17.005 14.125 16.6939 14.0455 16.4411 13.8864C16.1882 13.7244 15.9964 13.5114 15.8658 13.2472C15.7351 12.9801 15.6697 12.6875 15.6697 12.3693ZM16.5391 11.9091V12.3693C16.5391 12.6335 16.6016 12.8707 16.7266 13.081C16.8516 13.2884 17.0675 13.392 17.3743 13.392C17.6726 13.392 17.8828 13.2884 18.005 13.081C18.13 12.8707 18.1925 12.6335 18.1925 12.3693V11.9091C18.1925 11.6449 18.1328 11.4091 18.0135 11.2017C17.8942 10.9915 17.6811 10.8864 17.3743 10.8864C17.076 10.8864 16.8615 10.9915 16.7308 11.2017C16.603 11.4091 16.5391 11.6449 16.5391 11.9091ZM15.9936 19L21.9936 10.2727H22.9652L16.9652 19H15.9936Z" fill="#6C8180"/>
<path d="M8.06268 34.9542C8.42063 34.957 8.77859 35.0252 9.13654 35.1587C9.4945 35.2923 9.8212 35.5138 10.1167 35.8235C10.4121 36.1303 10.6493 36.5494 10.8283 37.0806C11.0073 37.6119 11.0968 38.2781 11.0968 39.0792C11.0968 39.8548 11.0229 40.5437 10.8752 41.146C10.7303 41.7454 10.5201 42.2511 10.2445 42.663C9.97177 43.0749 9.63938 43.3874 9.24734 43.6005C8.85813 43.8136 8.41779 43.9201 7.92631 43.9201C7.43768 43.9201 7.0016 43.8235 6.61808 43.6303C6.23739 43.4343 5.92489 43.163 5.68058 42.8164C5.4391 42.467 5.28427 42.0621 5.21609 41.6019H6.25586C6.34961 42.0025 6.53569 42.3335 6.8141 42.5948C7.09535 42.8533 7.46609 42.9826 7.92631 42.9826C8.59961 42.9826 9.13086 42.6886 9.52006 42.1005C9.91211 41.5124 10.1081 40.6815 10.1081 39.6076H10.04C9.88086 39.8462 9.69194 40.0522 9.47319 40.2255C9.25444 40.3988 9.01154 40.5323 8.7445 40.6261C8.47745 40.7198 8.19336 40.7667 7.89222 40.7667C7.39222 40.7667 6.93342 40.6431 6.5158 40.396C6.10103 40.146 5.76864 39.8036 5.51864 39.369C5.27148 38.9315 5.1479 38.4315 5.1479 37.869C5.1479 37.3349 5.26722 36.8462 5.50586 36.4031C5.74734 35.957 6.0854 35.6019 6.52006 35.3377C6.95756 35.0735 7.47177 34.9457 8.06268 34.9542ZM8.06268 35.8917C7.70472 35.8917 7.38228 35.9812 7.09535 36.1602C6.81126 36.3363 6.5854 36.5749 6.41779 36.8761C6.25302 37.1744 6.17063 37.5053 6.17063 37.869C6.17063 38.2326 6.25018 38.5636 6.40927 38.8619C6.5712 39.1573 6.79137 39.3931 7.06978 39.5692C7.35103 39.7425 7.67063 39.8292 8.02859 39.8292C8.29847 39.8292 8.54989 39.7766 8.78285 39.6715C9.0158 39.5636 9.21893 39.4173 9.39222 39.2326C9.56836 39.0451 9.70614 38.8335 9.80558 38.5977C9.90501 38.359 9.95472 38.1104 9.95472 37.8519C9.95472 37.511 9.87234 37.1914 9.70756 36.8931C9.54563 36.5948 9.3212 36.3533 9.03427 36.1687C8.75018 35.984 8.42631 35.8917 8.06268 35.8917ZM17.2214 42.1644V41.7042C17.2214 41.386 17.2868 41.0948 17.4174 40.8306C17.551 40.5636 17.7441 40.3505 17.997 40.1914C18.2527 40.0295 18.5623 39.9485 18.926 39.9485C19.2953 39.9485 19.6049 40.0295 19.8549 40.1914C20.1049 40.3505 20.2939 40.5636 20.4217 40.8306C20.5495 41.0948 20.6135 41.386 20.6135 41.7042V42.1644C20.6135 42.4826 20.5481 42.7752 20.4174 43.0423C20.2896 43.3065 20.0993 43.5195 19.8464 43.6815C19.5964 43.8406 19.2896 43.9201 18.926 43.9201C18.5566 43.9201 18.2456 43.8406 17.9927 43.6815C17.7399 43.5195 17.5481 43.3065 17.4174 43.0423C17.2868 42.7752 17.2214 42.4826 17.2214 42.1644ZM18.0907 41.7042V42.1644C18.0907 42.4286 18.1532 42.6658 18.2782 42.8761C18.4032 43.0835 18.6191 43.1871 18.926 43.1871C19.2243 43.1871 19.4345 43.0835 19.5566 42.8761C19.6816 42.6658 19.7441 42.4286 19.7441 42.1644V41.7042C19.7441 41.44 19.6845 41.2042 19.5652 40.9968C19.4458 40.7866 19.2328 40.6815 18.926 40.6815C18.6277 40.6815 18.4132 40.7866 18.2825 40.9968C18.1547 41.2042 18.0907 41.44 18.0907 41.7042ZM12.8748 37.1701V36.7099C12.8748 36.3917 12.9402 36.1005 13.0708 35.8363C13.2044 35.5692 13.3975 35.3562 13.6504 35.1971C13.9061 35.0352 14.2157 34.9542 14.5794 34.9542C14.9487 34.9542 15.2583 35.0352 15.5083 35.1971C15.7583 35.3562 15.9473 35.5692 16.0751 35.8363C16.2029 36.1005 16.2669 36.3917 16.2669 36.7099V37.1701C16.2669 37.4883 16.2015 37.7809 16.0708 38.0479C15.943 38.3121 15.7527 38.5252 15.4998 38.6871C15.2498 38.8462 14.943 38.9258 14.5794 38.9258C14.21 38.9258 13.899 38.8462 13.6461 38.6871C13.3933 38.5252 13.2015 38.3121 13.0708 38.0479C12.9402 37.7809 12.8748 37.4883 12.8748 37.1701ZM13.7441 36.7099V37.1701C13.7441 37.4343 13.8066 37.6715 13.9316 37.8817C14.0566 38.0891 14.2725 38.1928 14.5794 38.1928C14.8777 38.1928 15.0879 38.0891 15.21 37.8817C15.335 37.6715 15.3975 37.4343 15.3975 37.1701V36.7099C15.3975 36.4457 15.3379 36.2099 15.2186 36.0025C15.0993 35.7923 14.8862 35.6871 14.5794 35.6871C14.2811 35.6871 14.0666 35.7923 13.9359 36.0025C13.8081 36.2099 13.7441 36.4457 13.7441 36.7099ZM13.1987 43.8008L19.1987 35.0735H20.1703L14.1703 43.8008H13.1987Z" fill="#6C8180"/>
<path d="M8.1266 68.7209C7.54137 68.7209 7.02433 68.6172 6.57546 68.4098C6.12944 68.1996 5.78143 67.9112 5.53143 67.5447C5.28143 67.1754 5.15785 66.755 5.16069 66.2834C5.15785 65.9141 5.23029 65.5732 5.37802 65.2607C5.52575 64.9453 5.72745 64.6825 5.98313 64.4723C6.24165 64.2592 6.53001 64.1243 6.84819 64.0675V64.0163C6.43058 63.9084 6.09819 63.674 5.85103 63.3132C5.60387 62.9496 5.48171 62.5362 5.48455 62.0732C5.48171 61.63 5.59393 61.2337 5.8212 60.8842C6.04847 60.5348 6.36097 60.2592 6.7587 60.0575C7.15927 59.8558 7.61523 59.755 8.1266 59.755C8.63228 59.755 9.08398 59.8558 9.48171 60.0575C9.87944 60.2592 10.1919 60.5348 10.4192 60.8842C10.6493 61.2337 10.7658 61.63 10.7686 62.0732C10.7658 62.5362 10.6394 62.9496 10.3894 63.3132C10.1422 63.674 9.8141 63.9084 9.40501 64.0163V64.0675C9.72035 64.1243 10.0044 64.2592 10.2573 64.4723C10.5101 64.6825 10.7118 64.9453 10.8624 65.2607C11.013 65.5732 11.0897 65.9141 11.0925 66.2834C11.0897 66.755 10.9618 67.1754 10.709 67.5447C10.459 67.9112 10.111 68.1996 9.66495 68.4098C9.22177 68.6172 8.70898 68.7209 8.1266 68.7209ZM8.1266 67.7834C8.52148 67.7834 8.86239 67.7195 9.14933 67.5916C9.43626 67.4638 9.65785 67.2834 9.8141 67.0504C9.97035 66.8175 10.0499 66.5447 10.0527 66.2322C10.0499 65.9027 9.96467 65.6115 9.79705 65.3587C9.62944 65.1058 9.40075 64.907 9.11097 64.7621C8.82404 64.6172 8.49592 64.5447 8.1266 64.5447C7.75444 64.5447 7.42205 64.6172 7.12944 64.7621C6.83967 64.907 6.61097 65.1058 6.44336 65.3587C6.27859 65.6115 6.19762 65.9027 6.20046 66.2322C6.19762 66.5447 6.2729 66.8175 6.42631 67.0504C6.58256 67.2834 6.80558 67.4638 7.09535 67.5916C7.38512 67.7195 7.72887 67.7834 8.1266 67.7834ZM8.1266 63.6413C8.4391 63.6413 8.71609 63.5788 8.95756 63.4538C9.20188 63.3288 9.39364 63.1541 9.53285 62.9297C9.67205 62.7053 9.74308 62.4425 9.74592 62.1413C9.74308 61.8459 9.67347 61.5888 9.53711 61.37C9.40075 61.1484 9.21183 60.978 8.97035 60.8587C8.72887 60.7365 8.44762 60.6754 8.1266 60.6754C7.79989 60.6754 7.51438 60.7365 7.27006 60.8587C7.02575 60.978 6.83683 61.1484 6.7033 61.37C6.56978 61.5888 6.50444 61.8459 6.50728 62.1413C6.50444 62.4425 6.5712 62.7053 6.70756 62.9297C6.84677 63.1541 7.03853 63.3288 7.28285 63.4538C7.52717 63.5788 7.80842 63.6413 8.1266 63.6413ZM17.1745 66.9652V66.505C17.1745 66.1868 17.2399 65.8956 17.3706 65.6314C17.5041 65.3643 17.6973 65.1513 17.9501 64.9922C18.2058 64.8303 18.5154 64.7493 18.8791 64.7493C19.2484 64.7493 19.5581 64.8303 19.8081 64.9922C20.0581 65.1513 20.247 65.3643 20.3748 65.6314C20.5027 65.8956 20.5666 66.1868 20.5666 66.505V66.9652C20.5666 67.2834 20.5012 67.576 20.3706 67.843C20.2427 68.1072 20.0524 68.3203 19.7995 68.4822C19.5495 68.6413 19.2427 68.7209 18.8791 68.7209C18.5098 68.7209 18.1987 68.6413 17.9458 68.4822C17.693 68.3203 17.5012 68.1072 17.3706 67.843C17.2399 67.576 17.1745 67.2834 17.1745 66.9652ZM18.0439 66.505V66.9652C18.0439 67.2294 18.1064 67.4666 18.2314 67.6768C18.3564 67.8842 18.5723 67.9879 18.8791 67.9879C19.1774 67.9879 19.3876 67.8842 19.5098 67.6768C19.6348 67.4666 19.6973 67.2294 19.6973 66.9652V66.505C19.6973 66.2408 19.6376 66.005 19.5183 65.7976C19.399 65.5874 19.1859 65.4822 18.8791 65.4822C18.5808 65.4822 18.3663 65.5874 18.2356 65.7976C18.1078 66.005 18.0439 66.2408 18.0439 66.505ZM12.8279 61.9709V61.5107C12.8279 61.1925 12.8933 60.9013 13.024 60.6371C13.1575 60.37 13.3507 60.157 13.6035 59.9979C13.8592 59.8359 14.1689 59.755 14.5325 59.755C14.9018 59.755 15.2115 59.8359 15.4615 59.9979C15.7115 60.157 15.9004 60.37 16.0282 60.6371C16.1561 60.9013 16.22 61.1925 16.22 61.5107V61.9709C16.22 62.2891 16.1547 62.5817 16.024 62.8487C15.8961 63.1129 15.7058 63.326 15.4529 63.4879C15.2029 63.647 14.8961 63.7266 14.5325 63.7266C14.1632 63.7266 13.8521 63.647 13.5993 63.4879C13.3464 63.326 13.1547 63.1129 13.024 62.8487C12.8933 62.5817 12.8279 62.2891 12.8279 61.9709ZM13.6973 61.5107V61.9709C13.6973 62.2351 13.7598 62.4723 13.8848 62.6825C14.0098 62.8899 14.2257 62.9936 14.5325 62.9936C14.8308 62.9936 15.041 62.8899 15.1632 62.6825C15.2882 62.4723 15.3507 62.2351 15.3507 61.9709V61.5107C15.3507 61.2464 15.291 61.0107 15.1717 60.8033C15.0524 60.593 14.8393 60.4879 14.5325 60.4879C14.2342 60.4879 14.0197 60.593 13.889 60.8033C13.7612 61.0107 13.6973 61.2464 13.6973 61.5107ZM13.1518 68.6016L19.1518 59.8743H20.1234L14.1234 68.6016H13.1518Z" fill="#6C8180"/>
<path d="M5.8734 93.3984L9.77681 85.6768V85.6087H5.27681V84.6712H10.8677V85.6598L6.98136 93.3984H5.8734ZM16.905 91.7621V91.3018C16.905 90.9837 16.9703 90.6925 17.101 90.4283C17.2346 90.1612 17.4277 89.9482 17.6806 89.7891C17.9363 89.6271 18.2459 89.5462 18.6096 89.5462C18.9789 89.5462 19.2885 89.6271 19.5385 89.7891C19.7885 89.9482 19.9775 90.1612 20.1053 90.4283C20.2331 90.6925 20.2971 90.9837 20.2971 91.3018V91.7621C20.2971 92.0803 20.2317 92.3729 20.101 92.6399C19.9732 92.9041 19.7828 93.1172 19.53 93.2791C19.28 93.4382 18.9732 93.5178 18.6096 93.5178C18.2402 93.5178 17.9292 93.4382 17.6763 93.2791C17.4235 93.1172 17.2317 92.9041 17.101 92.6399C16.9703 92.3729 16.905 92.0803 16.905 91.7621ZM17.7743 91.3018V91.7621C17.7743 92.0263 17.8368 92.2635 17.9618 92.4737C18.0868 92.6811 18.3027 92.7848 18.6096 92.7848C18.9078 92.7848 19.1181 92.6811 19.2402 92.4737C19.3652 92.2635 19.4277 92.0263 19.4277 91.7621V91.3018C19.4277 91.0376 19.3681 90.8018 19.2488 90.5945C19.1294 90.3842 18.9164 90.2791 18.6096 90.2791C18.3113 90.2791 18.0968 90.3842 17.9661 90.5945C17.8382 90.8018 17.7743 91.0376 17.7743 91.3018ZM12.5584 86.7678V86.3075C12.5584 85.9893 12.6238 85.6982 12.7544 85.4339C12.888 85.1669 13.0811 84.9538 13.334 84.7947C13.5897 84.6328 13.8993 84.5518 14.263 84.5518C14.6323 84.5518 14.9419 84.6328 15.1919 84.7947C15.4419 84.9538 15.6309 85.1669 15.7587 85.4339C15.8865 85.6982 15.9505 85.9893 15.9505 86.3075V86.7678C15.9505 87.0859 15.8851 87.3786 15.7544 87.6456C15.6266 87.9098 15.4363 88.1229 15.1834 88.2848C14.9334 88.4439 14.6266 88.5234 14.263 88.5234C13.8936 88.5234 13.5826 88.4439 13.3297 88.2848C13.0769 88.1229 12.8851 87.9098 12.7544 87.6456C12.6238 87.3786 12.5584 87.0859 12.5584 86.7678ZM13.4277 86.3075V86.7678C13.4277 87.032 13.4902 87.2692 13.6152 87.4794C13.7402 87.6868 13.9561 87.7905 14.263 87.7905C14.5613 87.7905 14.7715 87.6868 14.8936 87.4794C15.0186 87.2692 15.0811 87.032 15.0811 86.7678V86.3075C15.0811 86.0433 15.0215 85.8075 14.9022 85.6001C14.7828 85.3899 14.5698 85.2848 14.263 85.2848C13.9647 85.2848 13.7502 85.3899 13.6195 85.6001C13.4917 85.8075 13.4277 86.0433 13.4277 86.3075ZM12.8823 93.3984L18.8823 84.6712H19.8539L13.8539 93.3984H12.8823Z" fill="#6C8180"/>
<path d="M8.182 118.319C7.82404 118.313 7.46609 118.245 7.10813 118.114C6.75018 117.983 6.42347 117.763 6.12802 117.453C5.83256 117.141 5.59535 116.719 5.41637 116.188C5.23739 115.654 5.1479 114.983 5.1479 114.176C5.1479 113.404 5.22035 112.719 5.36523 112.123C5.51012 111.523 5.72035 111.019 5.99592 110.61C6.27148 110.198 6.60387 109.885 6.99308 109.672C7.38512 109.459 7.82688 109.353 8.31836 109.353C8.807 109.353 9.24165 109.451 9.62234 109.647C10.0059 109.84 10.3184 110.11 10.5598 110.456C10.8013 110.803 10.9576 111.202 11.0286 111.654H9.98881C9.89222 111.262 9.70472 110.936 9.42631 110.678C9.1479 110.419 8.77859 110.29 8.31836 110.29C7.64222 110.29 7.10955 110.584 6.72035 111.172C6.33398 111.76 6.13938 112.586 6.13654 113.648H6.20472C6.36381 113.407 6.55273 113.201 6.77148 113.03C6.99308 112.857 7.23739 112.723 7.50444 112.63C7.77148 112.536 8.05415 112.489 8.35245 112.489C8.85245 112.489 9.30984 112.614 9.72461 112.864C10.1394 113.111 10.4718 113.453 10.7218 113.891C10.9718 114.326 11.0968 114.824 11.0968 115.387C11.0968 115.926 10.976 116.421 10.7346 116.87C10.4931 117.316 10.1536 117.671 9.71609 117.935C9.28143 118.196 8.77006 118.324 8.182 118.319ZM8.182 117.381C8.53995 117.381 8.86097 117.292 9.14506 117.113C9.432 116.934 9.65785 116.694 9.82262 116.392C9.99023 116.091 10.074 115.756 10.074 115.387C10.074 115.026 9.99308 114.698 9.83114 114.402C9.67205 114.104 9.45188 113.867 9.17063 113.691C8.89222 113.515 8.57404 113.426 8.21609 113.426C7.9462 113.426 7.69478 113.48 7.46183 113.588C7.22887 113.694 7.02433 113.838 6.84819 114.023C6.67489 114.208 6.53853 114.419 6.4391 114.658C6.33967 114.894 6.28995 115.142 6.28995 115.404C6.28995 115.75 6.37092 116.074 6.53285 116.375C6.69762 116.676 6.92205 116.919 7.20614 117.104C7.49308 117.289 7.81836 117.381 8.182 117.381ZM17.2214 116.563V116.103C17.2214 115.784 17.2868 115.493 17.4174 115.229C17.551 114.962 17.7441 114.749 17.997 114.59C18.2527 114.428 18.5623 114.347 18.926 114.347C19.2953 114.347 19.6049 114.428 19.8549 114.59C20.1049 114.749 20.2939 114.962 20.4217 115.229C20.5495 115.493 20.6135 115.784 20.6135 116.103V116.563C20.6135 116.881 20.5481 117.174 20.4174 117.441C20.2896 117.705 20.0993 117.918 19.8464 118.08C19.5964 118.239 19.2896 118.319 18.926 118.319C18.5566 118.319 18.2456 118.239 17.9927 118.08C17.7399 117.918 17.5481 117.705 17.4174 117.441C17.2868 117.174 17.2214 116.881 17.2214 116.563ZM18.0907 116.103V116.563C18.0907 116.827 18.1532 117.064 18.2782 117.275C18.4032 117.482 18.6191 117.586 18.926 117.586C19.2243 117.586 19.4345 117.482 19.5566 117.275C19.6816 117.064 19.7441 116.827 19.7441 116.563V116.103C19.7441 115.838 19.6845 115.603 19.5652 115.395C19.4458 115.185 19.2328 115.08 18.926 115.08C18.6277 115.08 18.4132 115.185 18.2825 115.395C18.1547 115.603 18.0907 115.838 18.0907 116.103ZM12.8748 111.569V111.108C12.8748 110.79 12.9402 110.499 13.0708 110.235C13.2044 109.968 13.3975 109.755 13.6504 109.596C13.9061 109.434 14.2157 109.353 14.5794 109.353C14.9487 109.353 15.2583 109.434 15.5083 109.596C15.7583 109.755 15.9473 109.968 16.0751 110.235C16.2029 110.499 16.2669 110.79 16.2669 111.108V111.569C16.2669 111.887 16.2015 112.179 16.0708 112.446C15.943 112.711 15.7527 112.924 15.4998 113.086C15.2498 113.245 14.943 113.324 14.5794 113.324C14.21 113.324 13.899 113.245 13.6461 113.086C13.3933 112.924 13.2015 112.711 13.0708 112.446C12.9402 112.179 12.8748 111.887 12.8748 111.569ZM13.7441 111.108V111.569C13.7441 111.833 13.8066 112.07 13.9316 112.28C14.0566 112.488 14.2725 112.591 14.5794 112.591C14.8777 112.591 15.0879 112.488 15.21 112.28C15.335 112.07 15.3975 111.833 15.3975 111.569V111.108C15.3975 110.844 15.3379 110.608 15.2186 110.401C15.0993 110.191 14.8862 110.086 14.5794 110.086C14.2811 110.086 14.0666 110.191 13.9359 110.401C13.8081 110.608 13.7441 110.844 13.7441 111.108ZM13.1987 118.199L19.1987 109.472H20.1703L14.1703 118.199H13.1987Z" fill="#6C8180"/>
<path d="M8.10529 143.119C7.60529 143.119 7.15501 143.02 6.75444 142.821C6.35387 142.622 6.03285 142.349 5.79137 142.003C5.54989 141.656 5.41779 141.261 5.39506 140.818H6.41779C6.45756 141.213 6.63654 141.54 6.95472 141.798C7.27575 142.054 7.65927 142.182 8.10529 142.182C8.46325 142.182 8.78143 142.098 9.05984 141.93C9.34109 141.763 9.56126 141.533 9.72035 141.24C9.88228 140.945 9.96325 140.611 9.96325 140.239C9.96325 139.858 9.87944 139.518 9.71183 139.22C9.54705 138.919 9.31978 138.682 9.03001 138.509C8.74023 138.335 8.40927 138.247 8.03711 138.244C7.77006 138.241 7.49592 138.283 7.21467 138.368C6.93342 138.45 6.70188 138.557 6.52006 138.688L5.53143 138.568L6.05984 134.273H10.5939V135.21H6.9462L6.63938 137.784H6.69052C6.8695 137.642 7.09393 137.524 7.36381 137.43C7.6337 137.337 7.91495 137.29 8.20756 137.29C8.74165 137.29 9.21751 137.418 9.63512 137.673C10.0556 137.926 10.3851 138.273 10.6238 138.713C10.8652 139.153 10.986 139.656 10.986 140.222C10.986 140.778 10.861 141.276 10.611 141.713C10.3638 142.148 10.0229 142.491 9.58825 142.744C9.15359 142.994 8.65927 143.119 8.10529 143.119ZM17.1277 141.364V140.903C17.1277 140.585 17.193 140.294 17.3237 140.03C17.4572 139.763 17.6504 139.55 17.9032 139.391C18.1589 139.229 18.4686 139.148 18.8322 139.148C19.2015 139.148 19.5112 139.229 19.7612 139.391C20.0112 139.55 20.2001 139.763 20.3279 140.03C20.4558 140.294 20.5197 140.585 20.5197 140.903V141.364C20.5197 141.682 20.4544 141.974 20.3237 142.241C20.1958 142.506 20.0055 142.719 19.7527 142.881C19.5027 143.04 19.1958 143.119 18.8322 143.119C18.4629 143.119 18.1518 143.04 17.899 142.881C17.6461 142.719 17.4544 142.506 17.3237 142.241C17.193 141.974 17.1277 141.682 17.1277 141.364ZM17.997 140.903V141.364C17.997 141.628 18.0595 141.865 18.1845 142.075C18.3095 142.283 18.5254 142.386 18.8322 142.386C19.1305 142.386 19.3407 142.283 19.4629 142.075C19.5879 141.865 19.6504 141.628 19.6504 141.364V140.903C19.6504 140.639 19.5907 140.403 19.4714 140.196C19.3521 139.986 19.139 139.881 18.8322 139.881C18.5339 139.881 18.3194 139.986 18.1887 140.196C18.0609 140.403 17.997 140.639 17.997 140.903ZM12.7811 136.369V135.909C12.7811 135.591 12.8464 135.3 12.9771 135.036C13.1106 134.768 13.3038 134.555 13.5566 134.396C13.8123 134.234 14.122 134.153 14.4856 134.153C14.8549 134.153 15.1646 134.234 15.4146 134.396C15.6646 134.555 15.8535 134.768 15.9814 135.036C16.1092 135.3 16.1731 135.591 16.1731 135.909V136.369C16.1731 136.687 16.1078 136.98 15.9771 137.247C15.8493 137.511 15.6589 137.724 15.4061 137.886C15.1561 138.045 14.8493 138.125 14.4856 138.125C14.1163 138.125 13.8052 138.045 13.5524 137.886C13.2995 137.724 13.1078 137.511 12.9771 137.247C12.8464 136.98 12.7811 136.687 12.7811 136.369ZM13.6504 135.909V136.369C13.6504 136.634 13.7129 136.871 13.8379 137.081C13.9629 137.288 14.1788 137.392 14.4856 137.392C14.7839 137.392 14.9941 137.288 15.1163 137.081C15.2413 136.871 15.3038 136.634 15.3038 136.369V135.909C15.3038 135.645 15.2441 135.409 15.1248 135.202C15.0055 134.991 14.7924 134.886 14.4856 134.886C14.1873 134.886 13.9728 134.991 13.8422 135.202C13.7143 135.409 13.6504 135.645 13.6504 135.909ZM13.1049 143L19.1049 134.273H20.0765L14.0765 143H13.1049Z" fill="#6C8180"/>
<path d="M4.97425 166.011V165.142L8.80948 159.074H9.44016V160.42H9.01403L6.1163 165.005V165.074H11.2811V166.011H4.97425ZM9.08221 167.801V165.747V165.342V159.074H10.0879V167.801H9.08221ZM17.3269 166.164V165.704C17.3269 165.386 17.3922 165.095 17.5229 164.831C17.6564 164.564 17.8496 164.35 18.1025 164.191C18.3581 164.029 18.6678 163.949 19.0314 163.949C19.4007 163.949 19.7104 164.029 19.9604 164.191C20.2104 164.35 20.3993 164.564 20.5272 164.831C20.655 165.095 20.7189 165.386 20.7189 165.704V166.164C20.7189 166.483 20.6536 166.775 20.5229 167.042C20.3951 167.306 20.2047 167.52 19.9519 167.681C19.7019 167.841 19.3951 167.92 19.0314 167.92C18.6621 167.92 18.351 167.841 18.0982 167.681C17.8453 167.52 17.6536 167.306 17.5229 167.042C17.3922 166.775 17.3269 166.483 17.3269 166.164ZM18.1962 165.704V166.164C18.1962 166.429 18.2587 166.666 18.3837 166.876C18.5087 167.083 18.7246 167.187 19.0314 167.187C19.3297 167.187 19.54 167.083 19.6621 166.876C19.7871 166.666 19.8496 166.429 19.8496 166.164V165.704C19.8496 165.44 19.79 165.204 19.6706 164.997C19.5513 164.787 19.3382 164.681 19.0314 164.681C18.7331 164.681 18.5186 164.787 18.388 164.997C18.2601 165.204 18.1962 165.44 18.1962 165.704ZM12.9803 161.17V160.71C12.9803 160.392 13.0456 160.1 13.1763 159.836C13.3098 159.569 13.503 159.356 13.7559 159.197C14.0115 159.035 14.3212 158.954 14.6848 158.954C15.0542 158.954 15.3638 159.035 15.6138 159.197C15.8638 159.356 16.0527 159.569 16.1806 159.836C16.3084 160.1 16.3723 160.392 16.3723 160.71V161.17C16.3723 161.488 16.307 161.781 16.1763 162.048C16.0485 162.312 15.8581 162.525 15.6053 162.687C15.3553 162.846 15.0485 162.926 14.6848 162.926C14.3155 162.926 14.0044 162.846 13.7516 162.687C13.4988 162.525 13.307 162.312 13.1763 162.048C13.0456 161.781 12.9803 161.488 12.9803 161.17ZM13.8496 160.71V161.17C13.8496 161.434 13.9121 161.672 14.0371 161.882C14.1621 162.089 14.378 162.193 14.6848 162.193C14.9831 162.193 15.1934 162.089 15.3155 161.882C15.4405 161.672 15.503 161.434 15.503 161.17V160.71C15.503 160.446 15.4434 160.21 15.324 160.002C15.2047 159.792 14.9917 159.687 14.6848 159.687C14.3865 159.687 14.1721 159.792 14.0414 160.002C13.9135 160.21 13.8496 160.446 13.8496 160.71ZM13.3042 167.801L19.3042 159.074H20.2757L14.2757 167.801H13.3042Z" fill="#6C8180"/>
<path d="M8.15696 192.721C7.59446 192.721 7.09304 192.624 6.6527 192.431C6.2152 192.238 5.86719 191.969 5.60866 191.626C5.35298 191.279 5.21378 190.877 5.19105 190.42H6.26491C6.28764 190.701 6.38423 190.944 6.55469 191.148C6.72514 191.35 6.94815 191.506 7.22372 191.617C7.49929 191.728 7.80469 191.783 8.13991 191.783C8.51491 191.783 8.8473 191.718 9.13707 191.587C9.42685 191.457 9.65412 191.275 9.81889 191.042C9.98366 190.809 10.0661 190.539 10.0661 190.232C10.0661 189.911 9.98651 189.629 9.82741 189.384C9.66832 189.137 9.43537 188.944 9.12855 188.805C8.82173 188.665 8.44673 188.596 8.00355 188.596H7.30469V187.658H8.00355C8.35014 187.658 8.65412 187.596 8.91548 187.471C9.17969 187.346 9.38565 187.17 9.53338 186.942C9.68395 186.715 9.75923 186.448 9.75923 186.141C9.75923 185.846 9.69389 185.589 9.56321 185.37C9.43253 185.151 9.24787 184.981 9.00923 184.859C8.77344 184.737 8.49503 184.675 8.17401 184.675C7.87287 184.675 7.58878 184.731 7.32173 184.842C7.05753 184.95 6.84162 185.107 6.67401 185.315C6.50639 185.519 6.41548 185.766 6.40128 186.056H5.37855C5.3956 185.599 5.53338 185.198 5.7919 184.854C6.05043 184.508 6.38849 184.238 6.80611 184.045C7.22656 183.852 7.68821 183.755 8.19105 183.755C8.73082 183.755 9.19389 183.864 9.58026 184.083C9.96662 184.299 10.2635 184.585 10.4709 184.94C10.6783 185.295 10.782 185.678 10.782 186.09C10.782 186.582 10.6527 187.001 10.3942 187.347C10.1385 187.694 9.79048 187.934 9.35014 188.067V188.136C9.90128 188.227 10.3317 188.461 10.6413 188.839C10.951 189.214 11.1058 189.678 11.1058 190.232C11.1058 190.707 10.9766 191.133 10.718 191.511C10.4624 191.886 10.1129 192.181 9.66974 192.397C9.22656 192.613 8.7223 192.721 8.15696 192.721ZM17.2976 190.965V190.505C17.2976 190.187 17.3629 189.896 17.4936 189.631C17.6271 189.364 17.8203 189.151 18.0732 188.992C18.3288 188.83 18.6385 188.749 19.0021 188.749C19.3714 188.749 19.6811 188.83 19.9311 188.992C20.1811 189.151 20.37 189.364 20.4979 189.631C20.6257 189.896 20.6896 190.187 20.6896 190.505V190.965C20.6896 191.283 20.6243 191.576 20.4936 191.843C20.3658 192.107 20.1754 192.32 19.9226 192.482C19.6726 192.641 19.3658 192.721 19.0021 192.721C18.6328 192.721 18.3217 192.641 18.0689 192.482C17.8161 192.32 17.6243 192.107 17.4936 191.843C17.3629 191.576 17.2976 191.283 17.2976 190.965ZM18.1669 190.505V190.965C18.1669 191.229 18.2294 191.467 18.3544 191.677C18.4794 191.884 18.6953 191.988 19.0021 191.988C19.3004 191.988 19.5107 191.884 19.6328 191.677C19.7578 191.467 19.8203 191.229 19.8203 190.965V190.505C19.8203 190.241 19.7607 190.005 19.6413 189.798C19.522 189.587 19.3089 189.482 19.0021 189.482C18.7038 189.482 18.4893 189.587 18.3587 189.798C18.2308 190.005 18.1669 190.241 18.1669 190.505ZM12.951 185.971V185.511C12.951 185.192 13.0163 184.901 13.147 184.637C13.2805 184.37 13.4737 184.157 13.7266 183.998C13.9822 183.836 14.2919 183.755 14.6555 183.755C15.0249 183.755 15.3345 183.836 15.5845 183.998C15.8345 184.157 16.0234 184.37 16.1513 184.637C16.2791 184.901 16.343 185.192 16.343 185.511V185.971C16.343 186.289 16.2777 186.582 16.147 186.849C16.0192 187.113 15.8288 187.326 15.576 187.488C15.326 187.647 15.0192 187.727 14.6555 187.727C14.2862 187.727 13.9751 187.647 13.7223 187.488C13.4695 187.326 13.2777 187.113 13.147 186.849C13.0163 186.582 12.951 186.289 12.951 185.971ZM13.8203 185.511V185.971C13.8203 186.235 13.8828 186.472 14.0078 186.683C14.1328 186.89 14.3487 186.994 14.6555 186.994C14.9538 186.994 15.1641 186.89 15.2862 186.683C15.4112 186.472 15.4737 186.235 15.4737 185.971V185.511C15.4737 185.246 15.4141 185.011 15.2947 184.803C15.1754 184.593 14.9624 184.488 14.6555 184.488C14.3572 184.488 14.1428 184.593 14.0121 184.803C13.8842 185.011 13.8203 185.246 13.8203 185.511ZM13.2749 192.602L19.2749 183.874H20.2464L14.2464 192.602H13.2749Z" fill="#6C8180"/>
<path d="M5.3956 217.398V216.631L8.27628 213.478C8.61435 213.109 8.89276 212.788 9.11151 212.515C9.33026 212.239 9.49219 211.981 9.5973 211.739C9.70526 211.495 9.75923 211.239 9.75923 210.972C9.75923 210.665 9.68537 210.4 9.53764 210.175C9.39276 209.951 9.19389 209.778 8.94105 209.656C8.68821 209.533 8.40412 209.472 8.08878 209.472C7.75355 209.472 7.46094 209.542 7.21094 209.681C6.96378 209.817 6.77202 210.009 6.63565 210.256C6.50213 210.504 6.43537 210.793 6.43537 211.126H5.42969C5.42969 210.614 5.54759 210.165 5.78338 209.779C6.01918 209.393 6.3402 209.092 6.74645 208.876C7.15554 208.66 7.61435 208.552 8.12287 208.552C8.63423 208.552 9.08736 208.66 9.48224 208.876C9.87713 209.092 10.1868 209.383 10.4112 209.749C10.6357 210.116 10.7479 210.523 10.7479 210.972C10.7479 211.293 10.6896 211.607 10.5732 211.914C10.4595 212.218 10.2607 212.558 9.97656 212.933C9.69531 213.305 9.30469 213.759 8.80469 214.296L6.84446 216.393V216.461H10.9013V217.398H5.3956ZM17.1101 215.762V215.302C17.1101 214.984 17.1754 214.692 17.3061 214.428C17.4396 214.161 17.6328 213.948 17.8857 213.789C18.1413 213.627 18.451 213.546 18.8146 213.546C19.1839 213.546 19.4936 213.627 19.7436 213.789C19.9936 213.948 20.1825 214.161 20.3104 214.428C20.4382 214.692 20.5021 214.984 20.5021 215.302V215.762C20.5021 216.08 20.4368 216.373 20.3061 216.64C20.1783 216.904 19.9879 217.117 19.7351 217.279C19.4851 217.438 19.1783 217.518 18.8146 217.518C18.4453 217.518 18.1342 217.438 17.8814 217.279C17.6286 217.117 17.4368 216.904 17.3061 216.64C17.1754 216.373 17.1101 216.08 17.1101 215.762ZM17.9794 215.302V215.762C17.9794 216.026 18.0419 216.263 18.1669 216.474C18.2919 216.681 18.5078 216.785 18.8146 216.785C19.1129 216.785 19.3232 216.681 19.4453 216.474C19.5703 216.263 19.6328 216.026 19.6328 215.762V215.302C19.6328 215.038 19.5732 214.802 19.4538 214.594C19.3345 214.384 19.1214 214.279 18.8146 214.279C18.5163 214.279 18.3018 214.384 18.1712 214.594C18.0433 214.802 17.9794 215.038 17.9794 215.302ZM12.7635 210.768V210.308C12.7635 209.989 12.8288 209.698 12.9595 209.434C13.093 209.167 13.2862 208.954 13.5391 208.795C13.7947 208.633 14.1044 208.552 14.468 208.552C14.8374 208.552 15.147 208.633 15.397 208.795C15.647 208.954 15.8359 209.167 15.9638 209.434C16.0916 209.698 16.1555 209.989 16.1555 210.308V210.768C16.1555 211.086 16.0902 211.379 15.9595 211.646C15.8317 211.91 15.6413 212.123 15.3885 212.285C15.1385 212.444 14.8317 212.523 14.468 212.523C14.0987 212.523 13.7876 212.444 13.5348 212.285C13.282 212.123 13.0902 211.91 12.9595 211.646C12.8288 211.379 12.7635 211.086 12.7635 210.768ZM13.6328 210.308V210.768C13.6328 211.032 13.6953 211.269 13.8203 211.479C13.9453 211.687 14.1612 211.79 14.468 211.79C14.7663 211.79 14.9766 211.687 15.0987 211.479C15.2237 211.269 15.2862 211.032 15.2862 210.768V210.308C15.2862 210.043 15.2266 209.808 15.1072 209.6C14.9879 209.39 14.7749 209.285 14.468 209.285C14.1697 209.285 13.9553 209.39 13.8246 209.6C13.6967 209.808 13.6328 210.043 13.6328 210.308ZM13.0874 217.398L19.0874 208.671H20.0589L14.0589 217.398H13.0874Z" fill="#6C8180"/>
<path d="M9.30753 233.472V242.199H8.25071V234.58H8.19957L6.06889 235.995V234.921L8.25071 233.472H9.30753ZM16.2663 240.563V240.103C16.2663 239.784 16.3317 239.493 16.4624 239.229C16.5959 238.962 16.7891 238.749 17.0419 238.59C17.2976 238.428 17.6072 238.347 17.9709 238.347C18.3402 238.347 18.6499 238.428 18.8999 238.59C19.1499 238.749 19.3388 238.962 19.4666 239.229C19.5945 239.493 19.6584 239.784 19.6584 240.103V240.563C19.6584 240.881 19.593 241.174 19.4624 241.441C19.3345 241.705 19.1442 241.918 18.8913 242.08C18.6413 242.239 18.3345 242.319 17.9709 242.319C17.6016 242.319 17.2905 242.239 17.0376 242.08C16.7848 241.918 16.593 241.705 16.4624 241.441C16.3317 241.174 16.2663 240.881 16.2663 240.563ZM17.1357 240.103V240.563C17.1357 240.827 17.1982 241.064 17.3232 241.275C17.4482 241.482 17.6641 241.586 17.9709 241.586C18.2692 241.586 18.4794 241.482 18.6016 241.275C18.7266 241.064 18.7891 240.827 18.7891 240.563V240.103C18.7891 239.838 18.7294 239.603 18.6101 239.395C18.4908 239.185 18.2777 239.08 17.9709 239.08C17.6726 239.08 17.4581 239.185 17.3274 239.395C17.1996 239.603 17.1357 239.838 17.1357 240.103ZM11.9197 235.569V235.108C11.9197 234.79 11.9851 234.499 12.1158 234.235C12.2493 233.968 12.4425 233.755 12.6953 233.596C12.951 233.434 13.2607 233.353 13.6243 233.353C13.9936 233.353 14.3033 233.434 14.5533 233.596C14.8033 233.755 14.9922 233.968 15.12 234.235C15.2479 234.499 15.3118 234.79 15.3118 235.108V235.569C15.3118 235.887 15.2464 236.179 15.1158 236.446C14.9879 236.711 14.7976 236.924 14.5447 237.086C14.2947 237.245 13.9879 237.324 13.6243 237.324C13.255 237.324 12.9439 237.245 12.6911 237.086C12.4382 236.924 12.2464 236.711 12.1158 236.446C11.9851 236.179 11.9197 235.887 11.9197 235.569ZM12.7891 235.108V235.569C12.7891 235.833 12.8516 236.07 12.9766 236.28C13.1016 236.488 13.3175 236.591 13.6243 236.591C13.9226 236.591 14.1328 236.488 14.255 236.28C14.38 236.07 14.4425 235.833 14.4425 235.569V235.108C14.4425 234.844 14.3828 234.608 14.2635 234.401C14.1442 234.191 13.9311 234.086 13.6243 234.086C13.326 234.086 13.1115 234.191 12.9808 234.401C12.853 234.608 12.7891 234.844 12.7891 235.108ZM12.2436 242.199L18.2436 233.472H19.2152L13.2152 242.199H12.2436Z" fill="#6C8180"/>
<path d="M8.125 267.119C7.48295 267.119 6.93608 266.945 6.48438 266.595C6.03267 266.243 5.6875 265.733 5.44886 265.065C5.21023 264.395 5.09091 263.585 5.09091 262.636C5.09091 261.693 5.21023 260.888 5.44886 260.22C5.69034 259.55 6.03693 259.038 6.48864 258.686C6.94318 258.331 7.48864 258.153 8.125 258.153C8.76136 258.153 9.3054 258.331 9.7571 258.686C10.2116 259.038 10.5582 259.55 10.7969 260.22C11.0384 260.888 11.1591 261.693 11.1591 262.636C11.1591 263.585 11.0398 264.395 10.8011 265.065C10.5625 265.733 10.2173 266.243 9.76562 266.595C9.31392 266.945 8.76705 267.119 8.125 267.119ZM8.125 266.182C8.76136 266.182 9.25568 265.875 9.60795 265.261C9.96023 264.648 10.1364 263.773 10.1364 262.636C10.1364 261.881 10.0554 261.237 9.89347 260.706C9.73438 260.175 9.50426 259.77 9.20312 259.491C8.90483 259.213 8.54545 259.074 8.125 259.074C7.49432 259.074 7.00142 259.385 6.64631 260.007C6.29119 260.626 6.11364 261.503 6.11364 262.636C6.11364 263.392 6.19318 264.034 6.35227 264.562C6.51136 265.091 6.74006 265.493 7.03835 265.768C7.33949 266.044 7.7017 266.182 8.125 266.182ZM17.2273 265.364V264.903C17.2273 264.585 17.2926 264.294 17.4233 264.03C17.5568 263.763 17.75 263.55 18.0028 263.391C18.2585 263.229 18.5682 263.148 18.9318 263.148C19.3011 263.148 19.6108 263.229 19.8608 263.391C20.1108 263.55 20.2997 263.763 20.4276 264.03C20.5554 264.294 20.6193 264.585 20.6193 264.903V265.364C20.6193 265.682 20.554 265.974 20.4233 266.241C20.2955 266.506 20.1051 266.719 19.8523 266.881C19.6023 267.04 19.2955 267.119 18.9318 267.119C18.5625 267.119 18.2514 267.04 17.9986 266.881C17.7457 266.719 17.554 266.506 17.4233 266.241C17.2926 265.974 17.2273 265.682 17.2273 265.364ZM18.0966 264.903V265.364C18.0966 265.628 18.1591 265.865 18.2841 266.075C18.4091 266.283 18.625 266.386 18.9318 266.386C19.2301 266.386 19.4403 266.283 19.5625 266.075C19.6875 265.865 19.75 265.628 19.75 265.364V264.903C19.75 264.639 19.6903 264.403 19.571 264.196C19.4517 263.986 19.2386 263.881 18.9318 263.881C18.6335 263.881 18.419 263.986 18.2884 264.196C18.1605 264.403 18.0966 264.639 18.0966 264.903ZM12.8807 260.369V259.909C12.8807 259.591 12.946 259.3 13.0767 259.036C13.2102 258.768 13.4034 258.555 13.6562 258.396C13.9119 258.234 14.2216 258.153 14.5852 258.153C14.9545 258.153 15.2642 258.234 15.5142 258.396C15.7642 258.555 15.9531 258.768 16.081 259.036C16.2088 259.3 16.2727 259.591 16.2727 259.909V260.369C16.2727 260.687 16.2074 260.98 16.0767 261.247C15.9489 261.511 15.7585 261.724 15.5057 261.886C15.2557 262.045 14.9489 262.125 14.5852 262.125C14.2159 262.125 13.9048 262.045 13.652 261.886C13.3991 261.724 13.2074 261.511 13.0767 261.247C12.946 260.98 12.8807 260.687 12.8807 260.369ZM13.75 259.909V260.369C13.75 260.634 13.8125 260.871 13.9375 261.081C14.0625 261.288 14.2784 261.392 14.5852 261.392C14.8835 261.392 15.0938 261.288 15.2159 261.081C15.3409 260.871 15.4034 260.634 15.4034 260.369V259.909C15.4034 259.645 15.3438 259.409 15.2244 259.202C15.1051 258.991 14.892 258.886 14.5852 258.886C14.2869 258.886 14.0724 258.991 13.9418 259.202C13.8139 259.409 13.75 259.645 13.75 259.909ZM13.2045 267L19.2045 258.273H20.1761L14.1761 267H13.2045Z" fill="#6C8180"/>
<mask id="path-12-inside-1_867_37122" fill="white">
<path d="M34 0H648V263H34V0Z"/>
</mask>
<path d="M34 263H33V264H34V263ZM648 262H34V264H648V262ZM35 263V0H33V263H35Z" fill="#D5DDDC" mask="url(#path-12-inside-1_867_37122)"/>
<rect x="50.5" y="37" width="9" height="226" fill="#2D5551"/>
<rect x="81.5" y="108" width="9" height="155" fill="#2D5551"/>
<rect x="110.5" y="139" width="9" height="124" fill="#2D5551"/>
<rect x="140.5" y="167" width="9" height="96" fill="#2D5551"/>
<rect x="170.5" y="167" width="9" height="96" fill="#2D5551"/>
<rect x="201.5" y="167" width="9" height="96" fill="#2D5551"/>
<rect x="231.5" y="177" width="9" height="86" fill="#2D5551"/>
<rect x="261.5" y="177" width="9" height="86" fill="#2D5551"/>
<rect x="291.5" y="183" width="9" height="80" fill="#2D5551"/>
<rect x="321.5" y="187" width="9" height="76" fill="#2D5551"/>
<rect x="351.5" y="208" width="9" height="55" fill="#2D5551"/>
<rect x="381.5" y="208" width="9" height="55" fill="#2D5551"/>
<rect x="411.5" y="208" width="9" height="55" fill="#2D5551"/>
<path d="M56.1825 276.273V285H55.1257V277.381H55.0746L52.9439 278.795V277.722L55.1257 276.273H56.1825Z" fill="#6C8180"/>
<path d="M82.3761 285V284.233L85.2567 281.08C85.5948 280.71 85.8732 280.389 86.092 280.116C86.3107 279.841 86.4727 279.582 86.5778 279.341C86.6857 279.097 86.7397 278.841 86.7397 278.574C86.7397 278.267 86.6658 278.001 86.5181 277.777C86.3732 277.553 86.1744 277.379 85.9215 277.257C85.6687 277.135 85.3846 277.074 85.0692 277.074C84.734 277.074 84.4414 277.143 84.1914 277.283C83.9442 277.419 83.7525 277.611 83.6161 277.858C83.4826 278.105 83.4158 278.395 83.4158 278.727H82.4102C82.4102 278.216 82.5281 277.767 82.7638 277.381C82.9996 276.994 83.3207 276.693 83.7269 276.477C84.136 276.261 84.5948 276.153 85.1033 276.153C85.6147 276.153 86.0678 276.261 86.4627 276.477C86.8576 276.693 87.1673 276.984 87.3917 277.351C87.6161 277.717 87.7283 278.125 87.7283 278.574C87.7283 278.895 87.6701 279.209 87.5536 279.516C87.44 279.82 87.2411 280.159 86.957 280.534C86.6758 280.906 86.2852 281.361 85.7852 281.898L83.8249 283.994V284.062H87.8817V285H82.3761Z" fill="#6C8180"/>
<path d="M115.243 285.119C114.68 285.119 114.179 285.023 113.739 284.83C113.301 284.636 112.953 284.368 112.695 284.024C112.439 283.678 112.3 283.276 112.277 282.818H113.351C113.374 283.099 113.47 283.342 113.641 283.547C113.811 283.749 114.034 283.905 114.31 284.016C114.585 284.126 114.891 284.182 115.226 284.182C115.601 284.182 115.933 284.116 116.223 283.986C116.513 283.855 116.74 283.673 116.905 283.44C117.07 283.207 117.152 282.938 117.152 282.631C117.152 282.31 117.072 282.027 116.913 281.783C116.754 281.536 116.521 281.342 116.214 281.203C115.908 281.064 115.533 280.994 115.089 280.994H114.391V280.057H115.089C115.436 280.057 115.74 279.994 116.001 279.869C116.266 279.744 116.472 279.568 116.619 279.341C116.77 279.114 116.845 278.847 116.845 278.54C116.845 278.244 116.78 277.987 116.649 277.768C116.518 277.55 116.334 277.379 116.095 277.257C115.859 277.135 115.581 277.074 115.26 277.074C114.959 277.074 114.675 277.129 114.408 277.24C114.143 277.348 113.928 277.506 113.76 277.713C113.592 277.918 113.501 278.165 113.487 278.455H112.464C112.482 277.997 112.619 277.597 112.878 277.253C113.136 276.906 113.474 276.636 113.892 276.443C114.313 276.25 114.774 276.153 115.277 276.153C115.817 276.153 116.28 276.263 116.666 276.482C117.053 276.697 117.349 276.983 117.557 277.338C117.764 277.693 117.868 278.077 117.868 278.489C117.868 278.98 117.739 279.399 117.48 279.746C117.224 280.092 116.876 280.332 116.436 280.466V280.534C116.987 280.625 117.418 280.859 117.727 281.237C118.037 281.612 118.192 282.077 118.192 282.631C118.192 283.105 118.063 283.531 117.804 283.909C117.548 284.284 117.199 284.58 116.756 284.795C116.313 285.011 115.808 285.119 115.243 285.119Z" fill="#6C8180"/>
<path d="M142.166 283.21V282.341L146.001 276.273H146.632V277.619H146.205L143.308 282.205V282.273H148.472V283.21H142.166ZM146.274 285V282.946V282.541V276.273H147.279V285H146.274Z" fill="#6C8180"/>
<path d="M175.402 285.119C174.902 285.119 174.452 285.02 174.051 284.821C173.651 284.622 173.33 284.349 173.088 284.003C172.847 283.656 172.715 283.261 172.692 282.818H173.715C173.754 283.213 173.933 283.54 174.252 283.798C174.573 284.054 174.956 284.182 175.402 284.182C175.76 284.182 176.078 284.098 176.357 283.93C176.638 283.763 176.858 283.533 177.017 283.24C177.179 282.945 177.26 282.611 177.26 282.239C177.26 281.858 177.176 281.518 177.009 281.22C176.844 280.919 176.617 280.682 176.327 280.509C176.037 280.335 175.706 280.247 175.334 280.244C175.067 280.241 174.793 280.283 174.512 280.368C174.23 280.45 173.999 280.557 173.817 280.688L172.828 280.568L173.357 276.273H177.891V277.21H174.243L173.936 279.784H173.987C174.166 279.642 174.391 279.524 174.661 279.43C174.931 279.337 175.212 279.29 175.504 279.29C176.039 279.29 176.514 279.418 176.932 279.673C177.352 279.926 177.682 280.273 177.921 280.713C178.162 281.153 178.283 281.656 178.283 282.222C178.283 282.778 178.158 283.276 177.908 283.713C177.661 284.148 177.32 284.491 176.885 284.744C176.45 284.994 175.956 285.119 175.402 285.119Z" fill="#6C8180"/>
<path d="M205.582 285.119C205.224 285.114 204.866 285.045 204.509 284.915C204.151 284.784 203.824 284.564 203.528 284.254C203.233 283.942 202.996 283.52 202.817 282.989C202.638 282.455 202.548 281.784 202.548 280.977C202.548 280.205 202.621 279.52 202.766 278.923C202.911 278.324 203.121 277.82 203.396 277.411C203.672 276.999 204.004 276.686 204.393 276.473C204.786 276.26 205.227 276.153 205.719 276.153C206.207 276.153 206.642 276.251 207.023 276.447C207.406 276.641 207.719 276.911 207.96 277.257C208.202 277.604 208.358 278.003 208.429 278.455H207.389C207.293 278.062 207.105 277.737 206.827 277.479C206.548 277.22 206.179 277.091 205.719 277.091C205.043 277.091 204.51 277.385 204.121 277.973C203.734 278.561 203.54 279.386 203.537 280.449H203.605C203.764 280.207 203.953 280.001 204.172 279.831C204.393 279.658 204.638 279.524 204.905 279.43C205.172 279.337 205.455 279.29 205.753 279.29C206.253 279.29 206.71 279.415 207.125 279.665C207.54 279.912 207.872 280.254 208.122 280.692C208.372 281.126 208.497 281.625 208.497 282.188C208.497 282.727 208.376 283.222 208.135 283.67C207.893 284.116 207.554 284.472 207.116 284.736C206.682 284.997 206.17 285.125 205.582 285.119ZM205.582 284.182C205.94 284.182 206.261 284.092 206.545 283.913C206.832 283.734 207.058 283.494 207.223 283.193C207.391 282.892 207.474 282.557 207.474 282.188C207.474 281.827 207.393 281.499 207.232 281.203C207.072 280.905 206.852 280.668 206.571 280.491C206.293 280.315 205.974 280.227 205.616 280.227C205.347 280.227 205.095 280.281 204.862 280.389C204.629 280.494 204.425 280.639 204.249 280.824C204.075 281.009 203.939 281.22 203.839 281.459C203.74 281.695 203.69 281.943 203.69 282.205C203.69 282.551 203.771 282.875 203.933 283.176C204.098 283.477 204.322 283.72 204.607 283.905C204.893 284.089 205.219 284.182 205.582 284.182Z" fill="#6C8180"/>
<path d="M233.379 285L237.283 277.278V277.21H232.783V276.273H238.374V277.261L234.487 285H233.379Z" fill="#6C8180"/>
<path d="M265.738 285.119C265.153 285.119 264.636 285.016 264.187 284.808C263.741 284.598 263.393 284.31 263.143 283.943C262.893 283.574 262.769 283.153 262.772 282.682C262.769 282.312 262.842 281.972 262.989 281.659C263.137 281.344 263.339 281.081 263.594 280.871C263.853 280.658 264.141 280.523 264.46 280.466V280.415C264.042 280.307 263.71 280.072 263.462 279.712C263.215 279.348 263.093 278.935 263.096 278.472C263.093 278.028 263.205 277.632 263.433 277.283C263.66 276.933 263.972 276.658 264.37 276.456C264.771 276.254 265.227 276.153 265.738 276.153C266.244 276.153 266.695 276.254 267.093 276.456C267.491 276.658 267.803 276.933 268.031 277.283C268.261 277.632 268.377 278.028 268.38 278.472C268.377 278.935 268.251 279.348 268.001 279.712C267.754 280.072 267.425 280.307 267.016 280.415V280.466C267.332 280.523 267.616 280.658 267.869 280.871C268.121 281.081 268.323 281.344 268.474 281.659C268.624 281.972 268.701 282.312 268.704 282.682C268.701 283.153 268.573 283.574 268.32 283.943C268.07 284.31 267.722 284.598 267.276 284.808C266.833 285.016 266.32 285.119 265.738 285.119ZM265.738 284.182C266.133 284.182 266.474 284.118 266.761 283.99C267.048 283.862 267.269 283.682 267.425 283.449C267.582 283.216 267.661 282.943 267.664 282.631C267.661 282.301 267.576 282.01 267.408 281.757C267.241 281.504 267.012 281.305 266.722 281.161C266.435 281.016 266.107 280.943 265.738 280.943C265.366 280.943 265.033 281.016 264.741 281.161C264.451 281.305 264.222 281.504 264.055 281.757C263.89 282.01 263.809 282.301 263.812 282.631C263.809 282.943 263.884 283.216 264.038 283.449C264.194 283.682 264.417 283.862 264.707 283.99C264.996 284.118 265.34 284.182 265.738 284.182ZM265.738 280.04C266.05 280.04 266.327 279.977 266.569 279.852C266.813 279.727 267.005 279.553 267.144 279.328C267.283 279.104 267.354 278.841 267.357 278.54C267.354 278.244 267.285 277.987 267.148 277.768C267.012 277.547 266.823 277.376 266.582 277.257C266.34 277.135 266.059 277.074 265.738 277.074C265.411 277.074 265.126 277.135 264.881 277.257C264.637 277.376 264.448 277.547 264.315 277.768C264.181 277.987 264.116 278.244 264.119 278.54C264.116 278.841 264.183 279.104 264.319 279.328C264.458 279.553 264.65 279.727 264.894 279.852C265.138 279.977 265.42 280.04 265.738 280.04Z" fill="#6C8180"/>
<path d="M295.779 276.153C296.137 276.156 296.495 276.224 296.853 276.358C297.211 276.491 297.538 276.713 297.833 277.023C298.129 277.33 298.366 277.749 298.545 278.28C298.724 278.811 298.814 279.477 298.814 280.278C298.814 281.054 298.74 281.743 298.592 282.345C298.447 282.945 298.237 283.45 297.961 283.862C297.689 284.274 297.356 284.587 296.964 284.8C296.575 285.013 296.135 285.119 295.643 285.119C295.154 285.119 294.718 285.023 294.335 284.83C293.954 284.634 293.642 284.362 293.397 284.016C293.156 283.666 293.001 283.261 292.933 282.801H293.973C294.066 283.202 294.252 283.533 294.531 283.794C294.812 284.053 295.183 284.182 295.643 284.182C296.316 284.182 296.848 283.888 297.237 283.3C297.629 282.712 297.825 281.881 297.825 280.807H297.757C297.598 281.045 297.409 281.251 297.19 281.425C296.971 281.598 296.728 281.732 296.461 281.825C296.194 281.919 295.91 281.966 295.609 281.966C295.109 281.966 294.65 281.842 294.233 281.595C293.818 281.345 293.485 281.003 293.235 280.568C292.988 280.131 292.865 279.631 292.865 279.068C292.865 278.534 292.984 278.045 293.223 277.602C293.464 277.156 293.802 276.801 294.237 276.537C294.674 276.273 295.189 276.145 295.779 276.153ZM295.779 277.091C295.422 277.091 295.099 277.18 294.812 277.359C294.528 277.536 294.302 277.774 294.135 278.075C293.97 278.374 293.887 278.705 293.887 279.068C293.887 279.432 293.967 279.763 294.126 280.061C294.288 280.357 294.508 280.592 294.787 280.768C295.068 280.942 295.387 281.028 295.745 281.028C296.015 281.028 296.267 280.976 296.5 280.871C296.733 280.763 296.936 280.616 297.109 280.432C297.285 280.244 297.423 280.033 297.522 279.797C297.622 279.558 297.672 279.31 297.672 279.051C297.672 278.71 297.589 278.391 297.424 278.092C297.262 277.794 297.038 277.553 296.751 277.368C296.467 277.183 296.143 277.091 295.779 277.091Z" fill="#6C8180"/>
<path d="M323.38 276.273V285H322.323V277.381H322.272L320.141 278.795V277.722L322.323 276.273H323.38ZM328.736 285.119C328.094 285.119 327.547 284.945 327.096 284.595C326.644 284.243 326.299 283.733 326.06 283.065C325.822 282.395 325.702 281.585 325.702 280.636C325.702 279.693 325.822 278.888 326.06 278.22C326.302 277.55 326.648 277.038 327.1 276.686C327.555 276.331 328.1 276.153 328.736 276.153C329.373 276.153 329.917 276.331 330.368 276.686C330.823 277.038 331.17 277.55 331.408 278.22C331.65 278.888 331.77 279.693 331.77 280.636C331.77 281.585 331.651 282.395 331.412 283.065C331.174 283.733 330.829 284.243 330.377 284.595C329.925 284.945 329.378 285.119 328.736 285.119ZM328.736 284.182C329.373 284.182 329.867 283.875 330.219 283.261C330.572 282.648 330.748 281.773 330.748 280.636C330.748 279.881 330.667 279.237 330.505 278.706C330.346 278.175 330.116 277.77 329.814 277.491C329.516 277.213 329.157 277.074 328.736 277.074C328.106 277.074 327.613 277.385 327.258 278.007C326.903 278.626 326.725 279.503 326.725 280.636C326.725 281.392 326.805 282.034 326.964 282.562C327.123 283.091 327.351 283.493 327.65 283.768C327.951 284.044 328.313 284.182 328.736 284.182Z" fill="#6C8180"/>
<path d="M354.446 276.273V285H353.389V277.381H353.338L351.208 278.795V277.722L353.389 276.273H354.446ZM360.024 276.273V285H358.968V277.381H358.916L356.786 278.795V277.722L358.968 276.273H360.024Z" fill="#6C8180"/>
<path d="M383.708 276.273V285H382.651V277.381H382.6L380.469 278.795V277.722L382.651 276.273H383.708ZM386.218 285V284.233L389.099 281.08C389.437 280.71 389.715 280.389 389.934 280.116C390.153 279.841 390.314 279.582 390.42 279.341C390.528 279.097 390.581 278.841 390.581 278.574C390.581 278.267 390.508 278.001 390.36 277.777C390.215 277.553 390.016 277.379 389.763 277.257C389.51 277.135 389.226 277.074 388.911 277.074C388.576 277.074 388.283 277.143 388.033 277.283C387.786 277.419 387.594 277.611 387.458 277.858C387.324 278.105 387.258 278.395 387.258 278.727H386.252C386.252 278.216 386.37 277.767 386.606 277.381C386.841 276.994 387.162 276.693 387.569 276.477C387.978 276.261 388.437 276.153 388.945 276.153C389.456 276.153 389.91 276.261 390.305 276.477C390.699 276.693 391.009 276.984 391.233 277.351C391.458 277.717 391.57 278.125 391.57 278.574C391.57 278.895 391.512 279.209 391.395 279.516C391.282 279.82 391.083 280.159 390.799 280.534C390.518 280.906 390.127 281.361 389.627 281.898L387.667 283.994V284.062H391.724V285H386.218Z" fill="#6C8180"/>
<path d="M413.626 276.273V285H412.569V277.381H412.518L410.387 278.795V277.722L412.569 276.273H413.626ZM419.085 285.119C418.522 285.119 418.021 285.023 417.58 284.83C417.143 284.636 416.795 284.368 416.536 284.024C416.281 283.678 416.142 283.276 416.119 282.818H417.193C417.215 283.099 417.312 283.342 417.482 283.547C417.653 283.749 417.876 283.905 418.151 284.016C418.427 284.126 418.732 284.182 419.068 284.182C419.443 284.182 419.775 284.116 420.065 283.986C420.355 283.855 420.582 283.673 420.747 283.44C420.911 283.207 420.994 282.938 420.994 282.631C420.994 282.31 420.914 282.027 420.755 281.783C420.596 281.536 420.363 281.342 420.056 281.203C419.749 281.064 419.374 280.994 418.931 280.994H418.232V280.057H418.931C419.278 280.057 419.582 279.994 419.843 279.869C420.107 279.744 420.313 279.568 420.461 279.341C420.612 279.114 420.687 278.847 420.687 278.54C420.687 278.244 420.622 277.987 420.491 277.768C420.36 277.55 420.176 277.379 419.937 277.257C419.701 277.135 419.423 277.074 419.102 277.074C418.801 277.074 418.517 277.129 418.249 277.24C417.985 277.348 417.769 277.506 417.602 277.713C417.434 277.918 417.343 278.165 417.329 278.455H416.306C416.323 277.997 416.461 277.597 416.72 277.253C416.978 276.906 417.316 276.636 417.734 276.443C418.154 276.25 418.616 276.153 419.119 276.153C419.659 276.153 420.122 276.263 420.508 276.482C420.894 276.697 421.191 276.983 421.399 277.338C421.606 277.693 421.71 278.077 421.71 278.489C421.71 278.98 421.58 279.399 421.322 279.746C421.066 280.092 420.718 280.332 420.278 280.466V280.534C420.829 280.625 421.259 280.859 421.569 281.237C421.879 281.612 422.034 282.077 422.034 282.631C422.034 283.105 421.904 283.531 421.646 283.909C421.39 284.284 421.041 284.58 420.597 284.795C420.154 285.011 419.65 285.119 419.085 285.119Z" fill="#6C8180"/>
<path d="M443.702 276.273V285H442.645V277.381H442.594L440.463 278.795V277.722L442.645 276.273H443.702ZM446.007 283.21V282.341L449.843 276.273H450.473V277.619H450.047L447.15 282.205V282.273H452.314V283.21H446.007ZM450.115 285V282.946V282.541V276.273H451.121V285H450.115Z" fill="#6C8180"/>
<path d="M474.005 276.273V285H472.948V277.381H472.897L470.766 278.795V277.722L472.948 276.273H474.005ZM479.242 285.119C478.742 285.119 478.292 285.02 477.891 284.821C477.491 284.622 477.17 284.349 476.928 284.003C476.687 283.656 476.555 283.261 476.532 282.818H477.555C477.594 283.213 477.773 283.54 478.091 283.798C478.412 284.054 478.796 284.182 479.242 284.182C479.6 284.182 479.918 284.098 480.197 283.93C480.478 283.763 480.698 283.533 480.857 283.24C481.019 282.945 481.1 282.611 481.1 282.239C481.1 281.858 481.016 281.518 480.849 281.22C480.684 280.919 480.456 280.682 480.167 280.509C479.877 280.335 479.546 280.247 479.174 280.244C478.907 280.241 478.633 280.283 478.351 280.368C478.07 280.45 477.839 280.557 477.657 280.688L476.668 280.568L477.197 276.273H481.731V277.21H478.083L477.776 279.784H477.827C478.006 279.642 478.231 279.524 478.501 279.43C478.77 279.337 479.052 279.29 479.344 279.29C479.878 279.29 480.354 279.418 480.772 279.673C481.192 279.926 481.522 280.273 481.76 280.713C482.002 281.153 482.123 281.656 482.123 282.222C482.123 282.778 481.998 283.276 481.748 283.713C481.501 284.148 481.16 284.491 480.725 284.744C480.29 284.994 479.796 285.119 479.242 285.119Z" fill="#6C8180"/>
<path d="M504.017 276.273V285H502.96V277.381H502.909L500.778 278.795V277.722L502.96 276.273H504.017ZM509.424 285.119C509.066 285.114 508.708 285.045 508.35 284.915C507.992 284.784 507.666 284.564 507.37 284.254C507.075 283.942 506.838 283.52 506.659 282.989C506.48 282.455 506.39 281.784 506.39 280.977C506.39 280.205 506.463 279.52 506.607 278.923C506.752 278.324 506.963 277.82 507.238 277.411C507.514 276.999 507.846 276.686 508.235 276.473C508.627 276.26 509.069 276.153 509.561 276.153C510.049 276.153 510.484 276.251 510.865 276.447C511.248 276.641 511.561 276.911 511.802 277.257C512.044 277.604 512.2 278.003 512.271 278.455H511.231C511.134 278.062 510.947 277.737 510.669 277.479C510.39 277.22 510.021 277.091 509.561 277.091C508.884 277.091 508.352 277.385 507.963 277.973C507.576 278.561 507.382 279.386 507.379 280.449H507.447C507.606 280.207 507.795 280.001 508.014 279.831C508.235 279.658 508.48 279.524 508.747 279.43C509.014 279.337 509.296 279.29 509.595 279.29C510.095 279.29 510.552 279.415 510.967 279.665C511.382 279.912 511.714 280.254 511.964 280.692C512.214 281.126 512.339 281.625 512.339 282.188C512.339 282.727 512.218 283.222 511.977 283.67C511.735 284.116 511.396 284.472 510.958 284.736C510.524 284.997 510.012 285.125 509.424 285.119ZM509.424 284.182C509.782 284.182 510.103 284.092 510.387 283.913C510.674 283.734 510.9 283.494 511.065 283.193C511.232 282.892 511.316 282.557 511.316 282.188C511.316 281.827 511.235 281.499 511.073 281.203C510.914 280.905 510.694 280.668 510.413 280.491C510.134 280.315 509.816 280.227 509.458 280.227C509.188 280.227 508.937 280.281 508.704 280.389C508.471 280.494 508.267 280.639 508.09 280.824C507.917 281.009 507.781 281.22 507.681 281.459C507.582 281.695 507.532 281.943 507.532 282.205C507.532 282.551 507.613 282.875 507.775 283.176C507.94 283.477 508.164 283.72 508.448 283.905C508.735 284.089 509.061 284.182 509.424 284.182Z" fill="#6C8180"/>
<path d="M534.438 276.273V285H533.382V277.381H533.33L531.2 278.795V277.722L533.382 276.273H534.438ZM537.221 285L541.124 277.278V277.21H536.624V276.273H542.215V277.261L538.329 285H537.221Z" fill="#6C8180"/>
<path d="M564.274 276.273V285H563.218V277.381H563.166L561.036 278.795V277.722L563.218 276.273H564.274ZM569.58 285.119C568.994 285.119 568.477 285.016 568.029 284.808C567.583 284.598 567.235 284.31 566.985 283.943C566.735 283.574 566.611 283.153 566.614 282.682C566.611 282.312 566.683 281.972 566.831 281.659C566.979 281.344 567.181 281.081 567.436 280.871C567.695 280.658 567.983 280.523 568.301 280.466V280.415C567.884 280.307 567.551 280.072 567.304 279.712C567.057 279.348 566.935 278.935 566.938 278.472C566.935 278.028 567.047 277.632 567.274 277.283C567.502 276.933 567.814 276.658 568.212 276.456C568.612 276.254 569.068 276.153 569.58 276.153C570.085 276.153 570.537 276.254 570.935 276.456C571.333 276.658 571.645 276.933 571.872 277.283C572.102 277.632 572.219 278.028 572.222 278.472C572.219 278.935 572.093 279.348 571.843 279.712C571.595 280.072 571.267 280.307 570.858 280.415V280.466C571.173 280.523 571.458 280.658 571.71 280.871C571.963 281.081 572.165 281.344 572.316 281.659C572.466 281.972 572.543 282.312 572.546 282.682C572.543 283.153 572.415 283.574 572.162 283.943C571.912 284.31 571.564 284.598 571.118 284.808C570.675 285.016 570.162 285.119 569.58 285.119ZM569.58 284.182C569.975 284.182 570.316 284.118 570.602 283.99C570.889 283.862 571.111 283.682 571.267 283.449C571.423 283.216 571.503 282.943 571.506 282.631C571.503 282.301 571.418 282.01 571.25 281.757C571.083 281.504 570.854 281.305 570.564 281.161C570.277 281.016 569.949 280.943 569.58 280.943C569.208 280.943 568.875 281.016 568.583 281.161C568.293 281.305 568.064 281.504 567.896 281.757C567.732 282.01 567.651 282.301 567.654 282.631C567.651 282.943 567.726 283.216 567.879 283.449C568.036 283.682 568.259 283.862 568.548 283.99C568.838 284.118 569.182 284.182 569.58 284.182ZM569.58 280.04C569.892 280.04 570.169 279.977 570.411 279.852C570.655 279.727 570.847 279.553 570.986 279.328C571.125 279.104 571.196 278.841 571.199 278.54C571.196 278.244 571.127 277.987 570.99 277.768C570.854 277.547 570.665 277.376 570.423 277.257C570.182 277.135 569.901 277.074 569.58 277.074C569.253 277.074 568.968 277.135 568.723 277.257C568.479 277.376 568.29 277.547 568.156 277.768C568.023 277.987 567.958 278.244 567.96 278.54C567.958 278.841 568.024 279.104 568.161 279.328C568.3 279.553 568.492 279.727 568.736 279.852C568.98 279.977 569.262 280.04 569.58 280.04Z" fill="#6C8180"/>
<path d="M594.333 276.273V285H593.276V277.381H593.225L591.094 278.795V277.722L593.276 276.273H594.333ZM599.621 276.153C599.979 276.156 600.337 276.224 600.695 276.358C601.053 276.491 601.38 276.713 601.675 277.023C601.971 277.33 602.208 277.749 602.387 278.28C602.566 278.811 602.655 279.477 602.655 280.278C602.655 281.054 602.581 281.743 602.434 282.345C602.289 282.945 602.079 283.45 601.803 283.862C601.53 284.274 601.198 284.587 600.806 284.8C600.417 285.013 599.976 285.119 599.485 285.119C598.996 285.119 598.56 285.023 598.177 284.83C597.796 284.634 597.483 284.362 597.239 284.016C596.998 283.666 596.843 283.261 596.775 282.801H597.814C597.908 283.202 598.094 283.533 598.373 283.794C598.654 284.053 599.025 284.182 599.485 284.182C600.158 284.182 600.689 283.888 601.079 283.3C601.471 282.712 601.667 281.881 601.667 280.807H601.599C601.439 281.045 601.251 281.251 601.032 281.425C600.813 281.598 600.57 281.732 600.303 281.825C600.036 281.919 599.752 281.966 599.451 281.966C598.951 281.966 598.492 281.842 598.074 281.595C597.66 281.345 597.327 281.003 597.077 280.568C596.83 280.131 596.706 279.631 596.706 279.068C596.706 278.534 596.826 278.045 597.064 277.602C597.306 277.156 597.644 276.801 598.079 276.537C598.516 276.273 599.03 276.145 599.621 276.153ZM599.621 277.091C599.263 277.091 598.941 277.18 598.654 277.359C598.37 277.536 598.144 277.774 597.976 278.075C597.812 278.374 597.729 278.705 597.729 279.068C597.729 279.432 597.809 279.763 597.968 280.061C598.13 280.357 598.35 280.592 598.628 280.768C598.91 280.942 599.229 281.028 599.587 281.028C599.857 281.028 600.108 280.976 600.341 280.871C600.574 280.763 600.778 280.616 600.951 280.432C601.127 280.244 601.265 280.033 601.364 279.797C601.464 279.558 601.513 279.31 601.513 279.051C601.513 278.71 601.431 278.391 601.266 278.092C601.104 277.794 600.88 277.553 600.593 277.368C600.309 277.183 599.985 277.091 599.621 277.091Z" fill="#6C8180"/>
<path d="M620.521 285V284.233L623.401 281.08C623.739 280.71 624.018 280.389 624.237 280.116C624.455 279.841 624.617 279.582 624.722 279.341C624.83 279.097 624.884 278.841 624.884 278.574C624.884 278.267 624.81 278.001 624.663 277.777C624.518 277.553 624.319 277.379 624.066 277.257C623.813 277.135 623.529 277.074 623.214 277.074C622.879 277.074 622.586 277.143 622.336 277.283C622.089 277.419 621.897 277.611 621.761 277.858C621.627 278.105 621.56 278.395 621.56 278.727H620.555C620.555 278.216 620.673 277.767 620.908 277.381C621.144 276.994 621.465 276.693 621.871 276.477C622.281 276.261 622.739 276.153 623.248 276.153C623.759 276.153 624.212 276.261 624.607 276.477C625.002 276.693 625.312 276.984 625.536 277.351C625.761 277.717 625.873 278.125 625.873 278.574C625.873 278.895 625.815 279.209 625.698 279.516C625.585 279.82 625.386 280.159 625.102 280.534C624.82 280.906 624.43 281.361 623.93 281.898L621.969 283.994V284.062H626.026V285H620.521ZM630.633 285.119C629.991 285.119 629.444 284.945 628.992 284.595C628.54 284.243 628.195 283.733 627.957 283.065C627.718 282.395 627.599 281.585 627.599 280.636C627.599 279.693 627.718 278.888 627.957 278.22C628.198 277.55 628.545 277.038 628.996 276.686C629.451 276.331 629.996 276.153 630.633 276.153C631.269 276.153 631.813 276.331 632.265 276.686C632.719 277.038 633.066 277.55 633.305 278.22C633.546 278.888 633.667 279.693 633.667 280.636C633.667 281.585 633.548 282.395 633.309 283.065C633.07 283.733 632.725 284.243 632.273 284.595C631.822 284.945 631.275 285.119 630.633 285.119ZM630.633 284.182C631.269 284.182 631.763 283.875 632.116 283.261C632.468 282.648 632.644 281.773 632.644 280.636C632.644 279.881 632.563 279.237 632.401 278.706C632.242 278.175 632.012 277.77 631.711 277.491C631.413 277.213 631.053 277.074 630.633 277.074C630.002 277.074 629.509 277.385 629.154 278.007C628.799 278.626 628.621 279.503 628.621 280.636C628.621 281.392 628.701 282.034 628.86 282.562C629.019 283.091 629.248 283.493 629.546 283.768C629.847 284.044 630.21 284.182 630.633 284.182Z" fill="#6C8180"/>
</svg>
