<svg width="319" height="306" viewBox="0 0 319 306" fill="none" xmlns="http://www.w3.org/2000/svg">
<path d="M5.55753 5.27273V14H4.50071V6.38068H4.44957L2.31889 7.79545V6.72159L4.50071 5.27273H5.55753ZM10.9141 14.1193C10.272 14.1193 9.72514 13.9446 9.27344 13.5952C8.82173 13.2429 8.47656 12.733 8.23793 12.0653C7.99929 11.3949 7.87997 10.5852 7.87997 9.63636C7.87997 8.69318 7.99929 7.88778 8.23793 7.22017C8.4794 6.54972 8.82599 6.03835 9.2777 5.68608C9.73224 5.33097 10.2777 5.15341 10.9141 5.15341C11.5504 5.15341 12.0945 5.33097 12.5462 5.68608C13.0007 6.03835 13.3473 6.54972 13.5859 7.22017C13.8274 7.88778 13.9482 8.69318 13.9482 9.63636C13.9482 10.5852 13.8288 11.3949 13.5902 12.0653C13.3516 12.733 13.0064 13.2429 12.5547 13.5952C12.103 13.9446 11.5561 14.1193 10.9141 14.1193ZM10.9141 13.1818C11.5504 13.1818 12.0447 12.875 12.397 12.2614C12.7493 11.6477 12.9254 10.7727 12.9254 9.63636C12.9254 8.88068 12.8445 8.23722 12.6825 7.70597C12.5234 7.17472 12.2933 6.76989 11.9922 6.49148C11.6939 6.21307 11.3345 6.07386 10.9141 6.07386C10.2834 6.07386 9.79048 6.38494 9.43537 7.0071C9.08026 7.62642 8.9027 8.50284 8.9027 9.63636C8.9027 10.392 8.98224 11.0341 9.14134 11.5625C9.30043 12.0909 9.52912 12.4929 9.82741 12.7685C10.1286 13.044 10.4908 13.1818 10.9141 13.1818ZM20.0163 12.3636V11.9034C20.0163 11.5852 20.0817 11.294 20.2124 11.0298C20.3459 10.7628 20.5391 10.5497 20.7919 10.3906C21.0476 10.2287 21.3572 10.1477 21.7209 10.1477C22.0902 10.1477 22.3999 10.2287 22.6499 10.3906C22.8999 10.5497 23.0888 10.7628 23.2166 11.0298C23.3445 11.294 23.4084 11.5852 23.4084 11.9034V12.3636C23.4084 12.6818 23.343 12.9744 23.2124 13.2415C23.0845 13.5057 22.8942 13.7187 22.6413 13.8807C22.3913 14.0398 22.0845 14.1193 21.7209 14.1193C21.3516 14.1193 21.0405 14.0398 20.7876 13.8807C20.5348 13.7187 20.343 13.5057 20.2124 13.2415C20.0817 12.9744 20.0163 12.6818 20.0163 12.3636ZM20.8857 11.9034V12.3636C20.8857 12.6278 20.9482 12.8651 21.0732 13.0753C21.1982 13.2827 21.4141 13.3864 21.7209 13.3864C22.0192 13.3864 22.2294 13.2827 22.3516 13.0753C22.4766 12.8651 22.5391 12.6278 22.5391 12.3636V11.9034C22.5391 11.6392 22.4794 11.4034 22.3601 11.196C22.2408 10.9858 22.0277 10.8807 21.7209 10.8807C21.4226 10.8807 21.2081 10.9858 21.0774 11.196C20.9496 11.4034 20.8857 11.6392 20.8857 11.9034ZM15.6697 7.36932V6.90909C15.6697 6.59091 15.7351 6.29972 15.8658 6.03551C15.9993 5.76847 16.1925 5.5554 16.4453 5.39631C16.701 5.23437 17.0107 5.15341 17.3743 5.15341C17.7436 5.15341 18.0533 5.23437 18.3033 5.39631C18.5533 5.5554 18.7422 5.76847 18.87 6.03551C18.9979 6.29972 19.0618 6.59091 19.0618 6.90909V7.36932C19.0618 7.6875 18.9964 7.98011 18.8658 8.24716C18.7379 8.51136 18.5476 8.72443 18.2947 8.88636C18.0447 9.04545 17.7379 9.125 17.3743 9.125C17.005 9.125 16.6939 9.04545 16.4411 8.88636C16.1882 8.72443 15.9964 8.51136 15.8658 8.24716C15.7351 7.98011 15.6697 7.6875 15.6697 7.36932ZM16.5391 6.90909V7.36932C16.5391 7.63352 16.6016 7.87074 16.7266 8.08097C16.8516 8.28835 17.0675 8.39205 17.3743 8.39205C17.6726 8.39205 17.8828 8.28835 18.005 8.08097C18.13 7.87074 18.1925 7.63352 18.1925 7.36932V6.90909C18.1925 6.64489 18.1328 6.40909 18.0135 6.2017C17.8942 5.99148 17.6811 5.88636 17.3743 5.88636C17.076 5.88636 16.8615 5.99148 16.7308 6.2017C16.603 6.40909 16.5391 6.64489 16.5391 6.90909ZM15.9936 14L21.9936 5.27273H22.9652L16.9652 14H15.9936Z" fill="#6C8180"/>
<path d="M8.06268 32.3526C8.42063 32.3555 8.77859 32.4237 9.13654 32.5572C9.4945 32.6907 9.8212 32.9123 10.1167 33.2219C10.4121 33.5288 10.6493 33.9478 10.8283 34.479C11.0073 35.0103 11.0968 35.6765 11.0968 36.4776C11.0968 37.2532 11.0229 37.9421 10.8752 38.5444C10.7303 39.1438 10.5201 39.6495 10.2445 40.0614C9.97177 40.4734 9.63938 40.7859 9.24734 40.9989C8.85813 41.212 8.41779 41.3185 7.92631 41.3185C7.43768 41.3185 7.0016 41.2219 6.61808 41.0288C6.23739 40.8327 5.92489 40.5614 5.68058 40.2148C5.4391 39.8654 5.28427 39.4606 5.21609 39.0004H6.25586C6.34961 39.4009 6.53569 39.7319 6.8141 39.9933C7.09535 40.2518 7.46609 40.381 7.92631 40.381C8.59961 40.381 9.13086 40.087 9.52006 39.4989C9.91211 38.9109 10.1081 38.0799 10.1081 37.006H10.04C9.88086 37.2447 9.69194 37.4506 9.47319 37.6239C9.25444 37.7972 9.01154 37.9308 8.7445 38.0245C8.47745 38.1183 8.19336 38.1651 7.89222 38.1651C7.39222 38.1651 6.93342 38.0415 6.5158 37.7944C6.10103 37.5444 5.76864 37.2021 5.51864 36.7674C5.27148 36.3299 5.1479 35.8299 5.1479 35.2674C5.1479 34.7333 5.26722 34.2447 5.50586 33.8015C5.74734 33.3555 6.0854 33.0004 6.52006 32.7362C6.95756 32.4719 7.47177 32.3441 8.06268 32.3526ZM8.06268 33.2901C7.70472 33.2901 7.38228 33.3796 7.09535 33.5586C6.81126 33.7347 6.5854 33.9734 6.41779 34.2745C6.25302 34.5728 6.17063 34.9038 6.17063 35.2674C6.17063 35.631 6.25018 35.962 6.40927 36.2603C6.5712 36.5558 6.79137 36.7915 7.06978 36.9677C7.35103 37.141 7.67063 37.2276 8.02859 37.2276C8.29847 37.2276 8.54989 37.1751 8.78285 37.07C9.0158 36.962 9.21893 36.8157 9.39222 36.631C9.56836 36.4435 9.70614 36.2319 9.80558 35.9961C9.90501 35.7575 9.95472 35.5089 9.95472 35.2504C9.95472 34.9094 9.87234 34.5898 9.70756 34.2915C9.54563 33.9933 9.3212 33.7518 9.03427 33.5671C8.75018 33.3825 8.42631 33.2901 8.06268 33.2901ZM17.2214 39.5629V39.1026C17.2214 38.7844 17.2868 38.4933 17.4174 38.229C17.551 37.962 17.7441 37.7489 17.997 37.5898C18.2527 37.4279 18.5623 37.3469 18.926 37.3469C19.2953 37.3469 19.6049 37.4279 19.8549 37.5898C20.1049 37.7489 20.2939 37.962 20.4217 38.229C20.5495 38.4933 20.6135 38.7844 20.6135 39.1026V39.5629C20.6135 39.881 20.5481 40.1737 20.4174 40.4407C20.2896 40.7049 20.0993 40.918 19.8464 41.0799C19.5964 41.239 19.2896 41.3185 18.926 41.3185C18.5566 41.3185 18.2456 41.239 17.9927 41.0799C17.7399 40.918 17.5481 40.7049 17.4174 40.4407C17.2868 40.1737 17.2214 39.881 17.2214 39.5629ZM18.0907 39.1026V39.5629C18.0907 39.8271 18.1532 40.0643 18.2782 40.2745C18.4032 40.4819 18.6191 40.5856 18.926 40.5856C19.2243 40.5856 19.4345 40.4819 19.5566 40.2745C19.6816 40.0643 19.7441 39.8271 19.7441 39.5629V39.1026C19.7441 38.8384 19.6845 38.6026 19.5652 38.3952C19.4458 38.185 19.2328 38.0799 18.926 38.0799C18.6277 38.0799 18.4132 38.185 18.2825 38.3952C18.1547 38.6026 18.0907 38.8384 18.0907 39.1026ZM12.8748 34.5685V34.1083C12.8748 33.7901 12.9402 33.4989 13.0708 33.2347C13.2044 32.9677 13.3975 32.7546 13.6504 32.5955C13.9061 32.4336 14.2157 32.3526 14.5794 32.3526C14.9487 32.3526 15.2583 32.4336 15.5083 32.5955C15.7583 32.7546 15.9473 32.9677 16.0751 33.2347C16.2029 33.4989 16.2669 33.7901 16.2669 34.1083V34.5685C16.2669 34.8867 16.2015 35.1793 16.0708 35.4464C15.943 35.7106 15.7527 35.9237 15.4998 36.0856C15.2498 36.2447 14.943 36.3242 14.5794 36.3242C14.21 36.3242 13.899 36.2447 13.6461 36.0856C13.3933 35.9237 13.2015 35.7106 13.0708 35.4464C12.9402 35.1793 12.8748 34.8867 12.8748 34.5685ZM13.7441 34.1083V34.5685C13.7441 34.8327 13.8066 35.07 13.9316 35.2802C14.0566 35.4876 14.2725 35.5913 14.5794 35.5913C14.8777 35.5913 15.0879 35.4876 15.21 35.2802C15.335 35.07 15.3975 34.8327 15.3975 34.5685V34.1083C15.3975 33.8441 15.3379 33.6083 15.2186 33.4009C15.0993 33.1907 14.8862 33.0856 14.5794 33.0856C14.2811 33.0856 14.0666 33.1907 13.9359 33.4009C13.8081 33.6083 13.7441 33.8441 13.7441 34.1083ZM13.1987 41.1992L19.1987 32.4719H20.1703L14.1703 41.1992H13.1987Z" fill="#6C8180"/>
<path d="M8.1266 68.5178C7.54137 68.5178 7.02433 68.4141 6.57546 68.2067C6.12944 67.9964 5.78143 67.7081 5.53143 67.3416C5.28143 66.9723 5.15785 66.5518 5.16069 66.0803C5.15785 65.7109 5.23029 65.37 5.37802 65.0575C5.52575 64.7422 5.72745 64.4794 5.98313 64.2692C6.24165 64.0561 6.53001 63.9212 6.84819 63.8643V63.8132C6.43058 63.7053 6.09819 63.4709 5.85103 63.1101C5.60387 62.7464 5.48171 62.3331 5.48455 61.87C5.48171 61.4268 5.59393 61.0305 5.8212 60.6811C6.04847 60.3317 6.36097 60.0561 6.7587 59.8544C7.15927 59.6527 7.61523 59.5518 8.1266 59.5518C8.63228 59.5518 9.08398 59.6527 9.48171 59.8544C9.87944 60.0561 10.1919 60.3317 10.4192 60.6811C10.6493 61.0305 10.7658 61.4268 10.7686 61.87C10.7658 62.3331 10.6394 62.7464 10.3894 63.1101C10.1422 63.4709 9.8141 63.7053 9.40501 63.8132V63.8643C9.72035 63.9212 10.0044 64.0561 10.2573 64.2692C10.5101 64.4794 10.7118 64.7422 10.8624 65.0575C11.013 65.37 11.0897 65.7109 11.0925 66.0803C11.0897 66.5518 10.9618 66.9723 10.709 67.3416C10.459 67.7081 10.111 67.9964 9.66495 68.2067C9.22177 68.4141 8.70898 68.5178 8.1266 68.5178ZM8.1266 67.5803C8.52148 67.5803 8.86239 67.5163 9.14933 67.3885C9.43626 67.2607 9.65785 67.0803 9.8141 66.8473C9.97035 66.6143 10.0499 66.3416 10.0527 66.0291C10.0499 65.6996 9.96467 65.4084 9.79705 65.1555C9.62944 64.9027 9.40075 64.7038 9.11097 64.5589C8.82404 64.4141 8.49592 64.3416 8.1266 64.3416C7.75444 64.3416 7.42205 64.4141 7.12944 64.5589C6.83967 64.7038 6.61097 64.9027 6.44336 65.1555C6.27859 65.4084 6.19762 65.6996 6.20046 66.0291C6.19762 66.3416 6.2729 66.6143 6.42631 66.8473C6.58256 67.0803 6.80558 67.2607 7.09535 67.3885C7.38512 67.5163 7.72887 67.5803 8.1266 67.5803ZM8.1266 63.4382C8.4391 63.4382 8.71609 63.3757 8.95756 63.2507C9.20188 63.1257 9.39364 62.951 9.53285 62.7266C9.67205 62.5021 9.74308 62.2393 9.74592 61.9382C9.74308 61.6428 9.67347 61.3857 9.53711 61.1669C9.40075 60.9453 9.21183 60.7749 8.97035 60.6555C8.72887 60.5334 8.44762 60.4723 8.1266 60.4723C7.79989 60.4723 7.51438 60.5334 7.27006 60.6555C7.02575 60.7749 6.83683 60.9453 6.7033 61.1669C6.56978 61.3857 6.50444 61.6428 6.50728 61.9382C6.50444 62.2393 6.5712 62.5021 6.70756 62.7266C6.84677 62.951 7.03853 63.1257 7.28285 63.2507C7.52717 63.3757 7.80842 63.4382 8.1266 63.4382ZM17.1745 66.7621V66.3018C17.1745 65.9837 17.2399 65.6925 17.3706 65.4283C17.5041 65.1612 17.6973 64.9482 17.9501 64.7891C18.2058 64.6271 18.5154 64.5462 18.8791 64.5462C19.2484 64.5462 19.5581 64.6271 19.8081 64.7891C20.0581 64.9482 20.247 65.1612 20.3748 65.4283C20.5027 65.6925 20.5666 65.9837 20.5666 66.3018V66.7621C20.5666 67.0803 20.5012 67.3729 20.3706 67.6399C20.2427 67.9041 20.0524 68.1172 19.7995 68.2791C19.5495 68.4382 19.2427 68.5178 18.8791 68.5178C18.5098 68.5178 18.1987 68.4382 17.9458 68.2791C17.693 68.1172 17.5012 67.9041 17.3706 67.6399C17.2399 67.3729 17.1745 67.0803 17.1745 66.7621ZM18.0439 66.3018V66.7621C18.0439 67.0263 18.1064 67.2635 18.2314 67.4737C18.3564 67.6811 18.5723 67.7848 18.8791 67.7848C19.1774 67.7848 19.3876 67.6811 19.5098 67.4737C19.6348 67.2635 19.6973 67.0263 19.6973 66.7621V66.3018C19.6973 66.0376 19.6376 65.8018 19.5183 65.5945C19.399 65.3842 19.1859 65.2791 18.8791 65.2791C18.5808 65.2791 18.3663 65.3842 18.2356 65.5945C18.1078 65.8018 18.0439 66.0376 18.0439 66.3018ZM12.8279 61.7678V61.3075C12.8279 60.9893 12.8933 60.6982 13.024 60.4339C13.1575 60.1669 13.3507 59.9538 13.6035 59.7947C13.8592 59.6328 14.1689 59.5518 14.5325 59.5518C14.9018 59.5518 15.2115 59.6328 15.4615 59.7947C15.7115 59.9538 15.9004 60.1669 16.0282 60.4339C16.1561 60.6982 16.22 60.9893 16.22 61.3075V61.7678C16.22 62.0859 16.1547 62.3786 16.024 62.6456C15.8961 62.9098 15.7058 63.1229 15.4529 63.2848C15.2029 63.4439 14.8961 63.5234 14.5325 63.5234C14.1632 63.5234 13.8521 63.4439 13.5993 63.2848C13.3464 63.1229 13.1547 62.9098 13.024 62.6456C12.8933 62.3786 12.8279 62.0859 12.8279 61.7678ZM13.6973 61.3075V61.7678C13.6973 62.032 13.7598 62.2692 13.8848 62.4794C14.0098 62.6868 14.2257 62.7905 14.5325 62.7905C14.8308 62.7905 15.041 62.6868 15.1632 62.4794C15.2882 62.2692 15.3507 62.032 15.3507 61.7678V61.3075C15.3507 61.0433 15.291 60.8075 15.1717 60.6001C15.0524 60.3899 14.8393 60.2848 14.5325 60.2848C14.2342 60.2848 14.0197 60.3899 13.889 60.6001C13.7612 60.8075 13.6973 61.0433 13.6973 61.3075ZM13.1518 68.3984L19.1518 59.6712H20.1234L14.1234 68.3984H13.1518Z" fill="#6C8180"/>
<path d="M5.8734 95.6016L9.77681 87.88V87.8118H5.27681V86.8743H10.8677V87.8629L6.98136 95.6016H5.8734ZM16.905 93.9652V93.505C16.905 93.1868 16.9703 92.8956 17.101 92.6314C17.2346 92.3643 17.4277 92.1513 17.6806 91.9922C17.9363 91.8303 18.2459 91.7493 18.6096 91.7493C18.9789 91.7493 19.2885 91.8303 19.5385 91.9922C19.7885 92.1513 19.9775 92.3643 20.1053 92.6314C20.2331 92.8956 20.2971 93.1868 20.2971 93.505V93.9652C20.2971 94.2834 20.2317 94.576 20.101 94.843C19.9732 95.1072 19.7828 95.3203 19.53 95.4822C19.28 95.6413 18.9732 95.7209 18.6096 95.7209C18.2402 95.7209 17.9292 95.6413 17.6763 95.4822C17.4235 95.3203 17.2317 95.1072 17.101 94.843C16.9703 94.576 16.905 94.2834 16.905 93.9652ZM17.7743 93.505V93.9652C17.7743 94.2294 17.8368 94.4666 17.9618 94.6768C18.0868 94.8842 18.3027 94.9879 18.6096 94.9879C18.9078 94.9879 19.1181 94.8842 19.2402 94.6768C19.3652 94.4666 19.4277 94.2294 19.4277 93.9652V93.505C19.4277 93.2408 19.3681 93.005 19.2488 92.7976C19.1294 92.5874 18.9164 92.4822 18.6096 92.4822C18.3113 92.4822 18.0968 92.5874 17.9661 92.7976C17.8382 93.005 17.7743 93.2408 17.7743 93.505ZM12.5584 88.9709V88.5107C12.5584 88.1925 12.6238 87.9013 12.7544 87.6371C12.888 87.37 13.0811 87.157 13.334 86.9979C13.5897 86.8359 13.8993 86.755 14.263 86.755C14.6323 86.755 14.9419 86.8359 15.1919 86.9979C15.4419 87.157 15.6309 87.37 15.7587 87.6371C15.8865 87.9013 15.9505 88.1925 15.9505 88.5107V88.9709C15.9505 89.2891 15.8851 89.5817 15.7544 89.8487C15.6266 90.1129 15.4363 90.326 15.1834 90.4879C14.9334 90.647 14.6266 90.7266 14.263 90.7266C13.8936 90.7266 13.5826 90.647 13.3297 90.4879C13.0769 90.326 12.8851 90.1129 12.7544 89.8487C12.6238 89.5817 12.5584 89.2891 12.5584 88.9709ZM13.4277 88.5107V88.9709C13.4277 89.2351 13.4902 89.4723 13.6152 89.6825C13.7402 89.8899 13.9561 89.9936 14.263 89.9936C14.5613 89.9936 14.7715 89.8899 14.8936 89.6825C15.0186 89.4723 15.0811 89.2351 15.0811 88.9709V88.5107C15.0811 88.2464 15.0215 88.0107 14.9022 87.8033C14.7828 87.593 14.5698 87.4879 14.263 87.4879C13.9647 87.4879 13.7502 87.593 13.6195 87.8033C13.4917 88.0107 13.4277 88.2464 13.4277 88.5107ZM12.8823 95.6016L18.8823 86.8743H19.8539L13.8539 95.6016H12.8823Z" fill="#6C8180"/>
<path d="M8.182 122.92C7.82404 122.914 7.46609 122.846 7.10813 122.716C6.75018 122.585 6.42347 122.365 6.12802 122.055C5.83256 121.743 5.59535 121.321 5.41637 120.789C5.23739 120.255 5.1479 119.585 5.1479 118.778C5.1479 118.005 5.22035 117.321 5.36523 116.724C5.51012 116.125 5.72035 115.62 5.99592 115.211C6.27148 114.799 6.60387 114.487 6.99308 114.274C7.38512 114.061 7.82688 113.954 8.31836 113.954C8.807 113.954 9.24165 114.052 9.62234 114.248C10.0059 114.441 10.3184 114.711 10.5598 115.058C10.8013 115.404 10.9576 115.804 11.0286 116.255H9.98881C9.89222 115.863 9.70472 115.538 9.42631 115.279C9.1479 115.021 8.77859 114.892 8.31836 114.892C7.64222 114.892 7.10955 115.186 6.72035 115.774C6.33398 116.362 6.13938 117.187 6.13654 118.25H6.20472C6.36381 118.008 6.55273 117.802 6.77148 117.632C6.99308 117.458 7.23739 117.325 7.50444 117.231C7.77148 117.137 8.05415 117.091 8.35245 117.091C8.85245 117.091 9.30984 117.216 9.72461 117.466C10.1394 117.713 10.4718 118.055 10.7218 118.493C10.9718 118.927 11.0968 119.426 11.0968 119.988C11.0968 120.528 10.976 121.022 10.7346 121.471C10.4931 121.917 10.1536 122.272 9.71609 122.537C9.28143 122.798 8.77006 122.926 8.182 122.92ZM8.182 121.983C8.53995 121.983 8.86097 121.893 9.14506 121.714C9.432 121.535 9.65785 121.295 9.82262 120.994C9.99023 120.693 10.074 120.358 10.074 119.988C10.074 119.627 9.99308 119.299 9.83114 119.004C9.67205 118.706 9.45188 118.468 9.17063 118.292C8.89222 118.116 8.57404 118.028 8.21609 118.028C7.9462 118.028 7.69478 118.082 7.46183 118.19C7.22887 118.295 7.02433 118.44 6.84819 118.625C6.67489 118.809 6.53853 119.021 6.4391 119.26C6.33967 119.495 6.28995 119.744 6.28995 120.005C6.28995 120.352 6.37092 120.676 6.53285 120.977C6.69762 121.278 6.92205 121.521 7.20614 121.706C7.49308 121.89 7.81836 121.983 8.182 121.983ZM17.2214 121.164V120.704C17.2214 120.386 17.2868 120.095 17.4174 119.831C17.551 119.564 17.7441 119.35 17.997 119.191C18.2527 119.029 18.5623 118.949 18.926 118.949C19.2953 118.949 19.6049 119.029 19.8549 119.191C20.1049 119.35 20.2939 119.564 20.4217 119.831C20.5495 120.095 20.6135 120.386 20.6135 120.704V121.164C20.6135 121.483 20.5481 121.775 20.4174 122.042C20.2896 122.306 20.0993 122.52 19.8464 122.681C19.5964 122.841 19.2896 122.92 18.926 122.92C18.5566 122.92 18.2456 122.841 17.9927 122.681C17.7399 122.52 17.5481 122.306 17.4174 122.042C17.2868 121.775 17.2214 121.483 17.2214 121.164ZM18.0907 120.704V121.164C18.0907 121.429 18.1532 121.666 18.2782 121.876C18.4032 122.083 18.6191 122.187 18.926 122.187C19.2243 122.187 19.4345 122.083 19.5566 121.876C19.6816 121.666 19.7441 121.429 19.7441 121.164V120.704C19.7441 120.44 19.6845 120.204 19.5652 119.997C19.4458 119.787 19.2328 119.681 18.926 119.681C18.6277 119.681 18.4132 119.787 18.2825 119.997C18.1547 120.204 18.0907 120.44 18.0907 120.704ZM12.8748 116.17V115.71C12.8748 115.392 12.9402 115.1 13.0708 114.836C13.2044 114.569 13.3975 114.356 13.6504 114.197C13.9061 114.035 14.2157 113.954 14.5794 113.954C14.9487 113.954 15.2583 114.035 15.5083 114.197C15.7583 114.356 15.9473 114.569 16.0751 114.836C16.2029 115.1 16.2669 115.392 16.2669 115.71V116.17C16.2669 116.488 16.2015 116.781 16.0708 117.048C15.943 117.312 15.7527 117.525 15.4998 117.687C15.2498 117.846 14.943 117.926 14.5794 117.926C14.21 117.926 13.899 117.846 13.6461 117.687C13.3933 117.525 13.2015 117.312 13.0708 117.048C12.9402 116.781 12.8748 116.488 12.8748 116.17ZM13.7441 115.71V116.17C13.7441 116.434 13.8066 116.672 13.9316 116.882C14.0566 117.089 14.2725 117.193 14.5794 117.193C14.8777 117.193 15.0879 117.089 15.21 116.882C15.335 116.672 15.3975 116.434 15.3975 116.17V115.71C15.3975 115.446 15.3379 115.21 15.2186 115.002C15.0993 114.792 14.8862 114.687 14.5794 114.687C14.2811 114.687 14.0666 114.792 13.9359 115.002C13.8081 115.21 13.7441 115.446 13.7441 115.71ZM13.1987 122.801L19.1987 114.074H20.1703L14.1703 122.801H13.1987Z" fill="#6C8180"/>
<path d="M8.10529 150.119C7.60529 150.119 7.15501 150.02 6.75444 149.821C6.35387 149.622 6.03285 149.349 5.79137 149.003C5.54989 148.656 5.41779 148.261 5.39506 147.818H6.41779C6.45756 148.213 6.63654 148.54 6.95472 148.798C7.27575 149.054 7.65927 149.182 8.10529 149.182C8.46325 149.182 8.78143 149.098 9.05984 148.93C9.34109 148.763 9.56126 148.533 9.72035 148.24C9.88228 147.945 9.96325 147.611 9.96325 147.239C9.96325 146.858 9.87944 146.518 9.71183 146.22C9.54705 145.919 9.31978 145.682 9.03001 145.509C8.74023 145.335 8.40927 145.247 8.03711 145.244C7.77006 145.241 7.49592 145.283 7.21467 145.368C6.93342 145.45 6.70188 145.557 6.52006 145.688L5.53143 145.568L6.05984 141.273H10.5939V142.21H6.9462L6.63938 144.784H6.69052C6.8695 144.642 7.09393 144.524 7.36381 144.43C7.6337 144.337 7.91495 144.29 8.20756 144.29C8.74165 144.29 9.21751 144.418 9.63512 144.673C10.0556 144.926 10.3851 145.273 10.6238 145.713C10.8652 146.153 10.986 146.656 10.986 147.222C10.986 147.778 10.861 148.276 10.611 148.713C10.3638 149.148 10.0229 149.491 9.58825 149.744C9.15359 149.994 8.65927 150.119 8.10529 150.119ZM17.1277 148.364V147.903C17.1277 147.585 17.193 147.294 17.3237 147.03C17.4572 146.763 17.6504 146.55 17.9032 146.391C18.1589 146.229 18.4686 146.148 18.8322 146.148C19.2015 146.148 19.5112 146.229 19.7612 146.391C20.0112 146.55 20.2001 146.763 20.3279 147.03C20.4558 147.294 20.5197 147.585 20.5197 147.903V148.364C20.5197 148.682 20.4544 148.974 20.3237 149.241C20.1958 149.506 20.0055 149.719 19.7527 149.881C19.5027 150.04 19.1958 150.119 18.8322 150.119C18.4629 150.119 18.1518 150.04 17.899 149.881C17.6461 149.719 17.4544 149.506 17.3237 149.241C17.193 148.974 17.1277 148.682 17.1277 148.364ZM17.997 147.903V148.364C17.997 148.628 18.0595 148.865 18.1845 149.075C18.3095 149.283 18.5254 149.386 18.8322 149.386C19.1305 149.386 19.3407 149.283 19.4629 149.075C19.5879 148.865 19.6504 148.628 19.6504 148.364V147.903C19.6504 147.639 19.5907 147.403 19.4714 147.196C19.3521 146.986 19.139 146.881 18.8322 146.881C18.5339 146.881 18.3194 146.986 18.1887 147.196C18.0609 147.403 17.997 147.639 17.997 147.903ZM12.7811 143.369V142.909C12.7811 142.591 12.8464 142.3 12.9771 142.036C13.1106 141.768 13.3038 141.555 13.5566 141.396C13.8123 141.234 14.122 141.153 14.4856 141.153C14.8549 141.153 15.1646 141.234 15.4146 141.396C15.6646 141.555 15.8535 141.768 15.9814 142.036C16.1092 142.3 16.1731 142.591 16.1731 142.909V143.369C16.1731 143.687 16.1078 143.98 15.9771 144.247C15.8493 144.511 15.6589 144.724 15.4061 144.886C15.1561 145.045 14.8493 145.125 14.4856 145.125C14.1163 145.125 13.8052 145.045 13.5524 144.886C13.2995 144.724 13.1078 144.511 12.9771 144.247C12.8464 143.98 12.7811 143.687 12.7811 143.369ZM13.6504 142.909V143.369C13.6504 143.634 13.7129 143.871 13.8379 144.081C13.9629 144.288 14.1788 144.392 14.4856 144.392C14.7839 144.392 14.9941 144.288 15.1163 144.081C15.2413 143.871 15.3038 143.634 15.3038 143.369V142.909C15.3038 142.645 15.2441 142.409 15.1248 142.202C15.0055 141.991 14.7924 141.886 14.4856 141.886C14.1873 141.886 13.9728 141.991 13.8422 142.202C13.7143 142.409 13.6504 142.645 13.6504 142.909ZM13.1049 150L19.1049 141.273H20.0765L14.0765 150H13.1049Z" fill="#6C8180"/>
<path d="M4.97425 175.409V174.54L8.80948 168.472H9.44016V169.819H9.01403L6.1163 174.404V174.472H11.2811V175.409H4.97425ZM9.08221 177.199V175.145V174.74V168.472H10.0879V177.199H9.08221ZM17.3269 175.563V175.103C17.3269 174.784 17.3922 174.493 17.5229 174.229C17.6564 173.962 17.8496 173.749 18.1025 173.59C18.3581 173.428 18.6678 173.347 19.0314 173.347C19.4007 173.347 19.7104 173.428 19.9604 173.59C20.2104 173.749 20.3993 173.962 20.5272 174.229C20.655 174.493 20.7189 174.784 20.7189 175.103V175.563C20.7189 175.881 20.6536 176.174 20.5229 176.441C20.3951 176.705 20.2047 176.918 19.9519 177.08C19.7019 177.239 19.3951 177.319 19.0314 177.319C18.6621 177.319 18.351 177.239 18.0982 177.08C17.8453 176.918 17.6536 176.705 17.5229 176.441C17.3922 176.174 17.3269 175.881 17.3269 175.563ZM18.1962 175.103V175.563C18.1962 175.827 18.2587 176.064 18.3837 176.275C18.5087 176.482 18.7246 176.586 19.0314 176.586C19.3297 176.586 19.54 176.482 19.6621 176.275C19.7871 176.064 19.8496 175.827 19.8496 175.563V175.103C19.8496 174.838 19.79 174.603 19.6706 174.395C19.5513 174.185 19.3382 174.08 19.0314 174.08C18.7331 174.08 18.5186 174.185 18.388 174.395C18.2601 174.603 18.1962 174.838 18.1962 175.103ZM12.9803 170.569V170.108C12.9803 169.79 13.0456 169.499 13.1763 169.235C13.3098 168.968 13.503 168.755 13.7559 168.596C14.0115 168.434 14.3212 168.353 14.6848 168.353C15.0542 168.353 15.3638 168.434 15.6138 168.596C15.8638 168.755 16.0527 168.968 16.1806 169.235C16.3084 169.499 16.3723 169.79 16.3723 170.108V170.569C16.3723 170.887 16.307 171.179 16.1763 171.446C16.0485 171.711 15.8581 171.924 15.6053 172.086C15.3553 172.245 15.0485 172.324 14.6848 172.324C14.3155 172.324 14.0044 172.245 13.7516 172.086C13.4988 171.924 13.307 171.711 13.1763 171.446C13.0456 171.179 12.9803 170.887 12.9803 170.569ZM13.8496 170.108V170.569C13.8496 170.833 13.9121 171.07 14.0371 171.28C14.1621 171.488 14.378 171.591 14.6848 171.591C14.9831 171.591 15.1934 171.488 15.3155 171.28C15.4405 171.07 15.503 170.833 15.503 170.569V170.108C15.503 169.844 15.4434 169.608 15.324 169.401C15.2047 169.191 14.9917 169.086 14.6848 169.086C14.3865 169.086 14.1721 169.191 14.0414 169.401C13.9135 169.608 13.8496 169.844 13.8496 170.108ZM13.3042 177.199L19.3042 168.472H20.2757L14.2757 177.199H13.3042Z" fill="#6C8180"/>
<path d="M8.15696 204.518C7.59446 204.518 7.09304 204.421 6.6527 204.228C6.2152 204.035 5.86719 203.766 5.60866 203.423C5.35298 203.076 5.21378 202.674 5.19105 202.217H6.26491C6.28764 202.498 6.38423 202.741 6.55469 202.945C6.72514 203.147 6.94815 203.303 7.22372 203.414C7.49929 203.525 7.80469 203.58 8.13991 203.58C8.51491 203.58 8.8473 203.515 9.13707 203.384C9.42685 203.254 9.65412 203.072 9.81889 202.839C9.98366 202.606 10.0661 202.336 10.0661 202.029C10.0661 201.708 9.98651 201.425 9.82741 201.181C9.66832 200.934 9.43537 200.741 9.12855 200.602C8.82173 200.462 8.44673 200.393 8.00355 200.393H7.30469V199.455H8.00355C8.35014 199.455 8.65412 199.393 8.91548 199.268C9.17969 199.143 9.38565 198.967 9.53338 198.739C9.68395 198.512 9.75923 198.245 9.75923 197.938C9.75923 197.643 9.69389 197.386 9.56321 197.167C9.43253 196.948 9.24787 196.778 9.00923 196.656C8.77344 196.533 8.49503 196.472 8.17401 196.472C7.87287 196.472 7.58878 196.528 7.32173 196.638C7.05753 196.746 6.84162 196.904 6.67401 197.112C6.50639 197.316 6.41548 197.563 6.40128 197.853H5.37855C5.3956 197.396 5.53338 196.995 5.7919 196.651C6.05043 196.305 6.38849 196.035 6.80611 195.842C7.22656 195.648 7.68821 195.552 8.19105 195.552C8.73082 195.552 9.19389 195.661 9.58026 195.88C9.96662 196.096 10.2635 196.381 10.4709 196.737C10.6783 197.092 10.782 197.475 10.782 197.887C10.782 198.379 10.6527 198.798 10.3942 199.144C10.1385 199.491 9.79048 199.731 9.35014 199.864V199.933C9.90128 200.023 10.3317 200.258 10.6413 200.636C10.951 201.011 11.1058 201.475 11.1058 202.029C11.1058 202.504 10.9766 202.93 10.718 203.308C10.4624 203.683 10.1129 203.978 9.66974 204.194C9.22656 204.41 8.7223 204.518 8.15696 204.518ZM17.2976 202.762V202.302C17.2976 201.984 17.3629 201.692 17.4936 201.428C17.6271 201.161 17.8203 200.948 18.0732 200.789C18.3288 200.627 18.6385 200.546 19.0021 200.546C19.3714 200.546 19.6811 200.627 19.9311 200.789C20.1811 200.948 20.37 201.161 20.4979 201.428C20.6257 201.692 20.6896 201.984 20.6896 202.302V202.762C20.6896 203.08 20.6243 203.373 20.4936 203.64C20.3658 203.904 20.1754 204.117 19.9226 204.279C19.6726 204.438 19.3658 204.518 19.0021 204.518C18.6328 204.518 18.3217 204.438 18.0689 204.279C17.8161 204.117 17.6243 203.904 17.4936 203.64C17.3629 203.373 17.2976 203.08 17.2976 202.762ZM18.1669 202.302V202.762C18.1669 203.026 18.2294 203.263 18.3544 203.474C18.4794 203.681 18.6953 203.785 19.0021 203.785C19.3004 203.785 19.5107 203.681 19.6328 203.474C19.7578 203.263 19.8203 203.026 19.8203 202.762V202.302C19.8203 202.038 19.7607 201.802 19.6413 201.594C19.522 201.384 19.3089 201.279 19.0021 201.279C18.7038 201.279 18.4893 201.384 18.3587 201.594C18.2308 201.802 18.1669 202.038 18.1669 202.302ZM12.951 197.768V197.308C12.951 196.989 13.0163 196.698 13.147 196.434C13.2805 196.167 13.4737 195.954 13.7266 195.795C13.9822 195.633 14.2919 195.552 14.6555 195.552C15.0249 195.552 15.3345 195.633 15.5845 195.795C15.8345 195.954 16.0234 196.167 16.1513 196.434C16.2791 196.698 16.343 196.989 16.343 197.308V197.768C16.343 198.086 16.2777 198.379 16.147 198.646C16.0192 198.91 15.8288 199.123 15.576 199.285C15.326 199.444 15.0192 199.523 14.6555 199.523C14.2862 199.523 13.9751 199.444 13.7223 199.285C13.4695 199.123 13.2777 198.91 13.147 198.646C13.0163 198.379 12.951 198.086 12.951 197.768ZM13.8203 197.308V197.768C13.8203 198.032 13.8828 198.269 14.0078 198.479C14.1328 198.687 14.3487 198.79 14.6555 198.79C14.9538 198.79 15.1641 198.687 15.2862 198.479C15.4112 198.269 15.4737 198.032 15.4737 197.768V197.308C15.4737 197.043 15.4141 196.808 15.2947 196.6C15.1754 196.39 14.9624 196.285 14.6555 196.285C14.3572 196.285 14.1428 196.39 14.0121 196.6C13.8842 196.808 13.8203 197.043 13.8203 197.308ZM13.2749 204.398L19.2749 195.671H20.2464L14.2464 204.398H13.2749Z" fill="#6C8180"/>
<path d="M5.3956 231.602V230.835L8.27628 227.681C8.61435 227.312 8.89276 226.991 9.11151 226.718C9.33026 226.442 9.49219 226.184 9.5973 225.942C9.70526 225.698 9.75923 225.442 9.75923 225.175C9.75923 224.869 9.68537 224.603 9.53764 224.379C9.39276 224.154 9.19389 223.981 8.94105 223.859C8.68821 223.737 8.40412 223.675 8.08878 223.675C7.75355 223.675 7.46094 223.745 7.21094 223.884C6.96378 224.021 6.77202 224.212 6.63565 224.46C6.50213 224.707 6.43537 224.996 6.43537 225.329H5.42969C5.42969 224.817 5.54759 224.369 5.78338 223.982C6.01918 223.596 6.3402 223.295 6.74645 223.079C7.15554 222.863 7.61435 222.755 8.12287 222.755C8.63423 222.755 9.08736 222.863 9.48224 223.079C9.87713 223.295 10.1868 223.586 10.4112 223.952C10.6357 224.319 10.7479 224.727 10.7479 225.175C10.7479 225.496 10.6896 225.81 10.5732 226.117C10.4595 226.421 10.2607 226.761 9.97656 227.136C9.69531 227.508 9.30469 227.962 8.80469 228.499L6.84446 230.596V230.664H10.9013V231.602H5.3956ZM17.1101 229.965V229.505C17.1101 229.187 17.1754 228.896 17.3061 228.631C17.4396 228.364 17.6328 228.151 17.8857 227.992C18.1413 227.83 18.451 227.749 18.8146 227.749C19.1839 227.749 19.4936 227.83 19.7436 227.992C19.9936 228.151 20.1825 228.364 20.3104 228.631C20.4382 228.896 20.5021 229.187 20.5021 229.505V229.965C20.5021 230.283 20.4368 230.576 20.3061 230.843C20.1783 231.107 19.9879 231.32 19.7351 231.482C19.4851 231.641 19.1783 231.721 18.8146 231.721C18.4453 231.721 18.1342 231.641 17.8814 231.482C17.6286 231.32 17.4368 231.107 17.3061 230.843C17.1754 230.576 17.1101 230.283 17.1101 229.965ZM17.9794 229.505V229.965C17.9794 230.229 18.0419 230.467 18.1669 230.677C18.2919 230.884 18.5078 230.988 18.8146 230.988C19.1129 230.988 19.3232 230.884 19.4453 230.677C19.5703 230.467 19.6328 230.229 19.6328 229.965V229.505C19.6328 229.241 19.5732 229.005 19.4538 228.798C19.3345 228.587 19.1214 228.482 18.8146 228.482C18.5163 228.482 18.3018 228.587 18.1712 228.798C18.0433 229.005 17.9794 229.241 17.9794 229.505ZM12.7635 224.971V224.511C12.7635 224.192 12.8288 223.901 12.9595 223.637C13.093 223.37 13.2862 223.157 13.5391 222.998C13.7947 222.836 14.1044 222.755 14.468 222.755C14.8374 222.755 15.147 222.836 15.397 222.998C15.647 223.157 15.8359 223.37 15.9638 223.637C16.0916 223.901 16.1555 224.192 16.1555 224.511V224.971C16.1555 225.289 16.0902 225.582 15.9595 225.849C15.8317 226.113 15.6413 226.326 15.3885 226.488C15.1385 226.647 14.8317 226.727 14.468 226.727C14.0987 226.727 13.7876 226.647 13.5348 226.488C13.282 226.326 13.0902 226.113 12.9595 225.849C12.8288 225.582 12.7635 225.289 12.7635 224.971ZM13.6328 224.511V224.971C13.6328 225.235 13.6953 225.472 13.8203 225.683C13.9453 225.89 14.1612 225.994 14.468 225.994C14.7663 225.994 14.9766 225.89 15.0987 225.683C15.2237 225.472 15.2862 225.235 15.2862 224.971V224.511C15.2862 224.246 15.2266 224.011 15.1072 223.803C14.9879 223.593 14.7749 223.488 14.468 223.488C14.1697 223.488 13.9553 223.593 13.8246 223.803C13.6967 224.011 13.6328 224.246 13.6328 224.511ZM13.0874 231.602L19.0874 222.874H20.0589L14.0589 231.602H13.0874Z" fill="#6C8180"/>
<path d="M9.30753 250.074V258.801H8.25071V251.181H8.19957L6.06889 252.596V251.522L8.25071 250.074H9.30753ZM16.2663 257.164V256.704C16.2663 256.386 16.3317 256.095 16.4624 255.831C16.5959 255.564 16.7891 255.35 17.0419 255.191C17.2976 255.029 17.6072 254.949 17.9709 254.949C18.3402 254.949 18.6499 255.029 18.8999 255.191C19.1499 255.35 19.3388 255.564 19.4666 255.831C19.5945 256.095 19.6584 256.386 19.6584 256.704V257.164C19.6584 257.483 19.593 257.775 19.4624 258.042C19.3345 258.306 19.1442 258.52 18.8913 258.681C18.6413 258.841 18.3345 258.92 17.9709 258.92C17.6016 258.92 17.2905 258.841 17.0376 258.681C16.7848 258.52 16.593 258.306 16.4624 258.042C16.3317 257.775 16.2663 257.483 16.2663 257.164ZM17.1357 256.704V257.164C17.1357 257.429 17.1982 257.666 17.3232 257.876C17.4482 258.083 17.6641 258.187 17.9709 258.187C18.2692 258.187 18.4794 258.083 18.6016 257.876C18.7266 257.666 18.7891 257.429 18.7891 257.164V256.704C18.7891 256.44 18.7294 256.204 18.6101 255.997C18.4908 255.787 18.2777 255.681 17.9709 255.681C17.6726 255.681 17.4581 255.787 17.3274 255.997C17.1996 256.204 17.1357 256.44 17.1357 256.704ZM11.9197 252.17V251.71C11.9197 251.392 11.9851 251.1 12.1158 250.836C12.2493 250.569 12.4425 250.356 12.6953 250.197C12.951 250.035 13.2607 249.954 13.6243 249.954C13.9936 249.954 14.3033 250.035 14.5533 250.197C14.8033 250.356 14.9922 250.569 15.12 250.836C15.2479 251.1 15.3118 251.392 15.3118 251.71V252.17C15.3118 252.488 15.2464 252.781 15.1158 253.048C14.9879 253.312 14.7976 253.525 14.5447 253.687C14.2947 253.846 13.9879 253.926 13.6243 253.926C13.255 253.926 12.9439 253.846 12.6911 253.687C12.4382 253.525 12.2464 253.312 12.1158 253.048C11.9851 252.781 11.9197 252.488 11.9197 252.17ZM12.7891 251.71V252.17C12.7891 252.434 12.8516 252.672 12.9766 252.882C13.1016 253.089 13.3175 253.193 13.6243 253.193C13.9226 253.193 14.1328 253.089 14.255 252.882C14.38 252.672 14.4425 252.434 14.4425 252.17V251.71C14.4425 251.446 14.3828 251.21 14.2635 251.002C14.1442 250.792 13.9311 250.687 13.6243 250.687C13.326 250.687 13.1115 250.792 12.9808 251.002C12.853 251.21 12.7891 251.446 12.7891 251.71ZM12.2436 258.801L18.2436 250.074H19.2152L13.2152 258.801H12.2436Z" fill="#6C8180"/>
<path d="M8.125 286.119C7.48295 286.119 6.93608 285.945 6.48438 285.595C6.03267 285.243 5.6875 284.733 5.44886 284.065C5.21023 283.395 5.09091 282.585 5.09091 281.636C5.09091 280.693 5.21023 279.888 5.44886 279.22C5.69034 278.55 6.03693 278.038 6.48864 277.686C6.94318 277.331 7.48864 277.153 8.125 277.153C8.76136 277.153 9.3054 277.331 9.7571 277.686C10.2116 278.038 10.5582 278.55 10.7969 279.22C11.0384 279.888 11.1591 280.693 11.1591 281.636C11.1591 282.585 11.0398 283.395 10.8011 284.065C10.5625 284.733 10.2173 285.243 9.76562 285.595C9.31392 285.945 8.76705 286.119 8.125 286.119ZM8.125 285.182C8.76136 285.182 9.25568 284.875 9.60795 284.261C9.96023 283.648 10.1364 282.773 10.1364 281.636C10.1364 280.881 10.0554 280.237 9.89347 279.706C9.73438 279.175 9.50426 278.77 9.20312 278.491C8.90483 278.213 8.54545 278.074 8.125 278.074C7.49432 278.074 7.00142 278.385 6.64631 279.007C6.29119 279.626 6.11364 280.503 6.11364 281.636C6.11364 282.392 6.19318 283.034 6.35227 283.562C6.51136 284.091 6.74006 284.493 7.03835 284.768C7.33949 285.044 7.7017 285.182 8.125 285.182ZM17.2273 284.364V283.903C17.2273 283.585 17.2926 283.294 17.4233 283.03C17.5568 282.763 17.75 282.55 18.0028 282.391C18.2585 282.229 18.5682 282.148 18.9318 282.148C19.3011 282.148 19.6108 282.229 19.8608 282.391C20.1108 282.55 20.2997 282.763 20.4276 283.03C20.5554 283.294 20.6193 283.585 20.6193 283.903V284.364C20.6193 284.682 20.554 284.974 20.4233 285.241C20.2955 285.506 20.1051 285.719 19.8523 285.881C19.6023 286.04 19.2955 286.119 18.9318 286.119C18.5625 286.119 18.2514 286.04 17.9986 285.881C17.7457 285.719 17.554 285.506 17.4233 285.241C17.2926 284.974 17.2273 284.682 17.2273 284.364ZM18.0966 283.903V284.364C18.0966 284.628 18.1591 284.865 18.2841 285.075C18.4091 285.283 18.625 285.386 18.9318 285.386C19.2301 285.386 19.4403 285.283 19.5625 285.075C19.6875 284.865 19.75 284.628 19.75 284.364V283.903C19.75 283.639 19.6903 283.403 19.571 283.196C19.4517 282.986 19.2386 282.881 18.9318 282.881C18.6335 282.881 18.419 282.986 18.2884 283.196C18.1605 283.403 18.0966 283.639 18.0966 283.903ZM12.8807 279.369V278.909C12.8807 278.591 12.946 278.3 13.0767 278.036C13.2102 277.768 13.4034 277.555 13.6562 277.396C13.9119 277.234 14.2216 277.153 14.5852 277.153C14.9545 277.153 15.2642 277.234 15.5142 277.396C15.7642 277.555 15.9531 277.768 16.081 278.036C16.2088 278.3 16.2727 278.591 16.2727 278.909V279.369C16.2727 279.687 16.2074 279.98 16.0767 280.247C15.9489 280.511 15.7585 280.724 15.5057 280.886C15.2557 281.045 14.9489 281.125 14.5852 281.125C14.2159 281.125 13.9048 281.045 13.652 280.886C13.3991 280.724 13.2074 280.511 13.0767 280.247C12.946 279.98 12.8807 279.687 12.8807 279.369ZM13.75 278.909V279.369C13.75 279.634 13.8125 279.871 13.9375 280.081C14.0625 280.288 14.2784 280.392 14.5852 280.392C14.8835 280.392 15.0938 280.288 15.2159 280.081C15.3409 279.871 15.4034 279.634 15.4034 279.369V278.909C15.4034 278.645 15.3438 278.409 15.2244 278.202C15.1051 277.991 14.892 277.886 14.5852 277.886C14.2869 277.886 14.0724 277.991 13.9418 278.202C13.8139 278.409 13.75 278.645 13.75 278.909ZM13.2045 286L19.2045 277.273H20.1761L14.1761 286H13.2045Z" fill="#6C8180"/>
<mask id="path-12-inside-1_867_38459" fill="white">
<path d="M34 0H295V282H34V0Z"/>
</mask>
<path d="M34 282H33V283H34V282ZM295 281H34V283H295V281ZM35 282V0H33V282H35Z" fill="#D5DDDC" mask="url(#path-12-inside-1_867_38459)"/>
<rect x="49" y="56" width="9" height="226" fill="#2D5551"/>
<rect x="76.5" y="127" width="9" height="155" fill="#2D5551"/>
<rect x="102.5" y="158" width="9" height="124" fill="#2D5551"/>
<rect x="129.5" y="186" width="9" height="96" fill="#2D5551"/>
<rect x="156" y="186" width="9" height="96" fill="#2D5551"/>
<rect x="183.5" y="186" width="9" height="96" fill="#2D5551"/>
<rect x="210.5" y="196" width="9" height="86" fill="#2D5551"/>
<rect x="237" y="196" width="9" height="86" fill="#2D5551"/>
<rect x="264" y="202" width="9" height="80" fill="#2D5551"/>
<rect x="291" y="206" width="9" height="76" fill="#2D5551"/>
<rect x="317" y="227" width="9" height="55" fill="#2D5551"/>
<path d="M55.1825 295.273V304H54.1257V296.381H54.0746L51.9439 297.795V296.722L54.1257 295.273H55.1825Z" fill="#6C8180"/>
<path d="M78.0069 304V303.233L80.8876 300.08C81.2257 299.71 81.5041 299.389 81.7228 299.116C81.9416 298.841 82.1035 298.582 82.2086 298.341C82.3166 298.097 82.3706 297.841 82.3706 297.574C82.3706 297.267 82.2967 297.001 82.149 296.777C82.0041 296.553 81.8052 296.379 81.5524 296.257C81.2995 296.135 81.0154 296.074 80.7001 296.074C80.3649 296.074 80.0723 296.143 79.8223 296.283C79.5751 296.419 79.3833 296.611 79.247 296.858C79.1135 297.105 79.0467 297.395 79.0467 297.727H78.041C78.041 297.216 78.1589 296.767 78.3947 296.381C78.6305 295.994 78.9515 295.693 79.3578 295.477C79.7669 295.261 80.2257 295.153 80.7342 295.153C81.2456 295.153 81.6987 295.261 82.0936 295.477C82.4885 295.693 82.7981 295.984 83.0225 296.351C83.247 296.717 83.3592 297.125 83.3592 297.574C83.3592 297.895 83.301 298.209 83.1845 298.516C83.0708 298.82 82.872 299.159 82.5879 299.534C82.3066 299.906 81.916 300.361 81.416 300.898L79.4558 302.994V303.062H83.5126V304H78.0069Z" fill="#6C8180"/>
<path d="M107.507 304.119C106.944 304.119 106.443 304.023 106.002 303.83C105.565 303.636 105.217 303.368 104.958 303.024C104.703 302.678 104.563 302.276 104.541 301.818H105.615C105.637 302.099 105.734 302.342 105.904 302.547C106.075 302.749 106.298 302.905 106.573 303.016C106.849 303.126 107.154 303.182 107.49 303.182C107.865 303.182 108.197 303.116 108.487 302.986C108.776 302.855 109.004 302.673 109.169 302.44C109.333 302.207 109.416 301.938 109.416 301.631C109.416 301.31 109.336 301.027 109.177 300.783C109.018 300.536 108.785 300.342 108.478 300.203C108.171 300.064 107.796 299.994 107.353 299.994H106.654V299.057H107.353C107.7 299.057 108.004 298.994 108.265 298.869C108.529 298.744 108.735 298.568 108.883 298.341C109.034 298.114 109.109 297.847 109.109 297.54C109.109 297.244 109.044 296.987 108.913 296.768C108.782 296.55 108.597 296.379 108.359 296.257C108.123 296.135 107.845 296.074 107.524 296.074C107.222 296.074 106.938 296.129 106.671 296.24C106.407 296.348 106.191 296.506 106.024 296.713C105.856 296.918 105.765 297.165 105.751 297.455H104.728C104.745 296.997 104.883 296.597 105.142 296.253C105.4 295.906 105.738 295.636 106.156 295.443C106.576 295.25 107.038 295.153 107.541 295.153C108.08 295.153 108.544 295.263 108.93 295.482C109.316 295.697 109.613 295.983 109.82 296.338C110.028 296.693 110.132 297.077 110.132 297.489C110.132 297.98 110.002 298.399 109.744 298.746C109.488 299.092 109.14 299.332 108.7 299.466V299.534C109.251 299.625 109.681 299.859 109.991 300.237C110.301 300.612 110.455 301.077 110.455 301.631C110.455 302.105 110.326 302.531 110.068 302.909C109.812 303.284 109.463 303.58 109.019 303.795C108.576 304.011 108.072 304.119 107.507 304.119Z" fill="#6C8180"/>
<path d="M131.06 302.21V301.341L134.895 295.273H135.526V296.619H135.1L132.202 301.205V301.273H137.367V302.21H131.06ZM135.168 304V301.946V301.541V295.273H136.174V304H135.168Z" fill="#6C8180"/>
<path d="M160.928 304.119C160.428 304.119 159.977 304.02 159.577 303.821C159.176 303.622 158.855 303.349 158.614 303.003C158.372 302.656 158.24 302.261 158.217 301.818H159.24C159.28 302.213 159.459 302.54 159.777 302.798C160.098 303.054 160.482 303.182 160.928 303.182C161.286 303.182 161.604 303.098 161.882 302.93C162.163 302.763 162.384 302.533 162.543 302.24C162.705 301.945 162.786 301.611 162.786 301.239C162.786 300.858 162.702 300.518 162.534 300.22C162.369 299.919 162.142 299.682 161.852 299.509C161.563 299.335 161.232 299.247 160.859 299.244C160.592 299.241 160.318 299.283 160.037 299.368C159.756 299.45 159.524 299.557 159.342 299.688L158.354 299.568L158.882 295.273H163.416V296.21H159.768L159.462 298.784H159.513C159.692 298.642 159.916 298.524 160.186 298.43C160.456 298.337 160.737 298.29 161.03 298.29C161.564 298.29 162.04 298.418 162.457 298.673C162.878 298.926 163.207 299.273 163.446 299.713C163.688 300.153 163.808 300.656 163.808 301.222C163.808 301.778 163.683 302.276 163.433 302.713C163.186 303.148 162.845 303.491 162.411 303.744C161.976 303.994 161.482 304.119 160.928 304.119Z" fill="#6C8180"/>
<path d="M187.741 304.119C187.383 304.114 187.025 304.045 186.667 303.915C186.309 303.784 185.982 303.564 185.687 303.254C185.391 302.942 185.154 302.52 184.975 301.989C184.796 301.455 184.706 300.784 184.706 299.977C184.706 299.205 184.779 298.52 184.924 297.923C185.069 297.324 185.279 296.82 185.555 296.411C185.83 295.999 186.162 295.686 186.552 295.473C186.944 295.26 187.385 295.153 187.877 295.153C188.366 295.153 188.8 295.251 189.181 295.447C189.564 295.641 189.877 295.911 190.118 296.257C190.36 296.604 190.516 297.003 190.587 297.455H189.547C189.451 297.062 189.263 296.737 188.985 296.479C188.706 296.22 188.337 296.091 187.877 296.091C187.201 296.091 186.668 296.385 186.279 296.973C185.893 297.561 185.698 298.386 185.695 299.449H185.763C185.922 299.207 186.111 299.001 186.33 298.831C186.552 298.658 186.796 298.524 187.063 298.43C187.33 298.337 187.613 298.29 187.911 298.29C188.411 298.29 188.868 298.415 189.283 298.665C189.698 298.912 190.03 299.254 190.28 299.692C190.53 300.126 190.655 300.625 190.655 301.188C190.655 301.727 190.535 302.222 190.293 302.67C190.052 303.116 189.712 303.472 189.275 303.736C188.84 303.997 188.329 304.125 187.741 304.119ZM187.741 303.182C188.099 303.182 188.42 303.092 188.704 302.913C188.991 302.734 189.216 302.494 189.381 302.193C189.549 301.892 189.633 301.557 189.633 301.188C189.633 300.827 189.552 300.499 189.39 300.203C189.231 299.905 189.01 299.668 188.729 299.491C188.451 299.315 188.133 299.227 187.775 299.227C187.505 299.227 187.253 299.281 187.02 299.389C186.787 299.494 186.583 299.639 186.407 299.824C186.233 300.009 186.097 300.22 185.998 300.459C185.898 300.695 185.849 300.943 185.849 301.205C185.849 301.551 185.93 301.875 186.091 302.176C186.256 302.477 186.481 302.72 186.765 302.905C187.052 303.089 187.377 303.182 187.741 303.182Z" fill="#6C8180"/>
<path d="M212.17 304L216.074 296.278V296.21H211.574V295.273H217.165V296.261L213.278 304H212.17Z" fill="#6C8180"/>
<path d="M241.16 304.119C240.575 304.119 240.058 304.016 239.609 303.808C239.163 303.598 238.815 303.31 238.565 302.943C238.315 302.574 238.191 302.153 238.194 301.682C238.191 301.312 238.263 300.972 238.411 300.659C238.559 300.344 238.761 300.081 239.016 299.871C239.275 299.658 239.563 299.523 239.881 299.466V299.415C239.464 299.307 239.131 299.072 238.884 298.712C238.637 298.348 238.515 297.935 238.518 297.472C238.515 297.028 238.627 296.632 238.854 296.283C239.082 295.933 239.394 295.658 239.792 295.456C240.192 295.254 240.648 295.153 241.16 295.153C241.665 295.153 242.117 295.254 242.515 295.456C242.913 295.658 243.225 295.933 243.452 296.283C243.683 296.632 243.799 297.028 243.802 297.472C243.799 297.935 243.673 298.348 243.423 298.712C243.175 299.072 242.847 299.307 242.438 299.415V299.466C242.754 299.523 243.038 299.658 243.29 299.871C243.543 300.081 243.745 300.344 243.896 300.659C244.046 300.972 244.123 301.312 244.126 301.682C244.123 302.153 243.995 302.574 243.742 302.943C243.492 303.31 243.144 303.598 242.698 303.808C242.255 304.016 241.742 304.119 241.16 304.119ZM241.16 303.182C241.555 303.182 241.896 303.118 242.183 302.99C242.469 302.862 242.691 302.682 242.847 302.449C243.004 302.216 243.083 301.943 243.086 301.631C243.083 301.301 242.998 301.01 242.83 300.757C242.663 300.504 242.434 300.305 242.144 300.161C241.857 300.016 241.529 299.943 241.16 299.943C240.788 299.943 240.455 300.016 240.163 300.161C239.873 300.305 239.644 300.504 239.477 300.757C239.312 301.01 239.231 301.301 239.234 301.631C239.231 301.943 239.306 302.216 239.46 302.449C239.616 302.682 239.839 302.862 240.129 302.99C240.418 303.118 240.762 303.182 241.16 303.182ZM241.16 299.04C241.472 299.04 241.749 298.977 241.991 298.852C242.235 298.727 242.427 298.553 242.566 298.328C242.705 298.104 242.776 297.841 242.779 297.54C242.776 297.244 242.707 296.987 242.57 296.768C242.434 296.547 242.245 296.376 242.004 296.257C241.762 296.135 241.481 296.074 241.16 296.074C240.833 296.074 240.548 296.135 240.303 296.257C240.059 296.376 239.87 296.547 239.737 296.768C239.603 296.987 239.538 297.244 239.54 297.54C239.538 297.841 239.604 298.104 239.741 298.328C239.88 298.553 240.072 298.727 240.316 298.852C240.56 298.977 240.842 299.04 241.16 299.04Z" fill="#6C8180"/>
<path d="M267.832 295.153C268.19 295.156 268.548 295.224 268.906 295.358C269.264 295.491 269.591 295.713 269.886 296.023C270.182 296.33 270.419 296.749 270.598 297.28C270.777 297.811 270.866 298.477 270.866 299.278C270.866 300.054 270.792 300.743 270.645 301.345C270.5 301.945 270.29 302.45 270.014 302.862C269.741 303.274 269.409 303.587 269.017 303.8C268.628 304.013 268.187 304.119 267.696 304.119C267.207 304.119 266.771 304.023 266.388 303.83C266.007 303.634 265.694 303.362 265.45 303.016C265.209 302.666 265.054 302.261 264.986 301.801H266.025C266.119 302.202 266.305 302.533 266.584 302.794C266.865 303.053 267.236 303.182 267.696 303.182C268.369 303.182 268.9 302.888 269.29 302.3C269.682 301.712 269.878 300.881 269.878 299.807H269.809C269.65 300.045 269.461 300.251 269.243 300.425C269.024 300.598 268.781 300.732 268.514 300.825C268.247 300.919 267.963 300.966 267.662 300.966C267.162 300.966 266.703 300.842 266.285 300.595C265.871 300.345 265.538 300.003 265.288 299.568C265.041 299.131 264.917 298.631 264.917 298.068C264.917 297.534 265.037 297.045 265.275 296.602C265.517 296.156 265.855 295.801 266.29 295.537C266.727 295.273 267.241 295.145 267.832 295.153ZM267.832 296.091C267.474 296.091 267.152 296.18 266.865 296.359C266.581 296.536 266.355 296.774 266.187 297.075C266.023 297.374 265.94 297.705 265.94 298.068C265.94 298.432 266.02 298.763 266.179 299.061C266.341 299.357 266.561 299.592 266.839 299.768C267.121 299.942 267.44 300.028 267.798 300.028C268.068 300.028 268.319 299.976 268.552 299.871C268.785 299.763 268.988 299.616 269.162 299.432C269.338 299.244 269.476 299.033 269.575 298.797C269.675 298.558 269.724 298.31 269.724 298.051C269.724 297.71 269.642 297.391 269.477 297.092C269.315 296.794 269.091 296.553 268.804 296.368C268.52 296.183 268.196 296.091 267.832 296.091Z" fill="#6C8180"/>
<path d="M292.063 295.273V304H291.007V296.381H290.955L288.825 297.795V296.722L291.007 295.273H292.063ZM297.42 304.119C296.778 304.119 296.231 303.945 295.779 303.595C295.328 303.243 294.982 302.733 294.744 302.065C294.505 301.395 294.386 300.585 294.386 299.636C294.386 298.693 294.505 297.888 294.744 297.22C294.985 296.55 295.332 296.038 295.784 295.686C296.238 295.331 296.784 295.153 297.42 295.153C298.056 295.153 298.6 295.331 299.052 295.686C299.507 296.038 299.853 296.55 300.092 297.22C300.333 297.888 300.454 298.693 300.454 299.636C300.454 300.585 300.335 301.395 300.096 302.065C299.857 302.733 299.512 303.243 299.061 303.595C298.609 303.945 298.062 304.119 297.42 304.119ZM297.42 303.182C298.056 303.182 298.551 302.875 298.903 302.261C299.255 301.648 299.431 300.773 299.431 299.636C299.431 298.881 299.35 298.237 299.188 297.706C299.029 297.175 298.799 296.77 298.498 296.491C298.2 296.213 297.84 296.074 297.42 296.074C296.789 296.074 296.296 296.385 295.941 297.007C295.586 297.626 295.409 298.503 295.409 299.636C295.409 300.392 295.488 301.034 295.647 301.562C295.806 302.091 296.035 302.493 296.333 302.768C296.634 303.044 296.997 303.182 297.42 303.182Z" fill="#6C8180"/>
<path d="M319.763 295.273V304H318.706V296.381H318.655L316.524 297.795V296.722L318.706 295.273H319.763ZM325.341 295.273V304H324.284V296.381H324.233L322.102 297.795V296.722L324.284 295.273H325.341Z" fill="#6C8180"/>
</svg>
