<svg width="648" height="386" viewBox="0 0 648 386" fill="none" xmlns="http://www.w3.org/2000/svg">
<path d="M5.55753 10.2727V19H4.50071V11.3807H4.44957L2.31889 12.7955V11.7216L4.50071 10.2727H5.55753ZM10.9141 19.1193C10.272 19.1193 9.72514 18.9446 9.27344 18.5952C8.82173 18.2429 8.47656 17.733 8.23793 17.0653C7.99929 16.3949 7.87997 15.5852 7.87997 14.6364C7.87997 13.6932 7.99929 12.8878 8.23793 12.2202C8.4794 11.5497 8.82599 11.0384 9.2777 10.6861C9.73224 10.331 10.2777 10.1534 10.9141 10.1534C11.5504 10.1534 12.0945 10.331 12.5462 10.6861C13.0007 11.0384 13.3473 11.5497 13.5859 12.2202C13.8274 12.8878 13.9482 13.6932 13.9482 14.6364C13.9482 15.5852 13.8288 16.3949 13.5902 17.0653C13.3516 17.733 13.0064 18.2429 12.5547 18.5952C12.103 18.9446 11.5561 19.1193 10.9141 19.1193ZM10.9141 18.1818C11.5504 18.1818 12.0447 17.875 12.397 17.2614C12.7493 16.6477 12.9254 15.7727 12.9254 14.6364C12.9254 13.8807 12.8445 13.2372 12.6825 12.706C12.5234 12.1747 12.2933 11.7699 11.9922 11.4915C11.6939 11.2131 11.3345 11.0739 10.9141 11.0739C10.2834 11.0739 9.79048 11.3849 9.43537 12.0071C9.08026 12.6264 8.9027 13.5028 8.9027 14.6364C8.9027 15.392 8.98224 16.0341 9.14134 16.5625C9.30043 17.0909 9.52912 17.4929 9.82741 17.7685C10.1286 18.044 10.4908 18.1818 10.9141 18.1818ZM20.0163 17.3636V16.9034C20.0163 16.5852 20.0817 16.294 20.2124 16.0298C20.3459 15.7628 20.5391 15.5497 20.7919 15.3906C21.0476 15.2287 21.3572 15.1477 21.7209 15.1477C22.0902 15.1477 22.3999 15.2287 22.6499 15.3906C22.8999 15.5497 23.0888 15.7628 23.2166 16.0298C23.3445 16.294 23.4084 16.5852 23.4084 16.9034V17.3636C23.4084 17.6818 23.343 17.9744 23.2124 18.2415C23.0845 18.5057 22.8942 18.7187 22.6413 18.8807C22.3913 19.0398 22.0845 19.1193 21.7209 19.1193C21.3516 19.1193 21.0405 19.0398 20.7876 18.8807C20.5348 18.7187 20.343 18.5057 20.2124 18.2415C20.0817 17.9744 20.0163 17.6818 20.0163 17.3636ZM20.8857 16.9034V17.3636C20.8857 17.6278 20.9482 17.8651 21.0732 18.0753C21.1982 18.2827 21.4141 18.3864 21.7209 18.3864C22.0192 18.3864 22.2294 18.2827 22.3516 18.0753C22.4766 17.8651 22.5391 17.6278 22.5391 17.3636V16.9034C22.5391 16.6392 22.4794 16.4034 22.3601 16.196C22.2408 15.9858 22.0277 15.8807 21.7209 15.8807C21.4226 15.8807 21.2081 15.9858 21.0774 16.196C20.9496 16.4034 20.8857 16.6392 20.8857 16.9034ZM15.6697 12.3693V11.9091C15.6697 11.5909 15.7351 11.2997 15.8658 11.0355C15.9993 10.7685 16.1925 10.5554 16.4453 10.3963C16.701 10.2344 17.0107 10.1534 17.3743 10.1534C17.7436 10.1534 18.0533 10.2344 18.3033 10.3963C18.5533 10.5554 18.7422 10.7685 18.87 11.0355C18.9979 11.2997 19.0618 11.5909 19.0618 11.9091V12.3693C19.0618 12.6875 18.9964 12.9801 18.8658 13.2472C18.7379 13.5114 18.5476 13.7244 18.2947 13.8864C18.0447 14.0455 17.7379 14.125 17.3743 14.125C17.005 14.125 16.6939 14.0455 16.4411 13.8864C16.1882 13.7244 15.9964 13.5114 15.8658 13.2472C15.7351 12.9801 15.6697 12.6875 15.6697 12.3693ZM16.5391 11.9091V12.3693C16.5391 12.6335 16.6016 12.8707 16.7266 13.081C16.8516 13.2884 17.0675 13.392 17.3743 13.392C17.6726 13.392 17.8828 13.2884 18.005 13.081C18.13 12.8707 18.1925 12.6335 18.1925 12.3693V11.9091C18.1925 11.6449 18.1328 11.4091 18.0135 11.2017C17.8942 10.9915 17.6811 10.8864 17.3743 10.8864C17.076 10.8864 16.8615 10.9915 16.7308 11.2017C16.603 11.4091 16.5391 11.6449 16.5391 11.9091ZM15.9936 19L21.9936 10.2727H22.9652L16.9652 19H15.9936Z" fill="#6C8180"/>
<path d="M8.06268 44.8526C8.42063 44.8555 8.77859 44.9237 9.13654 45.0572C9.4945 45.1907 9.8212 45.4123 10.1167 45.7219C10.4121 46.0288 10.6493 46.4478 10.8283 46.979C11.0073 47.5103 11.0968 48.1765 11.0968 48.9776C11.0968 49.7532 11.0229 50.4421 10.8752 51.0444C10.7303 51.6438 10.5201 52.1495 10.2445 52.5614C9.97177 52.9734 9.63938 53.2859 9.24734 53.4989C8.85813 53.712 8.41779 53.8185 7.92631 53.8185C7.43768 53.8185 7.0016 53.7219 6.61808 53.5288C6.23739 53.3327 5.92489 53.0614 5.68058 52.7148C5.4391 52.3654 5.28427 51.9606 5.21609 51.5004H6.25586C6.34961 51.9009 6.53569 52.2319 6.8141 52.4933C7.09535 52.7518 7.46609 52.881 7.92631 52.881C8.59961 52.881 9.13086 52.587 9.52006 51.9989C9.91211 51.4109 10.1081 50.5799 10.1081 49.506H10.04C9.88086 49.7447 9.69194 49.9506 9.47319 50.1239C9.25444 50.2972 9.01154 50.4308 8.7445 50.5245C8.47745 50.6183 8.19336 50.6651 7.89222 50.6651C7.39222 50.6651 6.93342 50.5415 6.5158 50.2944C6.10103 50.0444 5.76864 49.7021 5.51864 49.2674C5.27148 48.8299 5.1479 48.3299 5.1479 47.7674C5.1479 47.2333 5.26722 46.7447 5.50586 46.3015C5.74734 45.8555 6.0854 45.5004 6.52006 45.2362C6.95756 44.9719 7.47177 44.8441 8.06268 44.8526ZM8.06268 45.7901C7.70472 45.7901 7.38228 45.8796 7.09535 46.0586C6.81126 46.2347 6.5854 46.4734 6.41779 46.7745C6.25302 47.0728 6.17063 47.4038 6.17063 47.7674C6.17063 48.131 6.25018 48.462 6.40927 48.7603C6.5712 49.0558 6.79137 49.2915 7.06978 49.4677C7.35103 49.641 7.67063 49.7276 8.02859 49.7276C8.29847 49.7276 8.54989 49.6751 8.78285 49.57C9.0158 49.462 9.21893 49.3157 9.39222 49.131C9.56836 48.9435 9.70614 48.7319 9.80558 48.4961C9.90501 48.2575 9.95472 48.0089 9.95472 47.7504C9.95472 47.4094 9.87234 47.0898 9.70756 46.7915C9.54563 46.4933 9.3212 46.2518 9.03427 46.0671C8.75018 45.8825 8.42631 45.7901 8.06268 45.7901ZM17.2214 52.0629V51.6026C17.2214 51.2844 17.2868 50.9933 17.4174 50.729C17.551 50.462 17.7441 50.2489 17.997 50.0898C18.2527 49.9279 18.5623 49.8469 18.926 49.8469C19.2953 49.8469 19.6049 49.9279 19.8549 50.0898C20.1049 50.2489 20.2939 50.462 20.4217 50.729C20.5495 50.9933 20.6135 51.2844 20.6135 51.6026V52.0629C20.6135 52.381 20.5481 52.6737 20.4174 52.9407C20.2896 53.2049 20.0993 53.418 19.8464 53.5799C19.5964 53.739 19.2896 53.8185 18.926 53.8185C18.5566 53.8185 18.2456 53.739 17.9927 53.5799C17.7399 53.418 17.5481 53.2049 17.4174 52.9407C17.2868 52.6737 17.2214 52.381 17.2214 52.0629ZM18.0907 51.6026V52.0629C18.0907 52.3271 18.1532 52.5643 18.2782 52.7745C18.4032 52.9819 18.6191 53.0856 18.926 53.0856C19.2243 53.0856 19.4345 52.9819 19.5566 52.7745C19.6816 52.5643 19.7441 52.3271 19.7441 52.0629V51.6026C19.7441 51.3384 19.6845 51.1026 19.5652 50.8952C19.4458 50.685 19.2328 50.5799 18.926 50.5799C18.6277 50.5799 18.4132 50.685 18.2825 50.8952C18.1547 51.1026 18.0907 51.3384 18.0907 51.6026ZM12.8748 47.0685V46.6083C12.8748 46.2901 12.9402 45.9989 13.0708 45.7347C13.2044 45.4677 13.3975 45.2546 13.6504 45.0955C13.9061 44.9336 14.2157 44.8526 14.5794 44.8526C14.9487 44.8526 15.2583 44.9336 15.5083 45.0955C15.7583 45.2546 15.9473 45.4677 16.0751 45.7347C16.2029 45.9989 16.2669 46.2901 16.2669 46.6083V47.0685C16.2669 47.3867 16.2015 47.6793 16.0708 47.9464C15.943 48.2106 15.7527 48.4237 15.4998 48.5856C15.2498 48.7447 14.943 48.8242 14.5794 48.8242C14.21 48.8242 13.899 48.7447 13.6461 48.5856C13.3933 48.4237 13.2015 48.2106 13.0708 47.9464C12.9402 47.6793 12.8748 47.3867 12.8748 47.0685ZM13.7441 46.6083V47.0685C13.7441 47.3327 13.8066 47.57 13.9316 47.7802C14.0566 47.9876 14.2725 48.0913 14.5794 48.0913C14.8777 48.0913 15.0879 47.9876 15.21 47.7802C15.335 47.57 15.3975 47.3327 15.3975 47.0685V46.6083C15.3975 46.3441 15.3379 46.1083 15.2186 45.9009C15.0993 45.6907 14.8862 45.5856 14.5794 45.5856C14.2811 45.5856 14.0666 45.6907 13.9359 45.9009C13.8081 46.1083 13.7441 46.3441 13.7441 46.6083ZM13.1987 53.6992L19.1987 44.9719H20.1703L14.1703 53.6992H13.1987Z" fill="#6C8180"/>
<path d="M8.1266 88.5178C7.54137 88.5178 7.02433 88.4141 6.57546 88.2067C6.12944 87.9964 5.78143 87.7081 5.53143 87.3416C5.28143 86.9723 5.15785 86.5518 5.16069 86.0803C5.15785 85.7109 5.23029 85.37 5.37802 85.0575C5.52575 84.7422 5.72745 84.4794 5.98313 84.2692C6.24165 84.0561 6.53001 83.9212 6.84819 83.8643V83.8132C6.43058 83.7053 6.09819 83.4709 5.85103 83.1101C5.60387 82.7464 5.48171 82.3331 5.48455 81.87C5.48171 81.4268 5.59393 81.0305 5.8212 80.6811C6.04847 80.3317 6.36097 80.0561 6.7587 79.8544C7.15927 79.6527 7.61523 79.5518 8.1266 79.5518C8.63228 79.5518 9.08398 79.6527 9.48171 79.8544C9.87944 80.0561 10.1919 80.3317 10.4192 80.6811C10.6493 81.0305 10.7658 81.4268 10.7686 81.87C10.7658 82.3331 10.6394 82.7464 10.3894 83.1101C10.1422 83.4709 9.8141 83.7053 9.40501 83.8132V83.8643C9.72035 83.9212 10.0044 84.0561 10.2573 84.2692C10.5101 84.4794 10.7118 84.7422 10.8624 85.0575C11.013 85.37 11.0897 85.7109 11.0925 86.0803C11.0897 86.5518 10.9618 86.9723 10.709 87.3416C10.459 87.7081 10.111 87.9964 9.66495 88.2067C9.22177 88.4141 8.70898 88.5178 8.1266 88.5178ZM8.1266 87.5803C8.52148 87.5803 8.86239 87.5163 9.14933 87.3885C9.43626 87.2607 9.65785 87.0803 9.8141 86.8473C9.97035 86.6143 10.0499 86.3416 10.0527 86.0291C10.0499 85.6996 9.96467 85.4084 9.79705 85.1555C9.62944 84.9027 9.40075 84.7038 9.11097 84.5589C8.82404 84.4141 8.49592 84.3416 8.1266 84.3416C7.75444 84.3416 7.42205 84.4141 7.12944 84.5589C6.83967 84.7038 6.61097 84.9027 6.44336 85.1555C6.27859 85.4084 6.19762 85.6996 6.20046 86.0291C6.19762 86.3416 6.2729 86.6143 6.42631 86.8473C6.58256 87.0803 6.80558 87.2607 7.09535 87.3885C7.38512 87.5163 7.72887 87.5803 8.1266 87.5803ZM8.1266 83.4382C8.4391 83.4382 8.71609 83.3757 8.95756 83.2507C9.20188 83.1257 9.39364 82.951 9.53285 82.7266C9.67205 82.5021 9.74308 82.2393 9.74592 81.9382C9.74308 81.6428 9.67347 81.3857 9.53711 81.1669C9.40075 80.9453 9.21183 80.7749 8.97035 80.6555C8.72887 80.5334 8.44762 80.4723 8.1266 80.4723C7.79989 80.4723 7.51438 80.5334 7.27006 80.6555C7.02575 80.7749 6.83683 80.9453 6.7033 81.1669C6.56978 81.3857 6.50444 81.6428 6.50728 81.9382C6.50444 82.2393 6.5712 82.5021 6.70756 82.7266C6.84677 82.951 7.03853 83.1257 7.28285 83.2507C7.52717 83.3757 7.80842 83.4382 8.1266 83.4382ZM17.1745 86.7621V86.3018C17.1745 85.9837 17.2399 85.6925 17.3706 85.4283C17.5041 85.1612 17.6973 84.9482 17.9501 84.7891C18.2058 84.6271 18.5154 84.5462 18.8791 84.5462C19.2484 84.5462 19.5581 84.6271 19.8081 84.7891C20.0581 84.9482 20.247 85.1612 20.3748 85.4283C20.5027 85.6925 20.5666 85.9837 20.5666 86.3018V86.7621C20.5666 87.0803 20.5012 87.3729 20.3706 87.6399C20.2427 87.9041 20.0524 88.1172 19.7995 88.2791C19.5495 88.4382 19.2427 88.5178 18.8791 88.5178C18.5098 88.5178 18.1987 88.4382 17.9458 88.2791C17.693 88.1172 17.5012 87.9041 17.3706 87.6399C17.2399 87.3729 17.1745 87.0803 17.1745 86.7621ZM18.0439 86.3018V86.7621C18.0439 87.0263 18.1064 87.2635 18.2314 87.4737C18.3564 87.6811 18.5723 87.7848 18.8791 87.7848C19.1774 87.7848 19.3876 87.6811 19.5098 87.4737C19.6348 87.2635 19.6973 87.0263 19.6973 86.7621V86.3018C19.6973 86.0376 19.6376 85.8018 19.5183 85.5945C19.399 85.3842 19.1859 85.2791 18.8791 85.2791C18.5808 85.2791 18.3663 85.3842 18.2356 85.5945C18.1078 85.8018 18.0439 86.0376 18.0439 86.3018ZM12.8279 81.7678V81.3075C12.8279 80.9893 12.8933 80.6982 13.024 80.4339C13.1575 80.1669 13.3507 79.9538 13.6035 79.7947C13.8592 79.6328 14.1689 79.5518 14.5325 79.5518C14.9018 79.5518 15.2115 79.6328 15.4615 79.7947C15.7115 79.9538 15.9004 80.1669 16.0282 80.4339C16.1561 80.6982 16.22 80.9893 16.22 81.3075V81.7678C16.22 82.0859 16.1547 82.3786 16.024 82.6456C15.8961 82.9098 15.7058 83.1229 15.4529 83.2848C15.2029 83.4439 14.8961 83.5234 14.5325 83.5234C14.1632 83.5234 13.8521 83.4439 13.5993 83.2848C13.3464 83.1229 13.1547 82.9098 13.024 82.6456C12.8933 82.3786 12.8279 82.0859 12.8279 81.7678ZM13.6973 81.3075V81.7678C13.6973 82.032 13.7598 82.2692 13.8848 82.4794C14.0098 82.6868 14.2257 82.7905 14.5325 82.7905C14.8308 82.7905 15.041 82.6868 15.1632 82.4794C15.2882 82.2692 15.3507 82.032 15.3507 81.7678V81.3075C15.3507 81.0433 15.291 80.8075 15.1717 80.6001C15.0524 80.3899 14.8393 80.2848 14.5325 80.2848C14.2342 80.2848 14.0197 80.3899 13.889 80.6001C13.7612 80.8075 13.6973 81.0433 13.6973 81.3075ZM13.1518 88.3984L19.1518 79.6712H20.1234L14.1234 88.3984H13.1518Z" fill="#6C8180"/>
<path d="M5.8734 123.102L9.77681 115.38V115.312H5.27681V114.374H10.8677V115.363L6.98136 123.102H5.8734ZM16.905 121.465V121.005C16.905 120.687 16.9703 120.396 17.101 120.131C17.2346 119.864 17.4277 119.651 17.6806 119.492C17.9363 119.33 18.2459 119.249 18.6096 119.249C18.9789 119.249 19.2885 119.33 19.5385 119.492C19.7885 119.651 19.9775 119.864 20.1053 120.131C20.2331 120.396 20.2971 120.687 20.2971 121.005V121.465C20.2971 121.783 20.2317 122.076 20.101 122.343C19.9732 122.607 19.7828 122.82 19.53 122.982C19.28 123.141 18.9732 123.221 18.6096 123.221C18.2402 123.221 17.9292 123.141 17.6763 122.982C17.4235 122.82 17.2317 122.607 17.101 122.343C16.9703 122.076 16.905 121.783 16.905 121.465ZM17.7743 121.005V121.465C17.7743 121.729 17.8368 121.967 17.9618 122.177C18.0868 122.384 18.3027 122.488 18.6096 122.488C18.9078 122.488 19.1181 122.384 19.2402 122.177C19.3652 121.967 19.4277 121.729 19.4277 121.465V121.005C19.4277 120.741 19.3681 120.505 19.2488 120.298C19.1294 120.087 18.9164 119.982 18.6096 119.982C18.3113 119.982 18.0968 120.087 17.9661 120.298C17.8382 120.505 17.7743 120.741 17.7743 121.005ZM12.5584 116.471V116.011C12.5584 115.692 12.6238 115.401 12.7544 115.137C12.888 114.87 13.0811 114.657 13.334 114.498C13.5897 114.336 13.8993 114.255 14.263 114.255C14.6323 114.255 14.9419 114.336 15.1919 114.498C15.4419 114.657 15.6309 114.87 15.7587 115.137C15.8865 115.401 15.9505 115.692 15.9505 116.011V116.471C15.9505 116.789 15.8851 117.082 15.7544 117.349C15.6266 117.613 15.4363 117.826 15.1834 117.988C14.9334 118.147 14.6266 118.227 14.263 118.227C13.8936 118.227 13.5826 118.147 13.3297 117.988C13.0769 117.826 12.8851 117.613 12.7544 117.349C12.6238 117.082 12.5584 116.789 12.5584 116.471ZM13.4277 116.011V116.471C13.4277 116.735 13.4902 116.972 13.6152 117.183C13.7402 117.39 13.9561 117.494 14.263 117.494C14.5613 117.494 14.7715 117.39 14.8936 117.183C15.0186 116.972 15.0811 116.735 15.0811 116.471V116.011C15.0811 115.746 15.0215 115.511 14.9022 115.303C14.7828 115.093 14.5698 114.988 14.263 114.988C13.9647 114.988 13.7502 115.093 13.6195 115.303C13.4917 115.511 13.4277 115.746 13.4277 116.011ZM12.8823 123.102L18.8823 114.374H19.8539L13.8539 123.102H12.8823Z" fill="#6C8180"/>
<path d="M8.182 157.92C7.82404 157.914 7.46609 157.846 7.10813 157.716C6.75018 157.585 6.42347 157.365 6.12802 157.055C5.83256 156.743 5.59535 156.321 5.41637 155.789C5.23739 155.255 5.1479 154.585 5.1479 153.778C5.1479 153.005 5.22035 152.321 5.36523 151.724C5.51012 151.125 5.72035 150.62 5.99592 150.211C6.27148 149.799 6.60387 149.487 6.99308 149.274C7.38512 149.061 7.82688 148.954 8.31836 148.954C8.807 148.954 9.24165 149.052 9.62234 149.248C10.0059 149.441 10.3184 149.711 10.5598 150.058C10.8013 150.404 10.9576 150.804 11.0286 151.255H9.98881C9.89222 150.863 9.70472 150.538 9.42631 150.279C9.1479 150.021 8.77859 149.892 8.31836 149.892C7.64222 149.892 7.10955 150.186 6.72035 150.774C6.33398 151.362 6.13938 152.187 6.13654 153.25H6.20472C6.36381 153.008 6.55273 152.802 6.77148 152.632C6.99308 152.458 7.23739 152.325 7.50444 152.231C7.77148 152.137 8.05415 152.091 8.35245 152.091C8.85245 152.091 9.30984 152.216 9.72461 152.466C10.1394 152.713 10.4718 153.055 10.7218 153.493C10.9718 153.927 11.0968 154.426 11.0968 154.988C11.0968 155.528 10.976 156.022 10.7346 156.471C10.4931 156.917 10.1536 157.272 9.71609 157.537C9.28143 157.798 8.77006 157.926 8.182 157.92ZM8.182 156.983C8.53995 156.983 8.86097 156.893 9.14506 156.714C9.432 156.535 9.65785 156.295 9.82262 155.994C9.99023 155.693 10.074 155.358 10.074 154.988C10.074 154.627 9.99308 154.299 9.83114 154.004C9.67205 153.706 9.45188 153.468 9.17063 153.292C8.89222 153.116 8.57404 153.028 8.21609 153.028C7.9462 153.028 7.69478 153.082 7.46183 153.19C7.22887 153.295 7.02433 153.44 6.84819 153.625C6.67489 153.809 6.53853 154.021 6.4391 154.26C6.33967 154.495 6.28995 154.744 6.28995 155.005C6.28995 155.352 6.37092 155.676 6.53285 155.977C6.69762 156.278 6.92205 156.521 7.20614 156.706C7.49308 156.89 7.81836 156.983 8.182 156.983ZM17.2214 156.164V155.704C17.2214 155.386 17.2868 155.095 17.4174 154.831C17.551 154.564 17.7441 154.35 17.997 154.191C18.2527 154.029 18.5623 153.949 18.926 153.949C19.2953 153.949 19.6049 154.029 19.8549 154.191C20.1049 154.35 20.2939 154.564 20.4217 154.831C20.5495 155.095 20.6135 155.386 20.6135 155.704V156.164C20.6135 156.483 20.5481 156.775 20.4174 157.042C20.2896 157.306 20.0993 157.52 19.8464 157.681C19.5964 157.841 19.2896 157.92 18.926 157.92C18.5566 157.92 18.2456 157.841 17.9927 157.681C17.7399 157.52 17.5481 157.306 17.4174 157.042C17.2868 156.775 17.2214 156.483 17.2214 156.164ZM18.0907 155.704V156.164C18.0907 156.429 18.1532 156.666 18.2782 156.876C18.4032 157.083 18.6191 157.187 18.926 157.187C19.2243 157.187 19.4345 157.083 19.5566 156.876C19.6816 156.666 19.7441 156.429 19.7441 156.164V155.704C19.7441 155.44 19.6845 155.204 19.5652 154.997C19.4458 154.787 19.2328 154.681 18.926 154.681C18.6277 154.681 18.4132 154.787 18.2825 154.997C18.1547 155.204 18.0907 155.44 18.0907 155.704ZM12.8748 151.17V150.71C12.8748 150.392 12.9402 150.1 13.0708 149.836C13.2044 149.569 13.3975 149.356 13.6504 149.197C13.9061 149.035 14.2157 148.954 14.5794 148.954C14.9487 148.954 15.2583 149.035 15.5083 149.197C15.7583 149.356 15.9473 149.569 16.0751 149.836C16.2029 150.1 16.2669 150.392 16.2669 150.71V151.17C16.2669 151.488 16.2015 151.781 16.0708 152.048C15.943 152.312 15.7527 152.525 15.4998 152.687C15.2498 152.846 14.943 152.926 14.5794 152.926C14.21 152.926 13.899 152.846 13.6461 152.687C13.3933 152.525 13.2015 152.312 13.0708 152.048C12.9402 151.781 12.8748 151.488 12.8748 151.17ZM13.7441 150.71V151.17C13.7441 151.434 13.8066 151.672 13.9316 151.882C14.0566 152.089 14.2725 152.193 14.5794 152.193C14.8777 152.193 15.0879 152.089 15.21 151.882C15.335 151.672 15.3975 151.434 15.3975 151.17V150.71C15.3975 150.446 15.3379 150.21 15.2186 150.002C15.0993 149.792 14.8862 149.687 14.5794 149.687C14.2811 149.687 14.0666 149.792 13.9359 150.002C13.8081 150.21 13.7441 150.446 13.7441 150.71ZM13.1987 157.801L19.1987 149.074H20.1703L14.1703 157.801H13.1987Z" fill="#6C8180"/>
<path d="M8.10529 192.619C7.60529 192.619 7.15501 192.52 6.75444 192.321C6.35387 192.122 6.03285 191.849 5.79137 191.503C5.54989 191.156 5.41779 190.761 5.39506 190.318H6.41779C6.45756 190.713 6.63654 191.04 6.95472 191.298C7.27575 191.554 7.65927 191.682 8.10529 191.682C8.46325 191.682 8.78143 191.598 9.05984 191.43C9.34109 191.263 9.56126 191.033 9.72035 190.74C9.88228 190.445 9.96325 190.111 9.96325 189.739C9.96325 189.358 9.87944 189.018 9.71183 188.72C9.54705 188.419 9.31978 188.182 9.03001 188.009C8.74023 187.835 8.40927 187.747 8.03711 187.744C7.77006 187.741 7.49592 187.783 7.21467 187.868C6.93342 187.95 6.70188 188.057 6.52006 188.188L5.53143 188.068L6.05984 183.773H10.5939V184.71H6.9462L6.63938 187.284H6.69052C6.8695 187.142 7.09393 187.024 7.36381 186.93C7.6337 186.837 7.91495 186.79 8.20756 186.79C8.74165 186.79 9.21751 186.918 9.63512 187.173C10.0556 187.426 10.3851 187.773 10.6238 188.213C10.8652 188.653 10.986 189.156 10.986 189.722C10.986 190.278 10.861 190.776 10.611 191.213C10.3638 191.648 10.0229 191.991 9.58825 192.244C9.15359 192.494 8.65927 192.619 8.10529 192.619ZM17.1277 190.864V190.403C17.1277 190.085 17.193 189.794 17.3237 189.53C17.4572 189.263 17.6504 189.05 17.9032 188.891C18.1589 188.729 18.4686 188.648 18.8322 188.648C19.2015 188.648 19.5112 188.729 19.7612 188.891C20.0112 189.05 20.2001 189.263 20.3279 189.53C20.4558 189.794 20.5197 190.085 20.5197 190.403V190.864C20.5197 191.182 20.4544 191.474 20.3237 191.741C20.1958 192.006 20.0055 192.219 19.7527 192.381C19.5027 192.54 19.1958 192.619 18.8322 192.619C18.4629 192.619 18.1518 192.54 17.899 192.381C17.6461 192.219 17.4544 192.006 17.3237 191.741C17.193 191.474 17.1277 191.182 17.1277 190.864ZM17.997 190.403V190.864C17.997 191.128 18.0595 191.365 18.1845 191.575C18.3095 191.783 18.5254 191.886 18.8322 191.886C19.1305 191.886 19.3407 191.783 19.4629 191.575C19.5879 191.365 19.6504 191.128 19.6504 190.864V190.403C19.6504 190.139 19.5907 189.903 19.4714 189.696C19.3521 189.486 19.139 189.381 18.8322 189.381C18.5339 189.381 18.3194 189.486 18.1887 189.696C18.0609 189.903 17.997 190.139 17.997 190.403ZM12.7811 185.869V185.409C12.7811 185.091 12.8464 184.8 12.9771 184.536C13.1106 184.268 13.3038 184.055 13.5566 183.896C13.8123 183.734 14.122 183.653 14.4856 183.653C14.8549 183.653 15.1646 183.734 15.4146 183.896C15.6646 184.055 15.8535 184.268 15.9814 184.536C16.1092 184.8 16.1731 185.091 16.1731 185.409V185.869C16.1731 186.187 16.1078 186.48 15.9771 186.747C15.8493 187.011 15.6589 187.224 15.4061 187.386C15.1561 187.545 14.8493 187.625 14.4856 187.625C14.1163 187.625 13.8052 187.545 13.5524 187.386C13.2995 187.224 13.1078 187.011 12.9771 186.747C12.8464 186.48 12.7811 186.187 12.7811 185.869ZM13.6504 185.409V185.869C13.6504 186.134 13.7129 186.371 13.8379 186.581C13.9629 186.788 14.1788 186.892 14.4856 186.892C14.7839 186.892 14.9941 186.788 15.1163 186.581C15.2413 186.371 15.3038 186.134 15.3038 185.869V185.409C15.3038 185.145 15.2441 184.909 15.1248 184.702C15.0055 184.491 14.7924 184.386 14.4856 184.386C14.1873 184.386 13.9728 184.491 13.8422 184.702C13.7143 184.909 13.6504 185.145 13.6504 185.409ZM13.1049 192.5L19.1049 183.773H20.0765L14.0765 192.5H13.1049Z" fill="#6C8180"/>
<path d="M4.97425 225.409V224.54L8.80948 218.472H9.44016V219.819H9.01403L6.1163 224.404V224.472H11.2811V225.409H4.97425ZM9.08221 227.199V225.145V224.74V218.472H10.0879V227.199H9.08221ZM17.3269 225.563V225.103C17.3269 224.784 17.3922 224.493 17.5229 224.229C17.6564 223.962 17.8496 223.749 18.1025 223.59C18.3581 223.428 18.6678 223.347 19.0314 223.347C19.4007 223.347 19.7104 223.428 19.9604 223.59C20.2104 223.749 20.3993 223.962 20.5272 224.229C20.655 224.493 20.7189 224.784 20.7189 225.103V225.563C20.7189 225.881 20.6536 226.174 20.5229 226.441C20.3951 226.705 20.2047 226.918 19.9519 227.08C19.7019 227.239 19.3951 227.319 19.0314 227.319C18.6621 227.319 18.351 227.239 18.0982 227.08C17.8453 226.918 17.6536 226.705 17.5229 226.441C17.3922 226.174 17.3269 225.881 17.3269 225.563ZM18.1962 225.103V225.563C18.1962 225.827 18.2587 226.064 18.3837 226.275C18.5087 226.482 18.7246 226.586 19.0314 226.586C19.3297 226.586 19.54 226.482 19.6621 226.275C19.7871 226.064 19.8496 225.827 19.8496 225.563V225.103C19.8496 224.838 19.79 224.603 19.6706 224.395C19.5513 224.185 19.3382 224.08 19.0314 224.08C18.7331 224.08 18.5186 224.185 18.388 224.395C18.2601 224.603 18.1962 224.838 18.1962 225.103ZM12.9803 220.569V220.108C12.9803 219.79 13.0456 219.499 13.1763 219.235C13.3098 218.968 13.503 218.755 13.7559 218.596C14.0115 218.434 14.3212 218.353 14.6848 218.353C15.0542 218.353 15.3638 218.434 15.6138 218.596C15.8638 218.755 16.0527 218.968 16.1806 219.235C16.3084 219.499 16.3723 219.79 16.3723 220.108V220.569C16.3723 220.887 16.307 221.179 16.1763 221.446C16.0485 221.711 15.8581 221.924 15.6053 222.086C15.3553 222.245 15.0485 222.324 14.6848 222.324C14.3155 222.324 14.0044 222.245 13.7516 222.086C13.4988 221.924 13.307 221.711 13.1763 221.446C13.0456 221.179 12.9803 220.887 12.9803 220.569ZM13.8496 220.108V220.569C13.8496 220.833 13.9121 221.07 14.0371 221.28C14.1621 221.488 14.378 221.591 14.6848 221.591C14.9831 221.591 15.1934 221.488 15.3155 221.28C15.4405 221.07 15.503 220.833 15.503 220.569V220.108C15.503 219.844 15.4434 219.608 15.324 219.401C15.2047 219.191 14.9917 219.086 14.6848 219.086C14.3865 219.086 14.1721 219.191 14.0414 219.401C13.9135 219.608 13.8496 219.844 13.8496 220.108ZM13.3042 227.199L19.3042 218.472H20.2757L14.2757 227.199H13.3042Z" fill="#6C8180"/>
<path d="M8.15696 262.018C7.59446 262.018 7.09304 261.921 6.6527 261.728C6.2152 261.535 5.86719 261.266 5.60866 260.923C5.35298 260.576 5.21378 260.174 5.19105 259.717H6.26491C6.28764 259.998 6.38423 260.241 6.55469 260.445C6.72514 260.647 6.94815 260.803 7.22372 260.914C7.49929 261.025 7.80469 261.08 8.13991 261.08C8.51491 261.08 8.8473 261.015 9.13707 260.884C9.42685 260.754 9.65412 260.572 9.81889 260.339C9.98366 260.106 10.0661 259.836 10.0661 259.529C10.0661 259.208 9.98651 258.925 9.82741 258.681C9.66832 258.434 9.43537 258.241 9.12855 258.102C8.82173 257.962 8.44673 257.893 8.00355 257.893H7.30469V256.955H8.00355C8.35014 256.955 8.65412 256.893 8.91548 256.768C9.17969 256.643 9.38565 256.467 9.53338 256.239C9.68395 256.012 9.75923 255.745 9.75923 255.438C9.75923 255.143 9.69389 254.886 9.56321 254.667C9.43253 254.448 9.24787 254.278 9.00923 254.156C8.77344 254.033 8.49503 253.972 8.17401 253.972C7.87287 253.972 7.58878 254.028 7.32173 254.138C7.05753 254.246 6.84162 254.404 6.67401 254.612C6.50639 254.816 6.41548 255.063 6.40128 255.353H5.37855C5.3956 254.896 5.53338 254.495 5.7919 254.151C6.05043 253.805 6.38849 253.535 6.80611 253.342C7.22656 253.148 7.68821 253.052 8.19105 253.052C8.73082 253.052 9.19389 253.161 9.58026 253.38C9.96662 253.596 10.2635 253.881 10.4709 254.237C10.6783 254.592 10.782 254.975 10.782 255.387C10.782 255.879 10.6527 256.298 10.3942 256.644C10.1385 256.991 9.79048 257.231 9.35014 257.364V257.433C9.90128 257.523 10.3317 257.758 10.6413 258.136C10.951 258.511 11.1058 258.975 11.1058 259.529C11.1058 260.004 10.9766 260.43 10.718 260.808C10.4624 261.183 10.1129 261.478 9.66974 261.694C9.22656 261.91 8.7223 262.018 8.15696 262.018ZM17.2976 260.262V259.802C17.2976 259.484 17.3629 259.192 17.4936 258.928C17.6271 258.661 17.8203 258.448 18.0732 258.289C18.3288 258.127 18.6385 258.046 19.0021 258.046C19.3714 258.046 19.6811 258.127 19.9311 258.289C20.1811 258.448 20.37 258.661 20.4979 258.928C20.6257 259.192 20.6896 259.484 20.6896 259.802V260.262C20.6896 260.58 20.6243 260.873 20.4936 261.14C20.3658 261.404 20.1754 261.617 19.9226 261.779C19.6726 261.938 19.3658 262.018 19.0021 262.018C18.6328 262.018 18.3217 261.938 18.0689 261.779C17.8161 261.617 17.6243 261.404 17.4936 261.14C17.3629 260.873 17.2976 260.58 17.2976 260.262ZM18.1669 259.802V260.262C18.1669 260.526 18.2294 260.763 18.3544 260.974C18.4794 261.181 18.6953 261.285 19.0021 261.285C19.3004 261.285 19.5107 261.181 19.6328 260.974C19.7578 260.763 19.8203 260.526 19.8203 260.262V259.802C19.8203 259.538 19.7607 259.302 19.6413 259.094C19.522 258.884 19.3089 258.779 19.0021 258.779C18.7038 258.779 18.4893 258.884 18.3587 259.094C18.2308 259.302 18.1669 259.538 18.1669 259.802ZM12.951 255.268V254.808C12.951 254.489 13.0163 254.198 13.147 253.934C13.2805 253.667 13.4737 253.454 13.7266 253.295C13.9822 253.133 14.2919 253.052 14.6555 253.052C15.0249 253.052 15.3345 253.133 15.5845 253.295C15.8345 253.454 16.0234 253.667 16.1513 253.934C16.2791 254.198 16.343 254.489 16.343 254.808V255.268C16.343 255.586 16.2777 255.879 16.147 256.146C16.0192 256.41 15.8288 256.623 15.576 256.785C15.326 256.944 15.0192 257.023 14.6555 257.023C14.2862 257.023 13.9751 256.944 13.7223 256.785C13.4695 256.623 13.2777 256.41 13.147 256.146C13.0163 255.879 12.951 255.586 12.951 255.268ZM13.8203 254.808V255.268C13.8203 255.532 13.8828 255.769 14.0078 255.979C14.1328 256.187 14.3487 256.29 14.6555 256.29C14.9538 256.29 15.1641 256.187 15.2862 255.979C15.4112 255.769 15.4737 255.532 15.4737 255.268V254.808C15.4737 254.543 15.4141 254.308 15.2947 254.1C15.1754 253.89 14.9624 253.785 14.6555 253.785C14.3572 253.785 14.1428 253.89 14.0121 254.1C13.8842 254.308 13.8203 254.543 13.8203 254.808ZM13.2749 261.898L19.2749 253.171H20.2464L14.2464 261.898H13.2749Z" fill="#6C8180"/>
<path d="M5.3956 296.602V295.835L8.27628 292.681C8.61435 292.312 8.89276 291.991 9.11151 291.718C9.33026 291.442 9.49219 291.184 9.5973 290.942C9.70526 290.698 9.75923 290.442 9.75923 290.175C9.75923 289.869 9.68537 289.603 9.53764 289.379C9.39276 289.154 9.19389 288.981 8.94105 288.859C8.68821 288.737 8.40412 288.675 8.08878 288.675C7.75355 288.675 7.46094 288.745 7.21094 288.884C6.96378 289.021 6.77202 289.212 6.63565 289.46C6.50213 289.707 6.43537 289.996 6.43537 290.329H5.42969C5.42969 289.817 5.54759 289.369 5.78338 288.982C6.01918 288.596 6.3402 288.295 6.74645 288.079C7.15554 287.863 7.61435 287.755 8.12287 287.755C8.63423 287.755 9.08736 287.863 9.48224 288.079C9.87713 288.295 10.1868 288.586 10.4112 288.952C10.6357 289.319 10.7479 289.727 10.7479 290.175C10.7479 290.496 10.6896 290.81 10.5732 291.117C10.4595 291.421 10.2607 291.761 9.97656 292.136C9.69531 292.508 9.30469 292.962 8.80469 293.499L6.84446 295.596V295.664H10.9013V296.602H5.3956ZM17.1101 294.965V294.505C17.1101 294.187 17.1754 293.896 17.3061 293.631C17.4396 293.364 17.6328 293.151 17.8857 292.992C18.1413 292.83 18.451 292.749 18.8146 292.749C19.1839 292.749 19.4936 292.83 19.7436 292.992C19.9936 293.151 20.1825 293.364 20.3104 293.631C20.4382 293.896 20.5021 294.187 20.5021 294.505V294.965C20.5021 295.283 20.4368 295.576 20.3061 295.843C20.1783 296.107 19.9879 296.32 19.7351 296.482C19.4851 296.641 19.1783 296.721 18.8146 296.721C18.4453 296.721 18.1342 296.641 17.8814 296.482C17.6286 296.32 17.4368 296.107 17.3061 295.843C17.1754 295.576 17.1101 295.283 17.1101 294.965ZM17.9794 294.505V294.965C17.9794 295.229 18.0419 295.467 18.1669 295.677C18.2919 295.884 18.5078 295.988 18.8146 295.988C19.1129 295.988 19.3232 295.884 19.4453 295.677C19.5703 295.467 19.6328 295.229 19.6328 294.965V294.505C19.6328 294.241 19.5732 294.005 19.4538 293.798C19.3345 293.587 19.1214 293.482 18.8146 293.482C18.5163 293.482 18.3018 293.587 18.1712 293.798C18.0433 294.005 17.9794 294.241 17.9794 294.505ZM12.7635 289.971V289.511C12.7635 289.192 12.8288 288.901 12.9595 288.637C13.093 288.37 13.2862 288.157 13.5391 287.998C13.7947 287.836 14.1044 287.755 14.468 287.755C14.8374 287.755 15.147 287.836 15.397 287.998C15.647 288.157 15.8359 288.37 15.9638 288.637C16.0916 288.901 16.1555 289.192 16.1555 289.511V289.971C16.1555 290.289 16.0902 290.582 15.9595 290.849C15.8317 291.113 15.6413 291.326 15.3885 291.488C15.1385 291.647 14.8317 291.727 14.468 291.727C14.0987 291.727 13.7876 291.647 13.5348 291.488C13.282 291.326 13.0902 291.113 12.9595 290.849C12.8288 290.582 12.7635 290.289 12.7635 289.971ZM13.6328 289.511V289.971C13.6328 290.235 13.6953 290.472 13.8203 290.683C13.9453 290.89 14.1612 290.994 14.468 290.994C14.7663 290.994 14.9766 290.89 15.0987 290.683C15.2237 290.472 15.2862 290.235 15.2862 289.971V289.511C15.2862 289.246 15.2266 289.011 15.1072 288.803C14.9879 288.593 14.7749 288.488 14.468 288.488C14.1697 288.488 13.9553 288.593 13.8246 288.803C13.6967 289.011 13.6328 289.246 13.6328 289.511ZM13.0874 296.602L19.0874 287.874H20.0589L14.0589 296.602H13.0874Z" fill="#6C8180"/>
<path d="M9.30753 322.574V331.301H8.25071V323.681H8.19957L6.06889 325.096V324.022L8.25071 322.574H9.30753ZM16.2663 329.664V329.204C16.2663 328.886 16.3317 328.595 16.4624 328.331C16.5959 328.064 16.7891 327.85 17.0419 327.691C17.2976 327.529 17.6072 327.449 17.9709 327.449C18.3402 327.449 18.6499 327.529 18.8999 327.691C19.1499 327.85 19.3388 328.064 19.4666 328.331C19.5945 328.595 19.6584 328.886 19.6584 329.204V329.664C19.6584 329.983 19.593 330.275 19.4624 330.542C19.3345 330.806 19.1442 331.02 18.8913 331.181C18.6413 331.341 18.3345 331.42 17.9709 331.42C17.6016 331.42 17.2905 331.341 17.0376 331.181C16.7848 331.02 16.593 330.806 16.4624 330.542C16.3317 330.275 16.2663 329.983 16.2663 329.664ZM17.1357 329.204V329.664C17.1357 329.929 17.1982 330.166 17.3232 330.376C17.4482 330.583 17.6641 330.687 17.9709 330.687C18.2692 330.687 18.4794 330.583 18.6016 330.376C18.7266 330.166 18.7891 329.929 18.7891 329.664V329.204C18.7891 328.94 18.7294 328.704 18.6101 328.497C18.4908 328.287 18.2777 328.181 17.9709 328.181C17.6726 328.181 17.4581 328.287 17.3274 328.497C17.1996 328.704 17.1357 328.94 17.1357 329.204ZM11.9197 324.67V324.21C11.9197 323.892 11.9851 323.6 12.1158 323.336C12.2493 323.069 12.4425 322.856 12.6953 322.697C12.951 322.535 13.2607 322.454 13.6243 322.454C13.9936 322.454 14.3033 322.535 14.5533 322.697C14.8033 322.856 14.9922 323.069 15.12 323.336C15.2479 323.6 15.3118 323.892 15.3118 324.21V324.67C15.3118 324.988 15.2464 325.281 15.1158 325.548C14.9879 325.812 14.7976 326.025 14.5447 326.187C14.2947 326.346 13.9879 326.426 13.6243 326.426C13.255 326.426 12.9439 326.346 12.6911 326.187C12.4382 326.025 12.2464 325.812 12.1158 325.548C11.9851 325.281 11.9197 324.988 11.9197 324.67ZM12.7891 324.21V324.67C12.7891 324.934 12.8516 325.172 12.9766 325.382C13.1016 325.589 13.3175 325.693 13.6243 325.693C13.9226 325.693 14.1328 325.589 14.255 325.382C14.38 325.172 14.4425 324.934 14.4425 324.67V324.21C14.4425 323.946 14.3828 323.71 14.2635 323.502C14.1442 323.292 13.9311 323.187 13.6243 323.187C13.326 323.187 13.1115 323.292 12.9808 323.502C12.853 323.71 12.7891 323.946 12.7891 324.21ZM12.2436 331.301L18.2436 322.574H19.2152L13.2152 331.301H12.2436Z" fill="#6C8180"/>
<path d="M8.125 366.119C7.48295 366.119 6.93608 365.945 6.48438 365.595C6.03267 365.243 5.6875 364.733 5.44886 364.065C5.21023 363.395 5.09091 362.585 5.09091 361.636C5.09091 360.693 5.21023 359.888 5.44886 359.22C5.69034 358.55 6.03693 358.038 6.48864 357.686C6.94318 357.331 7.48864 357.153 8.125 357.153C8.76136 357.153 9.3054 357.331 9.7571 357.686C10.2116 358.038 10.5582 358.55 10.7969 359.22C11.0384 359.888 11.1591 360.693 11.1591 361.636C11.1591 362.585 11.0398 363.395 10.8011 364.065C10.5625 364.733 10.2173 365.243 9.76562 365.595C9.31392 365.945 8.76705 366.119 8.125 366.119ZM8.125 365.182C8.76136 365.182 9.25568 364.875 9.60795 364.261C9.96023 363.648 10.1364 362.773 10.1364 361.636C10.1364 360.881 10.0554 360.237 9.89347 359.706C9.73438 359.175 9.50426 358.77 9.20312 358.491C8.90483 358.213 8.54545 358.074 8.125 358.074C7.49432 358.074 7.00142 358.385 6.64631 359.007C6.29119 359.626 6.11364 360.503 6.11364 361.636C6.11364 362.392 6.19318 363.034 6.35227 363.562C6.51136 364.091 6.74006 364.493 7.03835 364.768C7.33949 365.044 7.7017 365.182 8.125 365.182ZM17.2273 364.364V363.903C17.2273 363.585 17.2926 363.294 17.4233 363.03C17.5568 362.763 17.75 362.55 18.0028 362.391C18.2585 362.229 18.5682 362.148 18.9318 362.148C19.3011 362.148 19.6108 362.229 19.8608 362.391C20.1108 362.55 20.2997 362.763 20.4276 363.03C20.5554 363.294 20.6193 363.585 20.6193 363.903V364.364C20.6193 364.682 20.554 364.974 20.4233 365.241C20.2955 365.506 20.1051 365.719 19.8523 365.881C19.6023 366.04 19.2955 366.119 18.9318 366.119C18.5625 366.119 18.2514 366.04 17.9986 365.881C17.7457 365.719 17.554 365.506 17.4233 365.241C17.2926 364.974 17.2273 364.682 17.2273 364.364ZM18.0966 363.903V364.364C18.0966 364.628 18.1591 364.865 18.2841 365.075C18.4091 365.283 18.625 365.386 18.9318 365.386C19.2301 365.386 19.4403 365.283 19.5625 365.075C19.6875 364.865 19.75 364.628 19.75 364.364V363.903C19.75 363.639 19.6903 363.403 19.571 363.196C19.4517 362.986 19.2386 362.881 18.9318 362.881C18.6335 362.881 18.419 362.986 18.2884 363.196C18.1605 363.403 18.0966 363.639 18.0966 363.903ZM12.8807 359.369V358.909C12.8807 358.591 12.946 358.3 13.0767 358.036C13.2102 357.768 13.4034 357.555 13.6562 357.396C13.9119 357.234 14.2216 357.153 14.5852 357.153C14.9545 357.153 15.2642 357.234 15.5142 357.396C15.7642 357.555 15.9531 357.768 16.081 358.036C16.2088 358.3 16.2727 358.591 16.2727 358.909V359.369C16.2727 359.687 16.2074 359.98 16.0767 360.247C15.9489 360.511 15.7585 360.724 15.5057 360.886C15.2557 361.045 14.9489 361.125 14.5852 361.125C14.2159 361.125 13.9048 361.045 13.652 360.886C13.3991 360.724 13.2074 360.511 13.0767 360.247C12.946 359.98 12.8807 359.687 12.8807 359.369ZM13.75 358.909V359.369C13.75 359.634 13.8125 359.871 13.9375 360.081C14.0625 360.288 14.2784 360.392 14.5852 360.392C14.8835 360.392 15.0938 360.288 15.2159 360.081C15.3409 359.871 15.4034 359.634 15.4034 359.369V358.909C15.4034 358.645 15.3438 358.409 15.2244 358.202C15.1051 357.991 14.892 357.886 14.5852 357.886C14.2869 357.886 14.0724 357.991 13.9418 358.202C13.8139 358.409 13.75 358.645 13.75 358.909ZM13.2045 366L19.2045 357.273H20.1761L14.1761 366H13.2045Z" fill="#6C8180"/>
<mask id="path-12-inside-1_867_35786" fill="white">
<path d="M34 0H648V362H34V0Z"/>
</mask>
<path d="M34 362H33V363H34V362ZM648 361H34V363H648V361ZM35 362V0H33V362H35Z" fill="#D5DDDC" mask="url(#path-12-inside-1_867_35786)"/>
<rect x="50.5" y="43" width="9" height="318" fill="#2D5551"/>
<rect x="81.5" y="143" width="9" height="218" fill="#2D5551"/>
<rect x="110.5" y="187" width="9" height="174" fill="#2D5551"/>
<rect x="140.5" y="225" width="9" height="136" fill="#2D5551"/>
<rect x="170.5" y="225" width="9" height="136" fill="#2D5551"/>
<rect x="201.5" y="225" width="9" height="136" fill="#2D5551"/>
<rect x="231.5" y="240" width="9" height="121" fill="#2D5551"/>
<rect x="261.5" y="240" width="9" height="121" fill="#2D5551"/>
<rect x="291.5" y="248" width="9" height="113" fill="#2D5551"/>
<rect x="321.5" y="255" width="9" height="106" fill="#2D5551"/>
<rect x="351.5" y="283" width="9" height="78" fill="#2D5551"/>
<rect x="381.5" y="283" width="9" height="78" fill="#2D5551"/>
<rect x="411.5" y="283" width="9" height="78" fill="#2D5551"/>
<path d="M56.1825 375.273V384H55.1257V376.381H55.0746L52.9439 377.795V376.722L55.1257 375.273H56.1825Z" fill="#6C8180"/>
<path d="M82.3761 384V383.233L85.2567 380.08C85.5948 379.71 85.8732 379.389 86.092 379.116C86.3107 378.841 86.4727 378.582 86.5778 378.341C86.6857 378.097 86.7397 377.841 86.7397 377.574C86.7397 377.267 86.6658 377.001 86.5181 376.777C86.3732 376.553 86.1744 376.379 85.9215 376.257C85.6687 376.135 85.3846 376.074 85.0692 376.074C84.734 376.074 84.4414 376.143 84.1914 376.283C83.9442 376.419 83.7525 376.611 83.6161 376.858C83.4826 377.105 83.4158 377.395 83.4158 377.727H82.4102C82.4102 377.216 82.5281 376.767 82.7638 376.381C82.9996 375.994 83.3207 375.693 83.7269 375.477C84.136 375.261 84.5948 375.153 85.1033 375.153C85.6147 375.153 86.0678 375.261 86.4627 375.477C86.8576 375.693 87.1673 375.984 87.3917 376.351C87.6161 376.717 87.7283 377.125 87.7283 377.574C87.7283 377.895 87.6701 378.209 87.5536 378.516C87.44 378.82 87.2411 379.159 86.957 379.534C86.6758 379.906 86.2852 380.361 85.7852 380.898L83.8249 382.994V383.062H87.8817V384H82.3761Z" fill="#6C8180"/>
<path d="M115.243 384.119C114.68 384.119 114.179 384.023 113.739 383.83C113.301 383.636 112.953 383.368 112.695 383.024C112.439 382.678 112.3 382.276 112.277 381.818H113.351C113.374 382.099 113.47 382.342 113.641 382.547C113.811 382.749 114.034 382.905 114.31 383.016C114.585 383.126 114.891 383.182 115.226 383.182C115.601 383.182 115.933 383.116 116.223 382.986C116.513 382.855 116.74 382.673 116.905 382.44C117.07 382.207 117.152 381.938 117.152 381.631C117.152 381.31 117.072 381.027 116.913 380.783C116.754 380.536 116.521 380.342 116.214 380.203C115.908 380.064 115.533 379.994 115.089 379.994H114.391V379.057H115.089C115.436 379.057 115.74 378.994 116.001 378.869C116.266 378.744 116.472 378.568 116.619 378.341C116.77 378.114 116.845 377.847 116.845 377.54C116.845 377.244 116.78 376.987 116.649 376.768C116.518 376.55 116.334 376.379 116.095 376.257C115.859 376.135 115.581 376.074 115.26 376.074C114.959 376.074 114.675 376.129 114.408 376.24C114.143 376.348 113.928 376.506 113.76 376.713C113.592 376.918 113.501 377.165 113.487 377.455H112.464C112.482 376.997 112.619 376.597 112.878 376.253C113.136 375.906 113.474 375.636 113.892 375.443C114.313 375.25 114.774 375.153 115.277 375.153C115.817 375.153 116.28 375.263 116.666 375.482C117.053 375.697 117.349 375.983 117.557 376.338C117.764 376.693 117.868 377.077 117.868 377.489C117.868 377.98 117.739 378.399 117.48 378.746C117.224 379.092 116.876 379.332 116.436 379.466V379.534C116.987 379.625 117.418 379.859 117.727 380.237C118.037 380.612 118.192 381.077 118.192 381.631C118.192 382.105 118.063 382.531 117.804 382.909C117.548 383.284 117.199 383.58 116.756 383.795C116.313 384.011 115.808 384.119 115.243 384.119Z" fill="#6C8180"/>
<path d="M142.166 382.21V381.341L146.001 375.273H146.632V376.619H146.205L143.308 381.205V381.273H148.472V382.21H142.166ZM146.274 384V381.946V381.541V375.273H147.279V384H146.274Z" fill="#6C8180"/>
<path d="M175.402 384.119C174.902 384.119 174.452 384.02 174.051 383.821C173.651 383.622 173.33 383.349 173.088 383.003C172.847 382.656 172.715 382.261 172.692 381.818H173.715C173.754 382.213 173.933 382.54 174.252 382.798C174.573 383.054 174.956 383.182 175.402 383.182C175.76 383.182 176.078 383.098 176.357 382.93C176.638 382.763 176.858 382.533 177.017 382.24C177.179 381.945 177.26 381.611 177.26 381.239C177.26 380.858 177.176 380.518 177.009 380.22C176.844 379.919 176.617 379.682 176.327 379.509C176.037 379.335 175.706 379.247 175.334 379.244C175.067 379.241 174.793 379.283 174.512 379.368C174.23 379.45 173.999 379.557 173.817 379.688L172.828 379.568L173.357 375.273H177.891V376.21H174.243L173.936 378.784H173.987C174.166 378.642 174.391 378.524 174.661 378.43C174.931 378.337 175.212 378.29 175.504 378.29C176.039 378.29 176.514 378.418 176.932 378.673C177.352 378.926 177.682 379.273 177.921 379.713C178.162 380.153 178.283 380.656 178.283 381.222C178.283 381.778 178.158 382.276 177.908 382.713C177.661 383.148 177.32 383.491 176.885 383.744C176.45 383.994 175.956 384.119 175.402 384.119Z" fill="#6C8180"/>
<path d="M205.582 384.119C205.224 384.114 204.866 384.045 204.509 383.915C204.151 383.784 203.824 383.564 203.528 383.254C203.233 382.942 202.996 382.52 202.817 381.989C202.638 381.455 202.548 380.784 202.548 379.977C202.548 379.205 202.621 378.52 202.766 377.923C202.911 377.324 203.121 376.82 203.396 376.411C203.672 375.999 204.004 375.686 204.393 375.473C204.786 375.26 205.227 375.153 205.719 375.153C206.207 375.153 206.642 375.251 207.023 375.447C207.406 375.641 207.719 375.911 207.96 376.257C208.202 376.604 208.358 377.003 208.429 377.455H207.389C207.293 377.062 207.105 376.737 206.827 376.479C206.548 376.22 206.179 376.091 205.719 376.091C205.043 376.091 204.51 376.385 204.121 376.973C203.734 377.561 203.54 378.386 203.537 379.449H203.605C203.764 379.207 203.953 379.001 204.172 378.831C204.393 378.658 204.638 378.524 204.905 378.43C205.172 378.337 205.455 378.29 205.753 378.29C206.253 378.29 206.71 378.415 207.125 378.665C207.54 378.912 207.872 379.254 208.122 379.692C208.372 380.126 208.497 380.625 208.497 381.188C208.497 381.727 208.376 382.222 208.135 382.67C207.893 383.116 207.554 383.472 207.116 383.736C206.682 383.997 206.17 384.125 205.582 384.119ZM205.582 383.182C205.94 383.182 206.261 383.092 206.545 382.913C206.832 382.734 207.058 382.494 207.223 382.193C207.391 381.892 207.474 381.557 207.474 381.188C207.474 380.827 207.393 380.499 207.232 380.203C207.072 379.905 206.852 379.668 206.571 379.491C206.293 379.315 205.974 379.227 205.616 379.227C205.347 379.227 205.095 379.281 204.862 379.389C204.629 379.494 204.425 379.639 204.249 379.824C204.075 380.009 203.939 380.22 203.839 380.459C203.74 380.695 203.69 380.943 203.69 381.205C203.69 381.551 203.771 381.875 203.933 382.176C204.098 382.477 204.322 382.72 204.607 382.905C204.893 383.089 205.219 383.182 205.582 383.182Z" fill="#6C8180"/>
<path d="M233.379 384L237.283 376.278V376.21H232.783V375.273H238.374V376.261L234.487 384H233.379Z" fill="#6C8180"/>
<path d="M265.738 384.119C265.153 384.119 264.636 384.016 264.187 383.808C263.741 383.598 263.393 383.31 263.143 382.943C262.893 382.574 262.769 382.153 262.772 381.682C262.769 381.312 262.842 380.972 262.989 380.659C263.137 380.344 263.339 380.081 263.594 379.871C263.853 379.658 264.141 379.523 264.46 379.466V379.415C264.042 379.307 263.71 379.072 263.462 378.712C263.215 378.348 263.093 377.935 263.096 377.472C263.093 377.028 263.205 376.632 263.433 376.283C263.66 375.933 263.972 375.658 264.37 375.456C264.771 375.254 265.227 375.153 265.738 375.153C266.244 375.153 266.695 375.254 267.093 375.456C267.491 375.658 267.803 375.933 268.031 376.283C268.261 376.632 268.377 377.028 268.38 377.472C268.377 377.935 268.251 378.348 268.001 378.712C267.754 379.072 267.425 379.307 267.016 379.415V379.466C267.332 379.523 267.616 379.658 267.869 379.871C268.121 380.081 268.323 380.344 268.474 380.659C268.624 380.972 268.701 381.312 268.704 381.682C268.701 382.153 268.573 382.574 268.32 382.943C268.07 383.31 267.722 383.598 267.276 383.808C266.833 384.016 266.32 384.119 265.738 384.119ZM265.738 383.182C266.133 383.182 266.474 383.118 266.761 382.99C267.048 382.862 267.269 382.682 267.425 382.449C267.582 382.216 267.661 381.943 267.664 381.631C267.661 381.301 267.576 381.01 267.408 380.757C267.241 380.504 267.012 380.305 266.722 380.161C266.435 380.016 266.107 379.943 265.738 379.943C265.366 379.943 265.033 380.016 264.741 380.161C264.451 380.305 264.222 380.504 264.055 380.757C263.89 381.01 263.809 381.301 263.812 381.631C263.809 381.943 263.884 382.216 264.038 382.449C264.194 382.682 264.417 382.862 264.707 382.99C264.996 383.118 265.34 383.182 265.738 383.182ZM265.738 379.04C266.05 379.04 266.327 378.977 266.569 378.852C266.813 378.727 267.005 378.553 267.144 378.328C267.283 378.104 267.354 377.841 267.357 377.54C267.354 377.244 267.285 376.987 267.148 376.768C267.012 376.547 266.823 376.376 266.582 376.257C266.34 376.135 266.059 376.074 265.738 376.074C265.411 376.074 265.126 376.135 264.881 376.257C264.637 376.376 264.448 376.547 264.315 376.768C264.181 376.987 264.116 377.244 264.119 377.54C264.116 377.841 264.183 378.104 264.319 378.328C264.458 378.553 264.65 378.727 264.894 378.852C265.138 378.977 265.42 379.04 265.738 379.04Z" fill="#6C8180"/>
<path d="M295.779 375.153C296.137 375.156 296.495 375.224 296.853 375.358C297.211 375.491 297.538 375.713 297.833 376.023C298.129 376.33 298.366 376.749 298.545 377.28C298.724 377.811 298.814 378.477 298.814 379.278C298.814 380.054 298.74 380.743 298.592 381.345C298.447 381.945 298.237 382.45 297.961 382.862C297.689 383.274 297.356 383.587 296.964 383.8C296.575 384.013 296.135 384.119 295.643 384.119C295.154 384.119 294.718 384.023 294.335 383.83C293.954 383.634 293.642 383.362 293.397 383.016C293.156 382.666 293.001 382.261 292.933 381.801H293.973C294.066 382.202 294.252 382.533 294.531 382.794C294.812 383.053 295.183 383.182 295.643 383.182C296.316 383.182 296.848 382.888 297.237 382.3C297.629 381.712 297.825 380.881 297.825 379.807H297.757C297.598 380.045 297.409 380.251 297.19 380.425C296.971 380.598 296.728 380.732 296.461 380.825C296.194 380.919 295.91 380.966 295.609 380.966C295.109 380.966 294.65 380.842 294.233 380.595C293.818 380.345 293.485 380.003 293.235 379.568C292.988 379.131 292.865 378.631 292.865 378.068C292.865 377.534 292.984 377.045 293.223 376.602C293.464 376.156 293.802 375.801 294.237 375.537C294.674 375.273 295.189 375.145 295.779 375.153ZM295.779 376.091C295.422 376.091 295.099 376.18 294.812 376.359C294.528 376.536 294.302 376.774 294.135 377.075C293.97 377.374 293.887 377.705 293.887 378.068C293.887 378.432 293.967 378.763 294.126 379.061C294.288 379.357 294.508 379.592 294.787 379.768C295.068 379.942 295.387 380.028 295.745 380.028C296.015 380.028 296.267 379.976 296.5 379.871C296.733 379.763 296.936 379.616 297.109 379.432C297.285 379.244 297.423 379.033 297.522 378.797C297.622 378.558 297.672 378.31 297.672 378.051C297.672 377.71 297.589 377.391 297.424 377.092C297.262 376.794 297.038 376.553 296.751 376.368C296.467 376.183 296.143 376.091 295.779 376.091Z" fill="#6C8180"/>
<path d="M323.38 375.273V384H322.323V376.381H322.272L320.141 377.795V376.722L322.323 375.273H323.38ZM328.736 384.119C328.094 384.119 327.547 383.945 327.096 383.595C326.644 383.243 326.299 382.733 326.06 382.065C325.822 381.395 325.702 380.585 325.702 379.636C325.702 378.693 325.822 377.888 326.06 377.22C326.302 376.55 326.648 376.038 327.1 375.686C327.555 375.331 328.1 375.153 328.736 375.153C329.373 375.153 329.917 375.331 330.368 375.686C330.823 376.038 331.17 376.55 331.408 377.22C331.65 377.888 331.77 378.693 331.77 379.636C331.77 380.585 331.651 381.395 331.412 382.065C331.174 382.733 330.829 383.243 330.377 383.595C329.925 383.945 329.378 384.119 328.736 384.119ZM328.736 383.182C329.373 383.182 329.867 382.875 330.219 382.261C330.572 381.648 330.748 380.773 330.748 379.636C330.748 378.881 330.667 378.237 330.505 377.706C330.346 377.175 330.116 376.77 329.814 376.491C329.516 376.213 329.157 376.074 328.736 376.074C328.106 376.074 327.613 376.385 327.258 377.007C326.903 377.626 326.725 378.503 326.725 379.636C326.725 380.392 326.805 381.034 326.964 381.562C327.123 382.091 327.351 382.493 327.65 382.768C327.951 383.044 328.313 383.182 328.736 383.182Z" fill="#6C8180"/>
<path d="M354.446 375.273V384H353.389V376.381H353.338L351.208 377.795V376.722L353.389 375.273H354.446ZM360.024 375.273V384H358.968V376.381H358.916L356.786 377.795V376.722L358.968 375.273H360.024Z" fill="#6C8180"/>
<path d="M383.708 375.273V384H382.651V376.381H382.6L380.469 377.795V376.722L382.651 375.273H383.708ZM386.218 384V383.233L389.099 380.08C389.437 379.71 389.715 379.389 389.934 379.116C390.153 378.841 390.314 378.582 390.42 378.341C390.528 378.097 390.581 377.841 390.581 377.574C390.581 377.267 390.508 377.001 390.36 376.777C390.215 376.553 390.016 376.379 389.763 376.257C389.51 376.135 389.226 376.074 388.911 376.074C388.576 376.074 388.283 376.143 388.033 376.283C387.786 376.419 387.594 376.611 387.458 376.858C387.324 377.105 387.258 377.395 387.258 377.727H386.252C386.252 377.216 386.37 376.767 386.606 376.381C386.841 375.994 387.162 375.693 387.569 375.477C387.978 375.261 388.437 375.153 388.945 375.153C389.456 375.153 389.91 375.261 390.305 375.477C390.699 375.693 391.009 375.984 391.233 376.351C391.458 376.717 391.57 377.125 391.57 377.574C391.57 377.895 391.512 378.209 391.395 378.516C391.282 378.82 391.083 379.159 390.799 379.534C390.518 379.906 390.127 380.361 389.627 380.898L387.667 382.994V383.062H391.724V384H386.218Z" fill="#6C8180"/>
<path d="M413.626 375.273V384H412.569V376.381H412.518L410.387 377.795V376.722L412.569 375.273H413.626ZM419.085 384.119C418.522 384.119 418.021 384.023 417.58 383.83C417.143 383.636 416.795 383.368 416.536 383.024C416.281 382.678 416.142 382.276 416.119 381.818H417.193C417.215 382.099 417.312 382.342 417.482 382.547C417.653 382.749 417.876 382.905 418.151 383.016C418.427 383.126 418.732 383.182 419.068 383.182C419.443 383.182 419.775 383.116 420.065 382.986C420.355 382.855 420.582 382.673 420.747 382.44C420.911 382.207 420.994 381.938 420.994 381.631C420.994 381.31 420.914 381.027 420.755 380.783C420.596 380.536 420.363 380.342 420.056 380.203C419.749 380.064 419.374 379.994 418.931 379.994H418.232V379.057H418.931C419.278 379.057 419.582 378.994 419.843 378.869C420.107 378.744 420.313 378.568 420.461 378.341C420.612 378.114 420.687 377.847 420.687 377.54C420.687 377.244 420.622 376.987 420.491 376.768C420.36 376.55 420.176 376.379 419.937 376.257C419.701 376.135 419.423 376.074 419.102 376.074C418.801 376.074 418.517 376.129 418.249 376.24C417.985 376.348 417.769 376.506 417.602 376.713C417.434 376.918 417.343 377.165 417.329 377.455H416.306C416.323 376.997 416.461 376.597 416.72 376.253C416.978 375.906 417.316 375.636 417.734 375.443C418.154 375.25 418.616 375.153 419.119 375.153C419.659 375.153 420.122 375.263 420.508 375.482C420.894 375.697 421.191 375.983 421.399 376.338C421.606 376.693 421.71 377.077 421.71 377.489C421.71 377.98 421.58 378.399 421.322 378.746C421.066 379.092 420.718 379.332 420.278 379.466V379.534C420.829 379.625 421.259 379.859 421.569 380.237C421.879 380.612 422.034 381.077 422.034 381.631C422.034 382.105 421.904 382.531 421.646 382.909C421.39 383.284 421.041 383.58 420.597 383.795C420.154 384.011 419.65 384.119 419.085 384.119Z" fill="#6C8180"/>
<path d="M443.702 375.273V384H442.645V376.381H442.594L440.463 377.795V376.722L442.645 375.273H443.702ZM446.007 382.21V381.341L449.843 375.273H450.473V376.619H450.047L447.15 381.205V381.273H452.314V382.21H446.007ZM450.115 384V381.946V381.541V375.273H451.121V384H450.115Z" fill="#6C8180"/>
<path d="M474.005 375.273V384H472.948V376.381H472.897L470.766 377.795V376.722L472.948 375.273H474.005ZM479.242 384.119C478.742 384.119 478.292 384.02 477.891 383.821C477.491 383.622 477.17 383.349 476.928 383.003C476.687 382.656 476.555 382.261 476.532 381.818H477.555C477.594 382.213 477.773 382.54 478.091 382.798C478.412 383.054 478.796 383.182 479.242 383.182C479.6 383.182 479.918 383.098 480.197 382.93C480.478 382.763 480.698 382.533 480.857 382.24C481.019 381.945 481.1 381.611 481.1 381.239C481.1 380.858 481.016 380.518 480.849 380.22C480.684 379.919 480.456 379.682 480.167 379.509C479.877 379.335 479.546 379.247 479.174 379.244C478.907 379.241 478.633 379.283 478.351 379.368C478.07 379.45 477.839 379.557 477.657 379.688L476.668 379.568L477.197 375.273H481.731V376.21H478.083L477.776 378.784H477.827C478.006 378.642 478.231 378.524 478.501 378.43C478.77 378.337 479.052 378.29 479.344 378.29C479.878 378.29 480.354 378.418 480.772 378.673C481.192 378.926 481.522 379.273 481.76 379.713C482.002 380.153 482.123 380.656 482.123 381.222C482.123 381.778 481.998 382.276 481.748 382.713C481.501 383.148 481.16 383.491 480.725 383.744C480.29 383.994 479.796 384.119 479.242 384.119Z" fill="#6C8180"/>
<path d="M504.017 375.273V384H502.96V376.381H502.909L500.778 377.795V376.722L502.96 375.273H504.017ZM509.424 384.119C509.066 384.114 508.708 384.045 508.35 383.915C507.992 383.784 507.666 383.564 507.37 383.254C507.075 382.942 506.838 382.52 506.659 381.989C506.48 381.455 506.39 380.784 506.39 379.977C506.39 379.205 506.463 378.52 506.607 377.923C506.752 377.324 506.963 376.82 507.238 376.411C507.514 375.999 507.846 375.686 508.235 375.473C508.627 375.26 509.069 375.153 509.561 375.153C510.049 375.153 510.484 375.251 510.865 375.447C511.248 375.641 511.561 375.911 511.802 376.257C512.044 376.604 512.2 377.003 512.271 377.455H511.231C511.134 377.062 510.947 376.737 510.669 376.479C510.39 376.22 510.021 376.091 509.561 376.091C508.884 376.091 508.352 376.385 507.963 376.973C507.576 377.561 507.382 378.386 507.379 379.449H507.447C507.606 379.207 507.795 379.001 508.014 378.831C508.235 378.658 508.48 378.524 508.747 378.43C509.014 378.337 509.296 378.29 509.595 378.29C510.095 378.29 510.552 378.415 510.967 378.665C511.382 378.912 511.714 379.254 511.964 379.692C512.214 380.126 512.339 380.625 512.339 381.188C512.339 381.727 512.218 382.222 511.977 382.67C511.735 383.116 511.396 383.472 510.958 383.736C510.524 383.997 510.012 384.125 509.424 384.119ZM509.424 383.182C509.782 383.182 510.103 383.092 510.387 382.913C510.674 382.734 510.9 382.494 511.065 382.193C511.232 381.892 511.316 381.557 511.316 381.188C511.316 380.827 511.235 380.499 511.073 380.203C510.914 379.905 510.694 379.668 510.413 379.491C510.134 379.315 509.816 379.227 509.458 379.227C509.188 379.227 508.937 379.281 508.704 379.389C508.471 379.494 508.267 379.639 508.09 379.824C507.917 380.009 507.781 380.22 507.681 380.459C507.582 380.695 507.532 380.943 507.532 381.205C507.532 381.551 507.613 381.875 507.775 382.176C507.94 382.477 508.164 382.72 508.448 382.905C508.735 383.089 509.061 383.182 509.424 383.182Z" fill="#6C8180"/>
<path d="M534.438 375.273V384H533.382V376.381H533.33L531.2 377.795V376.722L533.382 375.273H534.438ZM537.221 384L541.124 376.278V376.21H536.624V375.273H542.215V376.261L538.329 384H537.221Z" fill="#6C8180"/>
<path d="M564.274 375.273V384H563.218V376.381H563.166L561.036 377.795V376.722L563.218 375.273H564.274ZM569.58 384.119C568.994 384.119 568.477 384.016 568.029 383.808C567.583 383.598 567.235 383.31 566.985 382.943C566.735 382.574 566.611 382.153 566.614 381.682C566.611 381.312 566.683 380.972 566.831 380.659C566.979 380.344 567.181 380.081 567.436 379.871C567.695 379.658 567.983 379.523 568.301 379.466V379.415C567.884 379.307 567.551 379.072 567.304 378.712C567.057 378.348 566.935 377.935 566.938 377.472C566.935 377.028 567.047 376.632 567.274 376.283C567.502 375.933 567.814 375.658 568.212 375.456C568.612 375.254 569.068 375.153 569.58 375.153C570.085 375.153 570.537 375.254 570.935 375.456C571.333 375.658 571.645 375.933 571.872 376.283C572.102 376.632 572.219 377.028 572.222 377.472C572.219 377.935 572.093 378.348 571.843 378.712C571.595 379.072 571.267 379.307 570.858 379.415V379.466C571.173 379.523 571.458 379.658 571.71 379.871C571.963 380.081 572.165 380.344 572.316 380.659C572.466 380.972 572.543 381.312 572.546 381.682C572.543 382.153 572.415 382.574 572.162 382.943C571.912 383.31 571.564 383.598 571.118 383.808C570.675 384.016 570.162 384.119 569.58 384.119ZM569.58 383.182C569.975 383.182 570.316 383.118 570.602 382.99C570.889 382.862 571.111 382.682 571.267 382.449C571.423 382.216 571.503 381.943 571.506 381.631C571.503 381.301 571.418 381.01 571.25 380.757C571.083 380.504 570.854 380.305 570.564 380.161C570.277 380.016 569.949 379.943 569.58 379.943C569.208 379.943 568.875 380.016 568.583 380.161C568.293 380.305 568.064 380.504 567.896 380.757C567.732 381.01 567.651 381.301 567.654 381.631C567.651 381.943 567.726 382.216 567.879 382.449C568.036 382.682 568.259 382.862 568.548 382.99C568.838 383.118 569.182 383.182 569.58 383.182ZM569.58 379.04C569.892 379.04 570.169 378.977 570.411 378.852C570.655 378.727 570.847 378.553 570.986 378.328C571.125 378.104 571.196 377.841 571.199 377.54C571.196 377.244 571.127 376.987 570.99 376.768C570.854 376.547 570.665 376.376 570.423 376.257C570.182 376.135 569.901 376.074 569.58 376.074C569.253 376.074 568.968 376.135 568.723 376.257C568.479 376.376 568.29 376.547 568.156 376.768C568.023 376.987 567.958 377.244 567.96 377.54C567.958 377.841 568.024 378.104 568.161 378.328C568.3 378.553 568.492 378.727 568.736 378.852C568.98 378.977 569.262 379.04 569.58 379.04Z" fill="#6C8180"/>
<path d="M594.333 375.273V384H593.276V376.381H593.225L591.094 377.795V376.722L593.276 375.273H594.333ZM599.621 375.153C599.979 375.156 600.337 375.224 600.695 375.358C601.053 375.491 601.38 375.713 601.675 376.023C601.971 376.33 602.208 376.749 602.387 377.28C602.566 377.811 602.655 378.477 602.655 379.278C602.655 380.054 602.581 380.743 602.434 381.345C602.289 381.945 602.079 382.45 601.803 382.862C601.53 383.274 601.198 383.587 600.806 383.8C600.417 384.013 599.976 384.119 599.485 384.119C598.996 384.119 598.56 384.023 598.177 383.83C597.796 383.634 597.483 383.362 597.239 383.016C596.998 382.666 596.843 382.261 596.775 381.801H597.814C597.908 382.202 598.094 382.533 598.373 382.794C598.654 383.053 599.025 383.182 599.485 383.182C600.158 383.182 600.689 382.888 601.079 382.3C601.471 381.712 601.667 380.881 601.667 379.807H601.599C601.439 380.045 601.251 380.251 601.032 380.425C600.813 380.598 600.57 380.732 600.303 380.825C600.036 380.919 599.752 380.966 599.451 380.966C598.951 380.966 598.492 380.842 598.074 380.595C597.66 380.345 597.327 380.003 597.077 379.568C596.83 379.131 596.706 378.631 596.706 378.068C596.706 377.534 596.826 377.045 597.064 376.602C597.306 376.156 597.644 375.801 598.079 375.537C598.516 375.273 599.03 375.145 599.621 375.153ZM599.621 376.091C599.263 376.091 598.941 376.18 598.654 376.359C598.37 376.536 598.144 376.774 597.976 377.075C597.812 377.374 597.729 377.705 597.729 378.068C597.729 378.432 597.809 378.763 597.968 379.061C598.13 379.357 598.35 379.592 598.628 379.768C598.91 379.942 599.229 380.028 599.587 380.028C599.857 380.028 600.108 379.976 600.341 379.871C600.574 379.763 600.778 379.616 600.951 379.432C601.127 379.244 601.265 379.033 601.364 378.797C601.464 378.558 601.513 378.31 601.513 378.051C601.513 377.71 601.431 377.391 601.266 377.092C601.104 376.794 600.88 376.553 600.593 376.368C600.309 376.183 599.985 376.091 599.621 376.091Z" fill="#6C8180"/>
<path d="M620.521 384V383.233L623.401 380.08C623.739 379.71 624.018 379.389 624.237 379.116C624.455 378.841 624.617 378.582 624.722 378.341C624.83 378.097 624.884 377.841 624.884 377.574C624.884 377.267 624.81 377.001 624.663 376.777C624.518 376.553 624.319 376.379 624.066 376.257C623.813 376.135 623.529 376.074 623.214 376.074C622.879 376.074 622.586 376.143 622.336 376.283C622.089 376.419 621.897 376.611 621.761 376.858C621.627 377.105 621.56 377.395 621.56 377.727H620.555C620.555 377.216 620.673 376.767 620.908 376.381C621.144 375.994 621.465 375.693 621.871 375.477C622.281 375.261 622.739 375.153 623.248 375.153C623.759 375.153 624.212 375.261 624.607 375.477C625.002 375.693 625.312 375.984 625.536 376.351C625.761 376.717 625.873 377.125 625.873 377.574C625.873 377.895 625.815 378.209 625.698 378.516C625.585 378.82 625.386 379.159 625.102 379.534C624.82 379.906 624.43 380.361 623.93 380.898L621.969 382.994V383.062H626.026V384H620.521ZM630.633 384.119C629.991 384.119 629.444 383.945 628.992 383.595C628.54 383.243 628.195 382.733 627.957 382.065C627.718 381.395 627.599 380.585 627.599 379.636C627.599 378.693 627.718 377.888 627.957 377.22C628.198 376.55 628.545 376.038 628.996 375.686C629.451 375.331 629.996 375.153 630.633 375.153C631.269 375.153 631.813 375.331 632.265 375.686C632.719 376.038 633.066 376.55 633.305 377.22C633.546 377.888 633.667 378.693 633.667 379.636C633.667 380.585 633.548 381.395 633.309 382.065C633.07 382.733 632.725 383.243 632.273 383.595C631.822 383.945 631.275 384.119 630.633 384.119ZM630.633 383.182C631.269 383.182 631.763 382.875 632.116 382.261C632.468 381.648 632.644 380.773 632.644 379.636C632.644 378.881 632.563 378.237 632.401 377.706C632.242 377.175 632.012 376.77 631.711 376.491C631.413 376.213 631.053 376.074 630.633 376.074C630.002 376.074 629.509 376.385 629.154 377.007C628.799 377.626 628.621 378.503 628.621 379.636C628.621 380.392 628.701 381.034 628.86 381.562C629.019 382.091 629.248 382.493 629.546 382.768C629.847 383.044 630.21 383.182 630.633 383.182Z" fill="#6C8180"/>
</svg>
