<svg width="14" height="22" viewBox="0 0 14 22" fill="none" xmlns="http://www.w3.org/2000/svg">
<path fill-rule="evenodd" clip-rule="evenodd" d="M5.42337 2.15631C6.48354 1.09597 7.92149 0.500177 9.42091 0.5H12.3286C12.5428 0.5 12.7483 0.585096 12.8997 0.736568C13.0512 0.888039 13.1363 1.09348 13.1363 1.30769V5.18462C13.1363 5.39883 13.0512 5.60427 12.8997 5.75574C12.7483 5.90721 12.5428 5.99231 12.3286 5.99231H9.42091C9.3997 5.99231 9.37869 5.99649 9.35909 6.0046C9.3395 6.01272 9.32169 6.02462 9.30669 6.03962C9.29169 6.05462 9.27979 6.07243 9.27167 6.09203C9.26355 6.11163 9.25937 6.13263 9.25937 6.15385V8.25385H12.3286C12.4514 8.25378 12.5726 8.28171 12.683 8.33551C12.7933 8.38931 12.89 8.46757 12.9656 8.56434C13.0412 8.66111 13.0937 8.77384 13.1192 8.89396C13.1446 9.01407 13.1424 9.13842 13.1126 9.25754L12.1434 13.1345C12.0997 13.3093 11.9987 13.4644 11.8567 13.5753C11.7146 13.6861 11.5396 13.7463 11.3594 13.7462H9.25937V20.6923C9.25937 20.9065 9.17428 21.112 9.02281 21.2634C8.87134 21.4149 8.6659 21.5 8.45168 21.5H4.57476C4.36055 21.5 4.15511 21.4149 4.00363 21.2634C3.85216 21.112 3.76707 20.9065 3.76707 20.6923V13.7462H1.66707C1.45285 13.7462 1.24741 13.6611 1.09594 13.5096C0.944471 13.3581 0.859375 13.1527 0.859375 12.9385V9.06154C0.859375 8.95547 0.880267 8.85044 0.920857 8.75245C0.961447 8.65446 1.02094 8.56542 1.09594 8.49041C1.17094 8.41541 1.25998 8.35592 1.35798 8.31533C1.45597 8.27474 1.561 8.25385 1.66707 8.25385H3.76707V6.15385C3.76724 4.65442 4.36303 3.21647 5.42337 2.15631ZM9.42091 2.11538C8.34985 2.11538 7.32265 2.54086 6.56529 3.29822C5.80793 4.05558 5.38245 5.08278 5.38245 6.15385V9.06154C5.38245 9.27575 5.29736 9.48119 5.14588 9.63266C4.99441 9.78414 4.78897 9.86923 4.57476 9.86923H2.47476V12.1308H4.57476C4.78897 12.1308 4.99441 12.2159 5.14588 12.3673C5.29736 12.5188 5.38245 12.7242 5.38245 12.9385V19.8846H7.64399V12.9385C7.64399 12.7242 7.72909 12.5188 7.88056 12.3673C8.03203 12.2159 8.23747 12.1308 8.45168 12.1308H10.7283L11.2937 9.86923H8.45168C8.23747 9.86923 8.03203 9.78414 7.88056 9.63266C7.72909 9.48119 7.64399 9.27575 7.64399 9.06154V6.15385C7.64399 5.68258 7.8312 5.23061 8.16444 4.89737C8.49768 4.56413 8.94964 4.37692 9.42091 4.37692H11.5209V2.11538H9.42091Z" fill="white"/>
</svg>
