<svg width="28" height="28" viewBox="0 0 28 28" fill="none" xmlns="http://www.w3.org/2000/svg">
<g clip-path="url(#clip0_2567_27432)">
<path d="M28 14C28 6.26806 21.7319 0 14 0C6.26806 0 0 6.26806 0 14C0 20.9877 5.11963 26.7797 11.8125 27.8299V18.0469H8.25781V14H11.8125V10.9156C11.8125 7.40687 13.9027 5.46875 17.1006 5.46875C18.6322 5.46875 20.2344 5.74219 20.2344 5.74219V9.1875H18.4691C16.7299 9.1875 16.1875 10.2667 16.1875 11.3739V14H20.0703L19.4496 18.0469H16.1875V27.8299C22.8804 26.7797 28 20.9879 28 14Z" fill="white"/>
<path d="M19.4574 18.0469L20.0781 14H16.1953V11.3739C16.1953 10.2666 16.7377 9.1875 18.4769 9.1875H20.2422V5.74219C20.2422 5.74219 18.6401 5.46875 17.1083 5.46875C13.9105 5.46875 11.8203 7.40688 11.8203 10.9156V14H8.26562V18.0469H11.8203V27.8299C12.544 27.9433 13.2753 28.0002 14.0078 28C14.7403 28.0002 15.4717 27.9433 16.1953 27.8299V18.0469H19.4574Z" fill="#2D5551"/>
</g>
<defs>
<clipPath id="clip0_2567_27432">
<rect width="28" height="28" fill="white"/>
</clipPath>
</defs>
</svg>
