<svg width="100" height="100" viewBox="0 0 100 100" fill="none" xmlns="http://www.w3.org/2000/svg">
<g clip-path="url(#clip0_115_28587)">
<path d="M100 50C100 22.3858 77.6142 0 50 0C22.3858 0 0 22.3858 0 50C0 74.9564 18.2843 95.6416 42.1875 99.3924V64.4531H29.4922V50H42.1875V38.9844C42.1875 26.4531 49.6522 19.5312 61.0732 19.5312C66.5437 19.5312 72.2656 20.5078 72.2656 20.5078V32.8125H65.9607C59.7495 32.8125 57.8125 36.6667 57.8125 40.6208V50H71.6797L69.4629 64.4531H57.8125V99.3924C81.7157 95.6416 100 74.9564 100 50Z" fill="#1877F2"/>
<path d="M69.4629 64.4531L71.6797 50H57.8125V40.6208C57.8125 36.6667 59.7495 32.8125 65.9607 32.8125H72.2656V20.5078C72.2656 20.5078 66.5437 19.5312 61.0732 19.5312C49.6522 19.5312 42.1875 26.4531 42.1875 38.9844V50H29.4922V64.4531H42.1875V99.3924C47.3643 100.203 52.6357 100.203 57.8125 99.3924V64.4531H69.4629Z" fill="white"/>
</g>
<defs>
<clipPath id="clip0_115_28587">
<rect width="100" height="100" fill="white"/>
</clipPath>
</defs>
</svg>
