<svg width="19" height="18" viewBox="0 0 19 18" fill="none" xmlns="http://www.w3.org/2000/svg">
<mask id="mask0_867_35753" style="mask-type:alpha" maskUnits="userSpaceOnUse" x="0" y="0" width="19" height="18">
<rect x="0.25" width="18" height="18" fill="#D9D9D9"/>
</mask>
<g mask="url(#mask0_867_35753)">
<path d="M3.25 16.5V8.25H1.75V3.75H5.65C5.5875 3.6375 5.54688 3.51875 5.52812 3.39375C5.50937 3.26875 5.5 3.1375 5.5 3C5.5 2.375 5.71875 1.84375 6.15625 1.40625C6.59375 0.96875 7.125 0.75 7.75 0.75C8.0375 0.75 8.30625 0.803125 8.55625 0.909375C8.80625 1.01562 9.0375 1.1625 9.25 1.35C9.4625 1.15 9.69375 1 9.94375 0.9C10.1938 0.8 10.4625 0.75 10.75 0.75C11.375 0.75 11.9062 0.96875 12.3438 1.40625C12.7812 1.84375 13 2.375 13 3C13 3.1375 12.9875 3.26562 12.9625 3.38438C12.9375 3.50312 12.9 3.625 12.85 3.75H16.75V8.25H15.25V16.5H3.25ZM10.75 2.25C10.5375 2.25 10.3594 2.32188 10.2156 2.46563C10.0719 2.60938 10 2.7875 10 3C10 3.2125 10.0719 3.39062 10.2156 3.53438C10.3594 3.67813 10.5375 3.75 10.75 3.75C10.9625 3.75 11.1406 3.67813 11.2844 3.53438C11.4281 3.39062 11.5 3.2125 11.5 3C11.5 2.7875 11.4281 2.60938 11.2844 2.46563C11.1406 2.32188 10.9625 2.25 10.75 2.25ZM7 3C7 3.2125 7.07188 3.39062 7.21562 3.53438C7.35938 3.67813 7.5375 3.75 7.75 3.75C7.9625 3.75 8.14063 3.67813 8.28438 3.53438C8.42813 3.39062 8.5 3.2125 8.5 3C8.5 2.7875 8.42813 2.60938 8.28438 2.46563C8.14063 2.32188 7.9625 2.25 7.75 2.25C7.5375 2.25 7.35938 2.32188 7.21562 2.46563C7.07188 2.60938 7 2.7875 7 3ZM3.25 5.25V6.75H8.5V5.25H3.25ZM8.5 15V8.25H4.75V15H8.5ZM10 15H13.75V8.25H10V15ZM15.25 6.75V5.25H10V6.75H15.25Z" fill="#111111"/>
</g>
</svg>
