<svg width="24" height="25" viewBox="0 0 24 25" fill="none" xmlns="http://www.w3.org/2000/svg">
<mask id="mask0_6_1091" style="mask-type:alpha" maskUnits="userSpaceOnUse" x="0" y="0" width="24" height="25">
<rect y="0.5" width="24" height="24" fill="#D9D9D9"/>
</mask>
<g mask="url(#mask0_6_1091)">
<path d="M15 20.5C12.7667 20.5 10.875 19.725 9.325 18.175C7.775 16.625 7 14.7333 7 12.5C7 10.2833 7.775 8.39583 9.325 6.8375C10.875 5.27917 12.7667 4.5 15 4.5C17.2167 4.5 19.1042 5.27917 20.6625 6.8375C22.2208 8.39583 23 10.2833 23 12.5C23 14.7333 22.2208 16.625 20.6625 18.175C19.1042 19.725 17.2167 20.5 15 20.5ZM15 18.5C16.6667 18.5 18.0833 17.9167 19.25 16.75C20.4167 15.5833 21 14.1667 21 12.5C21 10.8333 20.4167 9.41667 19.25 8.25C18.0833 7.08333 16.6667 6.5 15 6.5C13.3333 6.5 11.9167 7.08333 10.75 8.25C9.58333 9.41667 9 10.8333 9 12.5C9 14.1667 9.58333 15.5833 10.75 16.75C11.9167 17.9167 13.3333 18.5 15 18.5ZM17.275 16.225L18.7 14.8L16 12.1V8.5H14V12.925L17.275 16.225ZM2 9.5V7.5H6V9.5H2ZM1 13.5V11.5H6V13.5H1ZM2 17.5V15.5H6V17.5H2Z" fill="#2D5551"/>
</g>
</svg>
