<svg width="24" height="25" viewBox="0 0 24 25" fill="none" xmlns="http://www.w3.org/2000/svg">
<mask id="mask0_6_1077" style="mask-type:alpha" maskUnits="userSpaceOnUse" x="0" y="0" width="24" height="25">
<rect y="0.5" width="24" height="24" fill="#D9D9D9"/>
</mask>
<g mask="url(#mask0_6_1077)">
<path d="M17 22.5L16.7 21C16.5 20.9167 16.3125 20.8292 16.1375 20.7375C15.9625 20.6458 15.7833 20.5333 15.6 20.4L14.15 20.85L13.15 19.15L14.3 18.15C14.2667 17.95 14.25 17.7333 14.25 17.5C14.25 17.2667 14.2667 17.05 14.3 16.85L13.15 15.85L14.15 14.15L15.6 14.6C15.7833 14.4667 15.9625 14.3542 16.1375 14.2625C16.3125 14.1708 16.5 14.0833 16.7 14L17 12.5H19L19.3 14C19.5 14.0833 19.6875 14.1708 19.8625 14.2625C20.0375 14.3542 20.2167 14.4667 20.4 14.6L21.85 14.15L22.85 15.85L21.7 16.85C21.7333 17.05 21.75 17.2667 21.75 17.5C21.75 17.7333 21.7333 17.95 21.7 18.15L22.85 19.15L21.85 20.85L20.4 20.4C20.2167 20.5333 20.0375 20.6458 19.8625 20.7375C19.6875 20.8292 19.5 20.9167 19.3 21L19 22.5H17ZM18 19.5C18.55 19.5 19.0208 19.3042 19.4125 18.9125C19.8042 18.5208 20 18.05 20 17.5C20 16.95 19.8042 16.4792 19.4125 16.0875C19.0208 15.6958 18.55 15.5 18 15.5C17.45 15.5 16.9792 15.6958 16.5875 16.0875C16.1958 16.4792 16 16.95 16 17.5C16 18.05 16.1958 18.5208 16.5875 18.9125C16.9792 19.3042 17.45 19.5 18 19.5ZM4 18.5V6.5V10.8V10.5V18.5ZM4 20.5C3.45 20.5 2.97917 20.3042 2.5875 19.9125C2.19583 19.5208 2 19.05 2 18.5V6.5C2 5.95 2.19583 5.47917 2.5875 5.0875C2.97917 4.69583 3.45 4.5 4 4.5H10L12 6.5H20C20.55 6.5 21.0208 6.69583 21.4125 7.0875C21.8042 7.47917 22 7.95 22 8.5V11.775C21.7 11.5583 21.3833 11.3708 21.05 11.2125C20.7167 11.0542 20.3667 10.9167 20 10.8V8.5H11.175L9.175 6.5H4V18.5H11.075C11.125 18.85 11.2042 19.1917 11.3125 19.525C11.4208 19.8583 11.55 20.1833 11.7 20.5H4Z" fill="#2D5551"/>
</g>
</svg>
