<svg width="42" height="43" viewBox="0 0 42 43" fill="none" xmlns="http://www.w3.org/2000/svg">
<rect y="0.5" width="42" height="42" rx="21" fill="#2D5551"/>
<path d="M23.7294 23.0241V20.3691H30.9989V24.3937C30.9989 27.3436 27.8804 29.3454 24.1086 29.3454C19.5152 29.3454 16.207 26.5429 16.207 21.4227C16.207 16.3024 19.5152 13.5 24.1086 13.5C27.7539 13.5 30.0296 15.1857 30.9567 17.4613L27.4168 18.3885C27.0164 17.6931 26.1315 16.5764 24.1086 16.5764C21.7276 16.5764 20.0841 18.4095 20.0841 21.4227C20.0841 24.4358 21.7276 26.269 24.1086 26.269C25.8154 26.269 27.1218 25.384 27.1218 24.4358V23.0241H23.7294Z" fill="#FFF6E0"/>
<path d="M11 29.3352V14.1641H14.8771V29.3352H11Z" fill="#FFF6E0"/>
</svg>
