<svg width="16" height="16" viewBox="0 0 16 16" fill="none" xmlns="http://www.w3.org/2000/svg">
<path d="M8 5.80273C7.51459 5.80273 7.12109 5.40923 7.12109 4.92383C7.12109 4.43842 7.51459 4.04492 8 4.04492C8.48541 4.04492 8.87891 4.43842 8.87891 4.92383C8.87891 5.40923 8.48541 5.80273 8 5.80273ZM8 11.5156C7.51459 11.5156 7.12109 11.1221 7.12109 10.6367V7.56055C7.12109 7.07514 7.51459 6.68164 8 6.68164C8.48541 6.68164 8.87891 7.07514 8.87891 7.56055V10.6367C8.87891 11.1221 8.48541 11.5156 8 11.5156Z" fill="#6C8180"/>
<path fill-rule="evenodd" clip-rule="evenodd" d="M8 13.9766C11.3008 13.9766 13.9766 11.3008 13.9766 8C13.9766 4.69924 11.3008 2.02344 8 2.02344C4.69924 2.02344 2.02344 4.69924 2.02344 8C2.02344 11.3008 4.69924 13.9766 8 13.9766ZM8 15.0312C11.8833 15.0312 15.0312 11.8833 15.0312 8C15.0312 4.11675 11.8833 0.96875 8 0.96875C4.11675 0.96875 0.96875 4.11675 0.96875 8C0.96875 11.8833 4.11675 15.0312 8 15.0312Z" fill="#6C8180"/>
</svg>
