<svg width="28" height="28" viewBox="0 0 28 28" fill="none" xmlns="http://www.w3.org/2000/svg">
<g clip-path="url(#clip0_2567_27423)">
<path d="M21.4375 0H6.5625C2.93813 0 0 2.93813 0 6.5625V21.4375C0 25.0619 2.93813 28 6.5625 28H21.4375C25.0619 28 28 25.0619 28 21.4375V6.5625C28 2.93813 25.0619 0 21.4375 0Z" fill="url(#paint0_radial_2567_27423)"/>
<path d="M21.4375 0H6.5625C2.93813 0 0 2.93813 0 6.5625V21.4375C0 25.0619 2.93813 28 6.5625 28H21.4375C25.0619 28 28 25.0619 28 21.4375V6.5625C28 2.93813 25.0619 0 21.4375 0Z" fill="white"/>
<path d="M14.0021 4.66895C11.4674 4.66895 11.1492 4.68005 10.1537 4.72532C9.1601 4.77086 8.48185 4.92813 7.88844 5.15894C7.27449 5.39731 6.75378 5.71623 6.23504 6.23516C5.71582 6.75399 5.3969 7.27469 5.15778 7.88835C4.92632 8.48195 4.76886 9.16047 4.72416 10.1536C4.67964 11.1492 4.66797 11.4675 4.66797 14.0023C4.66797 16.5371 4.67917 16.8542 4.72434 17.8497C4.77008 18.8433 4.92734 19.5216 5.15797 20.115C5.39653 20.7289 5.71545 21.2496 6.23438 21.7684C6.75304 22.2876 7.27374 22.6072 7.88722 22.8456C8.4811 23.0764 9.15945 23.2337 10.1529 23.2792C11.1485 23.3245 11.4664 23.3356 14.001 23.3356C16.536 23.3356 16.8532 23.3245 17.8487 23.2792C18.8423 23.2337 19.5213 23.0764 20.1152 22.8456C20.7289 22.6072 21.2488 22.2876 21.7674 21.7684C22.2866 21.2496 22.6054 20.7289 22.8446 20.1153C23.074 19.5216 23.2316 18.8431 23.2783 17.8499C23.323 16.8544 23.3346 16.5371 23.3346 14.0023C23.3346 11.4675 23.323 11.1494 23.2783 10.1538C23.2316 9.16019 23.074 8.48204 22.8446 7.88863C22.6054 7.27469 22.2866 6.75399 21.7674 6.23516C21.2483 5.71604 20.729 5.39712 20.1146 5.15903C19.5196 4.92813 18.841 4.77077 17.8474 4.72532C16.8518 4.68005 16.5348 4.66895 13.9992 4.66895H14.0021ZM13.1648 6.35089C13.4134 6.35052 13.6907 6.35089 14.0021 6.35089C16.4942 6.35089 16.7895 6.35985 17.7736 6.40455C18.6836 6.44618 19.1776 6.59822 19.5066 6.72599C19.9422 6.89511 20.2527 7.09736 20.5792 7.42412C20.9058 7.75078 21.108 8.06186 21.2776 8.49744C21.4053 8.82597 21.5576 9.31989 21.599 10.2299C21.6437 11.2138 21.6534 11.5093 21.6534 14.0001C21.6534 16.491 21.6437 16.7866 21.599 17.7704C21.5574 18.6804 21.4053 19.1743 21.2776 19.5029C21.1084 19.9385 20.9058 20.2486 20.5792 20.5751C20.2525 20.9018 19.9423 21.1039 19.5066 21.2732C19.1779 21.4015 18.6836 21.5532 17.7736 21.5948C16.7897 21.6395 16.4942 21.6492 14.0021 21.6492C11.51 21.6492 11.2146 21.6395 10.2307 21.5948C9.32073 21.5528 8.82681 21.4007 8.49753 21.273C8.06204 21.1038 7.75086 20.9016 7.4242 20.5749C7.09753 20.2483 6.89537 19.9379 6.72578 19.5022C6.59801 19.1735 6.44578 18.6796 6.40434 17.7696C6.35964 16.7857 6.35068 16.4902 6.35068 13.9978C6.35068 11.5055 6.35964 11.2115 6.40434 10.2275C6.44597 9.31755 6.59801 8.82364 6.72578 8.49464C6.895 8.05906 7.09753 7.74798 7.42429 7.42132C7.75096 7.09465 8.06204 6.8924 8.49762 6.72291C8.82662 6.59458 9.32073 6.44291 10.2307 6.4011C11.0917 6.36218 11.4254 6.35051 13.1648 6.34855V6.35089ZM18.9843 7.90058C18.3659 7.90058 17.8643 8.40177 17.8643 9.0202C17.8643 9.63852 18.3659 10.1402 18.9843 10.1402C19.6026 10.1402 20.1043 9.63852 20.1043 9.0202C20.1043 8.40187 19.6026 7.90021 18.9843 7.90021V7.90058ZM14.0021 9.20919C11.3552 9.20919 9.2091 11.3553 9.2091 14.0023C9.2091 16.6493 11.3552 18.7943 14.0021 18.7943C16.6492 18.7943 18.7945 16.6493 18.7945 14.0023C18.7945 11.3554 16.649 9.20919 14.002 9.20919H14.0021ZM14.0021 10.8911C15.7203 10.8911 17.1133 12.2839 17.1133 14.0023C17.1133 15.7204 15.7203 17.1134 14.0021 17.1134C12.2839 17.1134 10.8911 15.7204 10.8911 14.0023C10.8911 12.2839 12.2839 10.8911 14.0021 10.8911Z" fill="#2D5551"/>
</g>
<defs>
<radialGradient id="paint0_radial_2567_27423" cx="0" cy="0" r="1" gradientUnits="userSpaceOnUse" gradientTransform="translate(7.4375 30.1565) rotate(-90) scale(27.7501 25.8098)">
<stop stop-color="#FFDD55"/>
<stop offset="0.1" stop-color="#FFDD55"/>
<stop offset="0.5" stop-color="#FF543E"/>
<stop offset="1" stop-color="#C837AB"/>
</radialGradient>
<clipPath id="clip0_2567_27423">
<rect width="28" height="28" rx="14" fill="white"/>
</clipPath>
</defs>
</svg>
