<svg width="100" height="100" viewBox="0 0 100 100" fill="none" xmlns="http://www.w3.org/2000/svg">
<g clip-path="url(#clip0_115_28544)">
<mask id="mask0_115_28544" style="mask-type:luminance" maskUnits="userSpaceOnUse" x="0" y="0" width="100" height="100">
<path d="M50 100C77.6142 100 100 77.6142 100 50C100 22.3858 77.6142 0 50 0C22.3858 0 0 22.3858 0 50C0 77.6142 22.3858 100 50 100Z" fill="white"/>
</mask>
<g mask="url(#mask0_115_28544)">
<path d="M21.4844 202.344C80.8118 202.344 128.906 154.249 128.906 94.9219C128.906 35.5944 80.8118 -12.5 21.4844 -12.5C-37.8431 -12.5 -85.9375 35.5944 -85.9375 94.9219C-85.9375 154.249 -37.8431 202.344 21.4844 202.344Z" fill="url(#paint0_radial_115_28544)"/>
</g>
<path d="M64.0625 39.8438C66.2199 39.8438 67.9688 38.0949 67.9688 35.9375C67.9688 33.7801 66.2199 32.0312 64.0625 32.0312C61.9051 32.0312 60.1562 33.7801 60.1562 35.9375C60.1562 38.0949 61.9051 39.8438 64.0625 39.8438Z" fill="white"/>
<path d="M50 37.5C47.5277 37.5 45.111 38.2331 43.0554 39.6066C40.9998 40.9801 39.3976 42.9324 38.4515 45.2165C37.5054 47.5005 37.2579 50.0139 37.7402 52.4386C38.2225 54.8634 39.413 57.0907 41.1612 58.8388C42.9093 60.587 45.1366 61.7775 47.5614 62.2598C49.9861 62.7421 52.4995 62.4946 54.7835 61.5485C57.0676 60.6024 59.0199 59.0002 60.3934 56.9446C61.7669 54.889 62.5 52.4723 62.5 50C62.5 46.6848 61.183 43.5054 58.8388 41.1612C56.4946 38.817 53.3152 37.5 50 37.5ZM50 56.25C48.7639 56.25 47.5555 55.8834 46.5277 55.1967C45.4999 54.5099 44.6988 53.5338 44.2258 52.3918C43.7527 51.2497 43.6289 49.9931 43.8701 48.7807C44.1113 47.5683 44.7065 46.4547 45.5806 45.5806C46.4547 44.7065 47.5683 44.1112 48.7807 43.8701C49.9931 43.6289 51.2497 43.7527 52.3918 44.2258C53.5338 44.6988 54.5099 45.4999 55.1967 46.5277C55.8835 47.5555 56.25 48.7639 56.25 50C56.25 51.6576 55.5915 53.2473 54.4194 54.4194C53.2473 55.5915 51.6576 56.25 50 56.25Z" fill="white"/>
<path d="M65.625 25H34.375C29.1973 25 25 29.1973 25 34.375V65.625C25 70.8027 29.1973 75 34.375 75H65.625C70.8027 75 75 70.8027 75 65.625V34.375C75 29.1973 70.8027 25 65.625 25Z" stroke="white" stroke-width="8" stroke-miterlimit="10"/>
</g>
<defs>
<radialGradient id="paint0_radial_115_28544" cx="0" cy="0" r="1" gradientUnits="userSpaceOnUse" gradientTransform="translate(21.4844 94.9219) scale(107.422)">
<stop stop-color="#FFD676"/>
<stop offset="0.25" stop-color="#F2A454"/>
<stop offset="0.38" stop-color="#F05C3C"/>
<stop offset="0.7" stop-color="#C22F86"/>
<stop offset="0.96" stop-color="#6666AD"/>
<stop offset="0.99" stop-color="#5C6CB2"/>
</radialGradient>
<clipPath id="clip0_115_28544">
<rect width="100" height="100" fill="white"/>
</clipPath>
</defs>
</svg>
