<svg width="22" height="22" viewBox="0 0 22 22" fill="none" xmlns="http://www.w3.org/2000/svg">
<path d="M6.59 0.5H15.41C18.77 0.5 21.5 3.23 21.5 6.59V15.41C21.5 17.0252 20.8584 18.5742 19.7163 19.7163C18.5742 20.8584 17.0252 21.5 15.41 21.5H6.59C3.23 21.5 0.5 18.77 0.5 15.41V6.59C0.5 4.97483 1.14162 3.42582 2.28372 2.28372C3.42582 1.14162 4.97483 0.5 6.59 0.5ZM6.38 2.6C5.37748 2.6 4.41602 2.99825 3.70714 3.70714C2.99825 4.41602 2.6 5.37748 2.6 6.38V15.62C2.6 17.7095 4.2905 19.4 6.38 19.4H15.62C16.6225 19.4 17.584 19.0018 18.2929 18.2929C19.0018 17.584 19.4 16.6225 19.4 15.62V6.38C19.4 4.2905 17.7095 2.6 15.62 2.6H6.38ZM16.5125 4.175C16.8606 4.175 17.1944 4.31328 17.4406 4.55942C17.6867 4.80556 17.825 5.1394 17.825 5.4875C17.825 5.8356 17.6867 6.16944 17.4406 6.41558C17.1944 6.66172 16.8606 6.8 16.5125 6.8C16.1644 6.8 15.8306 6.66172 15.5844 6.41558C15.3383 6.16944 15.2 5.8356 15.2 5.4875C15.2 5.1394 15.3383 4.80556 15.5844 4.55942C15.8306 4.31328 16.1644 4.175 16.5125 4.175ZM11 5.75C12.3924 5.75 13.7277 6.30312 14.7123 7.28769C15.6969 8.27225 16.25 9.60761 16.25 11C16.25 12.3924 15.6969 13.7277 14.7123 14.7123C13.7277 15.6969 12.3924 16.25 11 16.25C9.60761 16.25 8.27225 15.6969 7.28769 14.7123C6.30312 13.7277 5.75 12.3924 5.75 11C5.75 9.60761 6.30312 8.27225 7.28769 7.28769C8.27225 6.30312 9.60761 5.75 11 5.75ZM11 7.85C10.1646 7.85 9.36335 8.18187 8.77261 8.77261C8.18187 9.36335 7.85 10.1646 7.85 11C7.85 11.8354 8.18187 12.6366 8.77261 13.2274C9.36335 13.8181 10.1646 14.15 11 14.15C11.8354 14.15 12.6366 13.8181 13.2274 13.2274C13.8181 12.6366 14.15 11.8354 14.15 11C14.15 10.1646 13.8181 9.36335 13.2274 8.77261C12.6366 8.18187 11.8354 7.85 11 7.85Z" fill="white"/>
</svg>
