<svg width="20" height="20" viewBox="0 0 20 20" fill="none" xmlns="http://www.w3.org/2000/svg">
<path d="M7.86429 5.92857V6.02857H7.96429H10C11.0533 6.02857 12.0634 6.44699 12.8082 7.19178C13.553 7.93656 13.9714 8.94671 13.9714 10V12.0357V12.1357H14.0714H15.4286C15.995 12.1357 16.5382 11.9107 16.9387 11.5102C17.3393 11.1097 17.5643 10.5664 17.5643 10V4.57143C17.5643 4.005 17.3393 3.46177 16.9387 3.06125C16.5382 2.66073 15.995 2.43571 15.4286 2.43571H10C9.43357 2.43571 8.89035 2.66073 8.48982 3.06125C8.0893 3.46177 7.86429 4.005 7.86429 4.57143V5.92857ZM14.0714 13.9714H13.9714V14.0714V15.4286C13.9714 16.4819 13.553 17.492 12.8082 18.2368C12.0634 18.9816 11.0533 19.4 10 19.4H4.57143C3.51814 19.4 2.50799 18.9816 1.7632 18.2368C1.01842 17.492 0.6 16.4819 0.6 15.4286V10C0.6 8.94671 1.01842 7.93656 1.7632 7.19178C2.50799 6.44699 3.51814 6.02857 4.57143 6.02857H5.92857H6.02857V5.92857V4.57143C6.02857 3.51814 6.44699 2.50799 7.19178 1.7632C7.93656 1.01842 8.94671 0.6 10 0.6H15.4286C16.4819 0.6 17.492 1.01842 18.2368 1.7632C18.9816 2.50799 19.4 3.51814 19.4 4.57143V10C19.4 11.0533 18.9816 12.0634 18.2368 12.8082C17.492 13.553 16.4819 13.9714 15.4286 13.9714H14.0714ZM10 7.86429H4.57143C4.005 7.86429 3.46177 8.0893 3.06125 8.48982C2.66073 8.89035 2.43571 9.43357 2.43571 10V15.4286C2.43571 15.995 2.66073 16.5382 3.06125 16.9387C3.46177 17.3393 4.005 17.5643 4.57143 17.5643H10C10.5664 17.5643 11.1097 17.3393 11.5102 16.9387C11.9107 16.5382 12.1357 15.995 12.1357 15.4286V10C12.1357 9.43357 11.9107 8.89035 11.5102 8.48982C11.1097 8.0893 10.5664 7.86429 10 7.86429Z" fill="white" stroke="white" stroke-width="0.2"/>
</svg>
