<svg width="24" height="20" viewBox="0 0 24 20" fill="none" xmlns="http://www.w3.org/2000/svg">
<path d="M15.2771 12.0973V8.91122H24.0008V13.7409C24.0008 17.2809 20.2585 19.6831 15.7323 19.6831C10.2199 19.6831 6.25 16.32 6.25 10.1755C6.25 4.03101 10.2199 0.667969 15.7323 0.667969C20.1068 0.667969 22.8376 2.69085 23.9502 5.42175L19.7022 6.53433C19.2217 5.69989 18.1597 4.35973 15.7323 4.35973C12.8749 4.35973 10.9026 6.55962 10.9026 10.1755C10.9026 13.7914 12.8749 15.9913 15.7323 15.9913C17.7804 15.9913 19.3482 14.9293 19.3482 13.7914V12.0973H15.2771Z" fill="#2D5551"/>
<path d="M0 19.2802V1.07422H4.65263V19.2802H0Z" fill="#2D5551"/>
</svg>
