<svg width="161" height="29" viewBox="0 0 161 29" fill="none" xmlns="http://www.w3.org/2000/svg">
<path d="M143.855 28.5008V6.98608H148.904V9.16624C149.506 8.13353 150.969 6.69922 153.608 6.69922C157.911 6.69922 160.608 9.82602 160.608 14.3011C160.608 18.7761 157.911 21.903 153.608 21.903C150.969 21.903 149.506 20.4686 148.904 19.4359V28.5008H143.855ZM152.203 18.0016C154.297 18.0016 155.53 16.4526 155.53 14.3011C155.53 12.1496 154.297 10.6006 152.203 10.6006C150.109 10.6006 148.904 12.1496 148.904 14.3011C148.904 16.4526 150.109 18.0016 152.203 18.0016Z" fill="#2D5551"/>
<path d="M136.516 21.6144V19.549C135.942 20.6391 134.737 21.9012 132.27 21.9012C127.767 21.9012 126.074 18.9466 126.074 14.5002V6.98438H131.151V14.5002C131.151 16.5082 131.754 17.9999 133.704 17.9999C135.712 17.9999 136.516 16.4509 136.516 14.4428V6.98438H141.593V21.6144H136.516Z" fill="#2D5551"/>
<path d="M116.139 21.9591C111.033 21.9591 107.734 18.9184 107.734 14.2999C107.734 9.68137 111.033 6.64062 116.139 6.64062C121.274 6.64062 124.573 9.68137 124.573 14.2999C124.573 18.9184 121.274 21.9591 116.139 21.9591ZM116.139 18.0865C118.291 18.0865 119.495 16.48 119.495 14.2999C119.495 12.1197 118.291 10.5133 116.139 10.5133C114.016 10.5133 112.812 12.1197 112.812 14.2999C112.812 16.48 114.016 18.0865 116.139 18.0865Z" fill="#2D5551"/>
<path d="M96.6172 21.6161V6.98608H101.694V9.10887C101.981 8.4204 103.071 6.69922 105.424 6.69922C106.313 6.69922 106.973 6.81396 107.546 6.98608V10.83C106.858 10.6866 106.141 10.6006 105.194 10.6006C102.928 10.6006 101.694 12.0062 101.694 14.3298V21.6161H96.6172Z" fill="#2D5551"/>
<path d="M84.7641 13.4662V9.85173H94.6605V15.3308C94.6605 19.3469 90.415 22.0721 85.2804 22.0721C79.027 22.0721 74.5234 18.2568 74.5234 11.286C74.5234 4.31528 79.027 0.5 85.2804 0.5C90.2429 0.5 93.3409 2.7949 94.6031 5.89302L89.784 7.15522C89.239 6.20857 88.0342 4.6882 85.2804 4.6882C82.039 4.6882 79.8015 7.18391 79.8015 11.286C79.8015 15.3882 82.039 17.8839 85.2804 17.8839C87.6039 17.8839 89.3824 16.6791 89.3824 15.3882V13.4662H84.7641Z" fill="#2D5551"/>
<path d="M69.9946 21.9618C65.5484 21.9618 64.2002 19.4087 64.2002 15.1631V10.8889H61.5898V6.98752H64.2002V2.91406H69.2488V6.98752H73.1213V10.8889H69.2488V15.1631C69.2488 17.0277 69.507 18.0891 70.9699 18.0891C71.7731 18.0891 72.605 17.7736 72.605 17.7736L73.609 21.0438C73.609 21.0438 72.4329 21.9618 69.9946 21.9618Z" fill="#2D5551"/>
<path d="M55.8154 21.6161V19.8949C55.213 20.985 53.6066 21.903 51.5986 21.903C48.1851 21.903 46.1484 20.3539 46.1484 17.4853C46.1484 12.8094 52.115 12.8094 55.8154 12.8381C55.7867 11.3177 55.1269 10.4858 53.0329 10.4858C51.2831 10.4858 49.7915 11.0308 48.4433 11.5472L46.5213 8.59251C47.554 7.93273 50.0496 6.69922 53.6353 6.69922C59.6018 6.69922 60.864 9.51048 60.864 13.67V21.6161H55.8154ZM55.8154 15.1617C53.5205 15.133 51.197 15.4199 51.197 17.1697C51.197 18.145 51.8855 18.7475 53.1763 18.7475C54.9261 18.7475 55.8154 17.6574 55.8154 16.1944V15.1617Z" fill="#2D5551"/>
<path d="M35.0039 21.6161V6.98608H40.0812V9.10887C40.368 8.4204 41.4581 6.69922 43.8103 6.69922C44.6995 6.69922 45.3593 6.81396 45.933 6.98608V10.83C45.2445 10.6866 44.5274 10.6006 43.5808 10.6006C41.3147 10.6006 40.0812 12.0062 40.0812 14.3298V21.6161H35.0039Z" fill="#2D5551"/>
<path d="M7.98438 21.6161V6.98608H13.033V8.96544C13.2911 8.6212 14.4099 6.69922 17.1063 6.69922C19.8027 6.69922 21.3804 7.87536 22.1549 9.56785C22.7286 8.67857 24.2202 6.69922 27.0887 6.69922C31.3341 6.69922 32.9405 9.53916 32.9405 14.1003V21.6161H27.8919V14.1003C27.8919 12.0636 27.2895 10.6006 25.5397 10.6006C23.7612 10.6006 22.9867 12.0636 22.9867 14.1003V21.6161H17.9381V14.1003C17.9381 12.0636 17.3358 10.6006 15.586 10.6006C13.7788 10.6006 13.033 12.0636 13.033 14.1003V21.6161H7.98438Z" fill="#2D5551"/>
<path d="M0 21.6151V0.960938H5.27808V21.6151H0Z" fill="#2D5551"/>
</svg>
