<svg width="24" height="19" viewBox="0 0 24 19" fill="none" xmlns="http://www.w3.org/2000/svg">
<path d="M15.1204 11.2401V8.20592H23.4284V12.8054C23.4284 16.1768 19.8644 18.4645 15.5539 18.4645C10.3042 18.4645 6.52344 15.2617 6.52344 9.40998C6.52344 3.55826 10.3042 0.355469 15.5539 0.355469C19.7199 0.355469 22.3207 2.28196 23.3802 4.88272L19.3346 5.94229C18.8771 5.14761 17.8656 3.87131 15.5539 3.87131C12.8327 3.87131 10.9544 5.96637 10.9544 9.40998C10.9544 12.8536 12.8327 14.9486 15.5539 14.9486C17.5044 14.9486 18.9975 13.9372 18.9975 12.8536V11.2401H15.1204Z" fill="#FFF6E0"/>
<path d="M0.570312 18.4517V1.11328H5.00124V18.4517H0.570312Z" fill="#FFF6E0"/>
</svg>
