<svg width="106" height="19" viewBox="0 0 106 19" fill="none" xmlns="http://www.w3.org/2000/svg">
<path d="M94.9277 18.4763V4.27914H98.2592V5.71779C98.6567 5.03632 99.6221 4.08984 101.364 4.08984C104.203 4.08984 105.982 6.15317 105.982 9.10619C105.982 12.0592 104.203 14.1225 101.364 14.1225C99.6221 14.1225 98.6567 13.1761 98.2592 12.4946V18.4763H94.9277ZM100.436 11.5481C101.818 11.5481 102.632 10.5259 102.632 9.10619C102.632 7.68647 101.818 6.66427 100.436 6.66427C99.0542 6.66427 98.2592 7.68647 98.2592 9.10619C98.2592 10.5259 99.0542 11.5481 100.436 11.5481Z" fill="#111111"/>
<path d="M90.0854 13.9314V12.5685C89.7069 13.2878 88.9118 14.1207 87.284 14.1207C84.3121 14.1207 83.1953 12.171 83.1953 9.2369V4.27734H86.5457V9.2369C86.5457 10.562 86.9432 11.5463 88.2304 11.5463C89.5554 11.5463 90.0854 10.5241 90.0854 9.19904V4.27734H93.4358V13.9314H90.0854Z" fill="#111111"/>
<path d="M76.6389 14.1592C73.2696 14.1592 71.0928 12.1527 71.0928 9.10499C71.0928 6.05732 73.2696 4.05078 76.6389 4.05078C80.0272 4.05078 82.204 6.05732 82.204 9.10499C82.204 12.1527 80.0272 14.1592 76.6389 14.1592ZM76.6389 11.6037C78.0586 11.6037 78.8536 10.5436 78.8536 9.10499C78.8536 7.66634 78.0586 6.60628 76.6389 6.60628C75.2382 6.60628 74.4432 7.66634 74.4432 9.10499C74.4432 10.5436 75.2382 11.6037 76.6389 11.6037Z" fill="#111111"/>
<path d="M63.7568 13.9332V4.27914H67.1073V5.67993C67.2965 5.22562 68.0158 4.08984 69.568 4.08984C70.1548 4.08984 70.5902 4.16556 70.9687 4.27914V6.81571C70.5145 6.72106 70.0412 6.66427 69.4166 6.66427C67.9212 6.66427 67.1073 7.59182 67.1073 9.12512V13.9332H63.7568Z" fill="#111111"/>
<path d="M55.9339 8.55619V6.17105H62.4644V9.78661C62.4644 12.4368 59.6629 14.2351 56.2746 14.2351C52.1481 14.2351 49.1763 11.7174 49.1763 7.11754C49.1763 2.51764 52.1481 0 56.2746 0C59.5493 0 61.5936 1.51437 62.4265 3.55877L59.2464 4.39167C58.8868 3.76699 58.0918 2.76372 56.2746 2.76372C54.1356 2.76372 52.6592 4.4106 52.6592 7.11754C52.6592 9.82447 54.1356 11.4713 56.2746 11.4713C57.8078 11.4713 58.9814 10.6763 58.9814 9.82447V8.55619H55.9339Z" fill="#111111"/>
<path d="M46.1887 14.163C43.2548 14.163 42.3651 12.4783 42.3651 9.67669V6.85618H40.6426V4.28175H42.3651V1.59375H45.6966V4.28175H48.252V6.85618H45.6966V9.67669C45.6966 10.9071 45.867 11.6075 46.8323 11.6075C47.3623 11.6075 47.9113 11.3993 47.9113 11.3993L48.5738 13.5573C48.5738 13.5573 47.7977 14.163 46.1887 14.163Z" fill="#111111"/>
<path d="M36.8322 13.9332V12.7975C36.4347 13.5168 35.3746 14.1225 34.0496 14.1225C31.7971 14.1225 30.4531 13.1003 30.4531 11.2074C30.4531 8.12185 34.3903 8.12185 36.8322 8.14078C36.8132 7.13751 36.3779 6.58855 34.9961 6.58855C33.8414 6.58855 32.8571 6.94822 31.9674 7.28895L30.6992 5.3392C31.3806 4.90382 33.0275 4.08984 35.3936 4.08984C39.3308 4.08984 40.1637 5.94495 40.1637 8.68974V13.9332H36.8322ZM36.8322 9.67408C35.3179 9.65515 33.7846 9.84444 33.7846 10.9992C33.7846 11.6428 34.2389 12.0403 35.0907 12.0403C36.2454 12.0403 36.8322 11.321 36.8322 10.3555V9.67408Z" fill="#111111"/>
<path d="M23.0977 13.9332V4.27914H26.4481V5.67993C26.6374 5.22562 27.3567 4.08984 28.9088 4.08984C29.4956 4.08984 29.931 4.16556 30.3096 4.27914V6.81571C29.8553 6.72106 29.3821 6.66427 28.7574 6.66427C27.262 6.66427 26.4481 7.59182 26.4481 9.12512V13.9332H23.0977Z" fill="#111111"/>
<path d="M5.26904 13.9332V4.27914H8.60053V5.58528C8.77089 5.35813 9.50912 4.08984 11.2884 4.08984C13.0677 4.08984 14.1088 4.86596 14.6199 5.98281C14.9985 5.39599 15.9828 4.08984 17.8757 4.08984C20.6772 4.08984 21.7372 5.96388 21.7372 8.97368V13.9332H18.4057V8.97368C18.4057 7.62968 18.0082 6.66427 16.8535 6.66427C15.6799 6.66427 15.1689 7.62968 15.1689 8.97368V13.9332H11.8374V8.97368C11.8374 7.62968 11.4399 6.66427 10.2852 6.66427C9.09268 6.66427 8.60053 7.62968 8.60053 8.97368V13.9332H5.26904Z" fill="#111111"/>
<path d="M0 13.934V0.304688H3.48292V13.934H0Z" fill="#111111"/>
</svg>
