<svg width="120" height="22" viewBox="0 0 120 22" fill="none" xmlns="http://www.w3.org/2000/svg">
<path d="M106.799 21.1875V5.29009H110.529V6.90103C110.975 6.13795 112.056 5.07812 114.006 5.07812C117.185 5.07812 119.178 7.38855 119.178 10.6952C119.178 14.0019 117.185 16.3123 114.006 16.3123C112.056 16.3123 110.975 15.2525 110.529 14.4894V21.1875H106.799ZM112.967 13.4296C114.514 13.4296 115.426 12.2849 115.426 10.6952C115.426 9.10546 114.514 7.96085 112.967 7.96085C111.42 7.96085 110.529 9.10546 110.529 10.6952C110.529 12.2849 111.42 13.4296 112.967 13.4296Z" fill="#FFF6E0"/>
<path d="M101.38 16.0993V14.5731C100.956 15.3786 100.065 16.3113 98.2425 16.3113C94.9147 16.3113 93.6641 14.128 93.6641 10.8426V5.28906H97.4158V10.8426C97.4158 12.3263 97.861 13.4285 99.3023 13.4285C100.786 13.4285 101.38 12.2839 101.38 10.8002V5.28906H105.131V16.0993H101.38Z" fill="#FFF6E0"/>
<path d="M86.3258 16.3561C82.5528 16.3561 80.1152 14.1092 80.1152 10.6966C80.1152 7.28394 82.5528 5.03711 86.3258 5.03711C90.12 5.03711 92.5576 7.28394 92.5576 10.6966C92.5576 14.1092 90.12 16.3561 86.3258 16.3561ZM86.3258 13.4945C87.9156 13.4945 88.8058 12.3075 88.8058 10.6966C88.8058 9.08565 87.9156 7.89864 86.3258 7.89864C84.7573 7.89864 83.867 9.08565 83.867 10.6966C83.867 12.3075 84.7573 13.4945 86.3258 13.4945Z" fill="#FFF6E0"/>
<path d="M71.8926 16.1003V5.29009H75.6444V6.85863C75.8563 6.34992 76.6618 5.07812 78.3999 5.07812C79.057 5.07812 79.5445 5.16291 79.9685 5.29009V8.13042C79.4597 8.02444 78.9298 7.96085 78.2303 7.96085C76.5558 7.96085 75.6444 8.99948 75.6444 10.7164V16.1003H71.8926Z" fill="#FFF6E0"/>
<path d="M63.1414 10.0808V7.41007H70.4542V11.4586C70.4542 14.4261 67.3171 16.4398 63.5229 16.4398C58.9021 16.4398 55.5742 13.6207 55.5742 8.46989C55.5742 3.31914 58.9021 0.5 63.5229 0.5C67.1899 0.5 69.4791 2.19572 70.4118 4.48495L66.8508 5.41759C66.448 4.71811 65.5578 3.59469 63.5229 3.59469C61.1277 3.59469 59.4744 5.43879 59.4744 8.46989C59.4744 11.501 61.1277 13.3451 63.5229 13.3451C65.2398 13.3451 66.554 12.4548 66.554 11.501V10.0808H63.1414Z" fill="#FFF6E0"/>
<path d="M52.2262 16.3538C48.9407 16.3538 47.9445 14.4673 47.9445 11.3302V8.17193H46.0156V5.2892H47.9445V2.2793H51.6751V5.2892H54.5366V8.17193H51.6751V11.3302C51.6751 12.708 51.8659 13.4923 52.9469 13.4923C53.5404 13.4923 54.1551 13.2591 54.1551 13.2591L54.897 15.6755C54.897 15.6755 54.0279 16.3538 52.2262 16.3538Z" fill="#FFF6E0"/>
<path d="M41.7487 16.1003V14.8285C41.3036 15.634 40.1166 16.3123 38.6328 16.3123C36.1104 16.3123 34.6055 15.1677 34.6055 13.048C34.6055 9.59298 39.0143 9.59299 41.7487 9.61418C41.7275 8.49077 41.24 7.87607 39.6926 7.87607C38.3996 7.87607 37.2974 8.2788 36.3012 8.66034L34.881 6.4771C35.6441 5.98958 37.4882 5.07812 40.1378 5.07812C44.5466 5.07812 45.4793 7.15538 45.4793 10.2289V16.1003H41.7487ZM41.7487 11.3311C40.053 11.3099 38.3361 11.5219 38.3361 12.8149C38.3361 13.5355 38.8448 13.9807 39.7986 13.9807C41.0916 13.9807 41.7487 13.1752 41.7487 12.0942V11.3311Z" fill="#FFF6E0"/>
<path d="M26.3652 16.1003V5.29009H30.117V6.85863C30.329 6.34992 31.1345 5.07812 32.8726 5.07812C33.5297 5.07812 34.0172 5.16291 34.4411 5.29009V8.13042C33.9324 8.02444 33.4025 7.96085 32.703 7.96085C31.0285 7.96085 30.117 8.99948 30.117 10.7164V16.1003H26.3652Z" fill="#FFF6E0"/>
<path d="M6.4043 16.1003V5.29009H10.1349V6.75265C10.3257 6.49829 11.1523 5.07812 13.1448 5.07812C15.1373 5.07812 16.3031 5.94718 16.8754 7.19778C17.2993 6.54069 18.4015 5.07812 20.5212 5.07812C23.6583 5.07812 24.8453 7.17658 24.8453 10.5468V16.1003H21.1147V10.5468C21.1147 9.04188 20.6696 7.96085 19.3766 7.96085C18.0624 7.96085 17.4901 9.04188 17.4901 10.5468V16.1003H13.7595V10.5468C13.7595 9.04188 13.3144 7.96085 12.0214 7.96085C10.686 7.96085 10.1349 9.04188 10.1349 10.5468V16.1003H6.4043Z" fill="#FFF6E0"/>
<path d="M0.501953 16.1013V0.839844H4.40211V16.1013H0.501953Z" fill="#FFF6E0"/>
</svg>
