<svg width="24" height="24" viewBox="0 0 24 24" fill="none" xmlns="http://www.w3.org/2000/svg">
<circle cx="12" cy="12" r="9" fill="#D9D9D9"/>
<mask id="mask0_460_23" style="mask-type:luminance" maskUnits="userSpaceOnUse" x="0" y="0" width="24" height="24">
<path d="M0 0L0 24H24V0H0Z" fill="white"/>
</mask>
<g mask="url(#mask0_460_23)">
<path fill-rule="evenodd" clip-rule="evenodd" d="M0 12C0 5.3724 5.3724 -9.53674e-07 12 -9.53674e-07C18.6276 -9.53674e-07 24 5.3724 24 12C24 18.6276 18.6276 24 12 24C5.3724 24 0 18.6276 0 12ZM15.6 12C15.6 12.4774 15.7896 12.9353 16.1272 13.2728C16.4647 13.6104 16.9226 13.8 17.4 13.8C17.8774 13.8 18.3353 13.6104 18.6728 13.2728C19.0104 12.9353 19.2 12.4774 19.2 12C19.2 11.5226 19.0104 11.0647 18.6728 10.7272C18.3353 10.3896 17.8774 10.2 17.4 10.2C16.9226 10.2 16.4647 10.3896 16.1272 10.7272C15.7896 11.0647 15.6 11.5226 15.6 12ZM10.2 12C10.2 12.4774 10.3896 12.9353 10.7272 13.2728C11.0647 13.6104 11.5226 13.8 12 13.8C12.4774 13.8 12.9353 13.6104 13.2728 13.2728C13.6104 12.9353 13.8 12.4774 13.8 12C13.8 11.5226 13.6104 11.0647 13.2728 10.7272C12.9353 10.3896 12.4774 10.2 12 10.2C11.5226 10.2 11.0647 10.3896 10.7272 10.7272C10.3896 11.0647 10.2 11.5226 10.2 12ZM4.8 12C4.8 12.4774 4.98965 12.9353 5.32721 13.2728C5.66477 13.6104 6.12262 13.8 6.6 13.8C7.07738 13.8 7.53523 13.6104 7.87279 13.2728C8.21035 12.9353 8.4 12.4774 8.4 12C8.4 11.5226 8.21035 11.0647 7.87279 10.7272C7.53523 10.3896 7.07738 10.2 6.6 10.2C6.12262 10.2 5.66477 10.3896 5.32721 10.7272C4.98965 11.0647 4.8 11.5226 4.8 12Z" fill="#047FFF"/>
</g>
</svg>
