<svg width="21" height="21" viewBox="0 0 21 21" fill="none" xmlns="http://www.w3.org/2000/svg">
<path d="M10.5 13.5625C11.3457 13.5625 12.0313 14.2481 12.0313 15.0937C12.0313 15.9394 11.3457 16.625 10.5 16.625C9.65431 16.625 8.96875 15.9394 8.96875 15.0937C8.96875 14.2481 9.65431 13.5625 10.5 13.5625Z" fill="#1A1A1A"/>
<path d="M10.5 8.96875C11.3457 8.96875 12.0313 9.65431 12.0313 10.5C12.0313 11.3457 11.3457 12.0312 10.5 12.0312C9.65431 12.0312 8.96875 11.3457 8.96875 10.5C8.96875 9.65431 9.65431 8.96875 10.5 8.96875Z" fill="#1A1A1A"/>
<path d="M10.5 4.375C11.3457 4.375 12.0313 5.06056 12.0313 5.90625C12.0313 6.75194 11.3457 7.4375 10.5 7.4375C9.65431 7.4375 8.96875 6.75194 8.96875 5.90625C8.96875 5.06056 9.65431 4.375 10.5 4.375Z" fill="#1A1A1A"/>
</svg>
