<svg width="21" height="21" viewBox="0 0 21 21" fill="none" xmlns="http://www.w3.org/2000/svg">
<circle cx="10.5" cy="10.5" r="10" fill="#F0F3F3" stroke="white"/>
<path d="M12.8643 14.4716C12.3767 14.4716 11.9411 14.3875 11.5575 14.2195C11.1764 14.0514 10.8745 13.8182 10.652 13.5199C10.4318 13.2192 10.3134 12.8712 10.2969 12.4759H11.4119C11.4261 12.6913 11.4983 12.8783 11.6286 13.0369C11.7611 13.1932 11.9339 13.3139 12.147 13.3991C12.3601 13.4844 12.5968 13.527 12.8572 13.527C13.1437 13.527 13.397 13.4773 13.6172 13.3778C13.8397 13.2784 14.0137 13.1399 14.1392 12.9624C14.2647 12.7824 14.3274 12.5753 14.3274 12.3409C14.3274 12.0971 14.2647 11.8828 14.1392 11.6982C14.0161 11.5111 13.835 11.3643 13.5959 11.2578C13.3591 11.1513 13.0727 11.098 12.7365 11.098H12.1222V10.2031H12.7365C13.0064 10.2031 13.2431 10.1546 13.4467 10.0575C13.6527 9.96046 13.8137 9.82552 13.9297 9.6527C14.0457 9.47751 14.1037 9.27273 14.1037 9.03835C14.1037 8.81345 14.0528 8.61813 13.951 8.45241C13.8516 8.28433 13.7095 8.15294 13.5249 8.05824C13.3426 7.96354 13.1271 7.91619 12.8786 7.91619C12.6418 7.91619 12.4205 7.95999 12.2145 8.04759C12.0109 8.13281 11.8452 8.25592 11.7173 8.4169C11.5895 8.57552 11.5208 8.7661 11.5114 8.98864H10.4496C10.4614 8.59564 10.5774 8.25 10.7976 7.9517C11.0201 7.65341 11.3137 7.42022 11.6783 7.25213C12.0429 7.08404 12.4477 7 12.8928 7C13.3591 7 13.7616 7.09115 14.1001 7.27344C14.4411 7.45336 14.7038 7.69366 14.8885 7.99432C15.0755 8.29498 15.1679 8.62405 15.1655 8.98153C15.1679 9.38873 15.0542 9.73438 14.8246 10.0185C14.5973 10.3026 14.2943 10.4931 13.9155 10.5902V10.647C14.3984 10.7204 14.7725 10.9122 15.0376 11.2223C15.3052 11.5324 15.4377 11.9171 15.4354 12.3764C15.4377 12.7765 15.3265 13.1352 15.1016 13.4524C14.879 13.7696 14.5748 14.0194 14.1889 14.2017C13.803 14.3816 13.3615 14.4716 12.8643 14.4716Z" fill="#6C757D"/>
<path d="M6.92116 13.1488V8.34766H7.87642V13.1488H6.92116ZM5 11.2241V10.2724H9.80114V11.2241H5Z" fill="#6C757D"/>
</svg>
