<svg width="20" height="6" viewBox="0 0 20 6" fill="none" xmlns="http://www.w3.org/2000/svg">
<path d="M8.99624 2.99992C8.99624 3.55217 9.44393 3.99985 9.99617 3.99985C10.5484 3.99985 10.9961 3.55217 10.9961 2.99992C10.9961 2.44768 10.5484 2 9.99617 2C9.44393 2 8.99624 2.44768 8.99624 2.99992Z" fill="white" stroke="white" stroke-width="2.14286" stroke-linecap="round" stroke-linejoin="round"/>
<path d="M16.0002 2.99992C16.0002 3.55217 16.4478 3.99985 17.0001 3.99985C17.5523 3.99985 18 3.55217 18 2.99992C18 2.44768 17.5523 2 17.0001 2C16.4478 2 16.0002 2.44768 16.0002 2.99992Z" fill="white" stroke="white" stroke-width="2.14286" stroke-linecap="round" stroke-linejoin="round"/>
<path d="M2.00015 2.99992C2.00015 3.55217 2.44783 3.99985 3.00008 3.99985C3.55232 3.99985 4 3.55217 4 2.99992C4 2.44768 3.55232 2 3.00008 2C2.44783 2 2.00015 2.44768 2.00015 2.99992Z" fill="white" stroke="white" stroke-width="2.14286" stroke-linecap="round" stroke-linejoin="round"/>
</svg>
