<svg width="42" height="42" viewBox="0 0 42 42" fill="none" xmlns="http://www.w3.org/2000/svg">
<mask id="mask0_75_28533" style="mask-type:alpha" maskUnits="userSpaceOnUse" x="0" y="0" width="42" height="42">
<rect width="42" height="42" fill="#D9D9D9"/>
</mask>
<g mask="url(#mask0_75_28533)">
<path d="M7 33.25V29.75H10.5V17.5C10.5 15.0792 11.2292 12.9281 12.6875 11.0469C14.1458 9.16563 16.0417 7.93333 18.375 7.35V6.125C18.375 5.39583 18.6302 4.77604 19.1406 4.26562C19.651 3.75521 20.2708 3.5 21 3.5C21.7292 3.5 22.349 3.75521 22.8594 4.26562C23.3698 4.77604 23.625 5.39583 23.625 6.125V7.35C25.9583 7.93333 27.8542 9.16563 29.3125 11.0469C30.7708 12.9281 31.5 15.0792 31.5 17.5V29.75H35V33.25H7ZM21 38.5C20.0375 38.5 19.2135 38.1573 18.5281 37.4719C17.8427 36.7865 17.5 35.9625 17.5 35H24.5C24.5 35.9625 24.1573 36.7865 23.4719 37.4719C22.7865 38.1573 21.9625 38.5 21 38.5ZM14 29.75H28V17.5C28 15.575 27.3146 13.9271 25.9438 12.5563C24.5729 11.1854 22.925 10.5 21 10.5C19.075 10.5 17.4271 11.1854 16.0563 12.5563C14.6854 13.9271 14 15.575 14 17.5V29.75Z" fill="#2D5551"/>
</g>
<path d="M5.5 5L36.5 34" stroke="#2D5551" stroke-width="1.5" stroke-linecap="round"/>
<path d="M4 6L36.5 36.5" stroke="#F0F3F3" stroke-width="2" stroke-linecap="round"/>
</svg>
