<svg width="166" height="166" viewBox="0 0 166 166" fill="none" xmlns="http://www.w3.org/2000/svg">
<path d="M51.5248 0H45.8008V5.72404H51.5248V0Z" fill="black"/>
<path d="M57.2397 0H51.5156V5.72404H57.2397V0Z" fill="black"/>
<path d="M62.974 0H57.25V5.72404H62.974V0Z" fill="black"/>
<path d="M80.1459 0H74.4219V5.72404H80.1459V0Z" fill="black"/>
<path d="M85.8608 0H80.1367V5.72404H85.8608V0Z" fill="black"/>
<path d="M91.5873 0H85.8633V5.72404H91.5873V0Z" fill="black"/>
<path d="M108.771 0H103.047V5.72404H108.771V0Z" fill="black"/>
<path d="M51.5248 5.73047H45.8008V11.4545H51.5248V5.73047Z" fill="black"/>
<path d="M57.2397 5.72656H51.5156V11.4506H57.2397V5.72656Z" fill="black"/>
<path d="M62.974 5.73047H57.25V11.4545H62.974V5.73047Z" fill="black"/>
<path d="M68.685 5.72266H62.9609V11.4467H68.685V5.72266Z" fill="black"/>
<path d="M74.4115 5.72656H68.6875V11.4506H74.4115V5.72656Z" fill="black"/>
<path d="M80.142 5.72656H74.418V11.4506H80.142V5.72656Z" fill="black"/>
<path d="M85.8608 5.72656H80.1367V11.4506H85.8608V5.72656Z" fill="black"/>
<path d="M91.5873 5.72656H85.8633V11.4506H91.5873V5.72656Z" fill="black"/>
<path d="M103.037 5.72656H97.3125V11.4506H103.037V5.72656Z" fill="black"/>
<path d="M108.771 5.72656H103.047V11.4506H108.771V5.72656Z" fill="black"/>
<path d="M114.486 5.73047H108.762V11.4545H114.486V5.73047Z" fill="black"/>
<path d="M120.212 5.73047H114.488V11.4545H120.212V5.73047Z" fill="black"/>
<path d="M51.5248 11.457H45.8008V17.1811H51.5248V11.457Z" fill="black"/>
<path d="M57.2397 11.4609H51.5156V17.185H57.2397V11.4609Z" fill="black"/>
<path d="M62.9701 11.457H57.2461V17.1811H62.9701V11.457Z" fill="black"/>
<path d="M68.685 11.457H62.9609V17.1811H68.685V11.457Z" fill="black"/>
<path d="M80.1459 11.4609H74.4219V17.185H80.1459V11.4609Z" fill="black"/>
<path d="M85.8608 11.457H80.1367V17.1811H85.8608V11.457Z" fill="black"/>
<path d="M120.208 11.4609H114.484V17.185H120.208V11.4609Z" fill="black"/>
<path d="M57.2397 17.1758H51.5156V22.8998H57.2397V17.1758Z" fill="black"/>
<path d="M62.9701 17.1758H57.2461V22.8998H62.9701V17.1758Z" fill="black"/>
<path d="M68.685 17.1758H62.9609V22.8998H68.685V17.1758Z" fill="black"/>
<path d="M74.4154 17.1758H68.6914V22.8998H74.4154V17.1758Z" fill="black"/>
<path d="M85.8608 17.1758H80.1367V22.8998H85.8608V17.1758Z" fill="black"/>
<path d="M91.5873 17.1758H85.8633V22.8998H91.5873V17.1758Z" fill="black"/>
<path d="M103.037 17.1758H97.3125V22.8998H103.037V17.1758Z" fill="black"/>
<path d="M114.486 17.1758H108.762V22.8998H114.486V17.1758Z" fill="black"/>
<path d="M120.208 17.1758H114.484V22.8998H120.208V17.1758Z" fill="black"/>
<path d="M51.5248 22.8945H45.8008V28.6186H51.5248V22.8945Z" fill="black"/>
<path d="M57.2397 22.8945H51.5156V28.6186H57.2397V22.8945Z" fill="black"/>
<path d="M62.9701 22.8945H57.2461V28.6186H62.9701V22.8945Z" fill="black"/>
<path d="M74.4115 22.8945H68.6875V28.6186H74.4115V22.8945Z" fill="black"/>
<path d="M80.142 22.8984H74.418V28.6225H80.142V22.8984Z" fill="black"/>
<path d="M91.5873 22.8984H85.8633V28.6225H91.5873V22.8984Z" fill="black"/>
<path d="M103.037 22.8984H97.3125V28.6225H103.037V22.8984Z" fill="black"/>
<path d="M108.771 22.8984H103.047V28.6225H108.771V22.8984Z" fill="black"/>
<path d="M114.486 22.8945H108.762V28.6186H114.486V22.8945Z" fill="black"/>
<path d="M57.2397 28.6133H51.5156V34.3373H57.2397V28.6133Z" fill="black"/>
<path d="M80.1459 28.6133H74.4219V34.3373H80.1459V28.6133Z" fill="black"/>
<path d="M85.8608 28.6133H80.1367V34.3373H85.8608V28.6133Z" fill="black"/>
<path d="M103.037 28.6133H97.3125V34.3373H103.037V28.6133Z" fill="black"/>
<path d="M120.208 28.6133H114.484V34.3373H120.208V28.6133Z" fill="black"/>
<path d="M51.5248 34.3438H45.8008V40.0678H51.5248V34.3438Z" fill="black"/>
<path d="M62.9701 34.3438H57.2461V40.0678H62.9701V34.3438Z" fill="black"/>
<path d="M74.4154 34.3438H68.6914V40.0678H74.4154V34.3438Z" fill="black"/>
<path d="M85.8608 34.3438H80.1367V40.0678H85.8608V34.3438Z" fill="black"/>
<path d="M97.3061 34.3438H91.582V40.0678H97.3061V34.3438Z" fill="black"/>
<path d="M108.767 34.3438H103.043V40.0678H108.767V34.3438Z" fill="black"/>
<path d="M120.208 34.3438H114.484V40.0678H120.208V34.3438Z" fill="black"/>
<path d="M57.2397 40.0742H51.5156V45.7983H57.2397V40.0742Z" fill="black"/>
<path d="M74.4154 40.0742H68.6914V45.7983H74.4154V40.0742Z" fill="black"/>
<path d="M85.8608 40.0742H80.1367V45.7983H85.8608V40.0742Z" fill="black"/>
<path d="M5.72795 45.8008H0.00390625V51.5248H5.72795V45.8008Z" fill="black"/>
<path d="M22.8998 45.8008H17.1758V51.5248H22.8998V45.8008Z" fill="black"/>
<path d="M28.6225 45.8008H22.8984V51.5248H28.6225V45.8008Z" fill="black"/>
<path d="M34.349 45.8008H28.625V51.5248H34.349V45.8008Z" fill="black"/>
<path d="M40.0717 45.8008H34.3477V51.5248H40.0717V45.8008Z" fill="black"/>
<path d="M45.7944 45.8008H40.0703V51.5248H45.7944V45.8008Z" fill="black"/>
<path d="M51.5248 45.8008H45.8008V51.5248H51.5248V45.8008Z" fill="black"/>
<path d="M57.2397 45.8008H51.5156V51.5248H57.2397V45.8008Z" fill="black"/>
<path d="M74.4115 45.8008H68.6875V51.5248H74.4115V45.8008Z" fill="black"/>
<path d="M80.142 45.8008H74.418V51.5248H80.142V45.8008Z" fill="black"/>
<path d="M85.8608 45.8008H80.1367V51.5248H85.8608V45.8008Z" fill="black"/>
<path d="M91.5873 45.8008H85.8633V51.5248H91.5873V45.8008Z" fill="black"/>
<path d="M97.3022 45.8008H91.5781V51.5248H97.3022V45.8008Z" fill="black"/>
<path d="M103.037 45.8008H97.3125V51.5248H103.037V45.8008Z" fill="black"/>
<path d="M125.931 45.8008H120.207V51.5248H125.931V45.8008Z" fill="black"/>
<path d="M143.103 45.8008H137.379V51.5248H143.103V45.8008Z" fill="black"/>
<path d="M154.548 45.8008H148.824V51.5248H154.548V45.8008Z" fill="black"/>
<path d="M160.271 45.8008H154.547V51.5248H160.271V45.8008Z" fill="black"/>
<path d="M165.997 45.8008H160.273V51.5248H165.997V45.8008Z" fill="black"/>
<path d="M5.72404 51.5234H0V57.2475H5.72404V51.5234Z" fill="black"/>
<path d="M17.1694 51.5234H11.4453V57.2475H17.1694V51.5234Z" fill="black"/>
<path d="M51.5248 51.5234H45.8008V57.2475H51.5248V51.5234Z" fill="black"/>
<path d="M74.4154 51.5234H68.6914V57.2475H74.4154V51.5234Z" fill="black"/>
<path d="M85.8608 51.5234H80.1367V57.2475H85.8608V51.5234Z" fill="black"/>
<path d="M103.037 51.5234H97.3125V57.2475H103.037V51.5234Z" fill="black"/>
<path d="M114.486 51.5234H108.762V57.2475H114.486V51.5234Z" fill="black"/>
<path d="M125.927 51.5234H120.203V57.2475H125.927V51.5234Z" fill="black"/>
<path d="M137.376 51.5234H131.652V57.2475H137.376V51.5234Z" fill="black"/>
<path d="M143.103 51.5234H137.379V57.2475H143.103V51.5234Z" fill="black"/>
<path d="M154.548 51.5234H148.824V57.2475H154.548V51.5234Z" fill="black"/>
<path d="M160.279 51.5234H154.555V57.2475H160.279V51.5234Z" fill="black"/>
<path d="M11.4506 57.2422H5.72656V62.9662H11.4506V57.2422Z" fill="black"/>
<path d="M17.1694 57.2422H11.4453V62.9662H17.1694V57.2422Z" fill="black"/>
<path d="M28.6225 57.2422H22.8984V62.9662H28.6225V57.2422Z" fill="black"/>
<path d="M34.349 57.2422H28.625V62.9662H34.349V57.2422Z" fill="black"/>
<path d="M40.0717 57.2422H34.3477V62.9662H40.0717V57.2422Z" fill="black"/>
<path d="M57.2397 57.2422H51.5156V62.9662H57.2397V57.2422Z" fill="black"/>
<path d="M62.9701 57.2422H57.2461V62.9662H62.9701V57.2422Z" fill="black"/>
<path d="M85.8608 57.2422H80.1367V62.9662H85.8608V57.2422Z" fill="black"/>
<path d="M103.037 57.2422H97.3125V62.9662H103.037V57.2422Z" fill="black"/>
<path d="M108.771 57.2422H103.047V62.9662H108.771V57.2422Z" fill="black"/>
<path d="M125.927 57.2422H120.203V62.9662H125.927V57.2422Z" fill="black"/>
<path d="M137.376 57.2422H131.652V62.9662H137.376V57.2422Z" fill="black"/>
<path d="M154.548 57.2422H148.824V62.9662H154.548V57.2422Z" fill="black"/>
<path d="M22.8998 62.9609H17.1758V68.685H22.8998V62.9609Z" fill="black"/>
<path d="M28.6225 62.9609H22.8984V68.685H28.6225V62.9609Z" fill="black"/>
<path d="M51.5248 62.9609H45.8008V68.685H51.5248V62.9609Z" fill="black"/>
<path d="M57.2397 62.9609H51.5156V68.685H57.2397V62.9609Z" fill="black"/>
<path d="M62.9701 62.957H57.2461V68.6811H62.9701V62.957Z" fill="black"/>
<path d="M85.8608 62.9609H80.1367V68.685H85.8608V62.9609Z" fill="black"/>
<path d="M91.5873 62.957H85.8633V68.6811H91.5873V62.957Z" fill="black"/>
<path d="M103.037 62.9609H97.3125V68.685H103.037V62.9609Z" fill="black"/>
<path d="M120.208 62.957H114.484V68.6811H120.208V62.957Z" fill="black"/>
<path d="M125.931 62.957H120.207V68.6811H125.931V62.957Z" fill="black"/>
<path d="M131.654 62.957H125.93V68.6811H131.654V62.957Z" fill="black"/>
<path d="M148.818 62.957H143.094V68.6811H148.818V62.957Z" fill="black"/>
<path d="M166.001 62.9609H160.277V68.685H166.001V62.9609Z" fill="black"/>
<path d="M5.72795 68.6836H0.00390625V74.4076H5.72795V68.6836Z" fill="black"/>
<path d="M11.4506 68.6836H5.72656V74.4076H11.4506V68.6836Z" fill="black"/>
<path d="M17.1694 68.6914H11.4453V74.4154H17.1694V68.6914Z" fill="black"/>
<path d="M22.8998 68.6914H17.1758V74.4154H22.8998V68.6914Z" fill="black"/>
<path d="M40.0717 68.6914H34.3477V74.4154H40.0717V68.6914Z" fill="black"/>
<path d="M62.9701 68.6836H57.2461V74.4076H62.9701V68.6836Z" fill="black"/>
<path d="M74.4154 68.6914H68.6914V74.4154H74.4154V68.6914Z" fill="black"/>
<path d="M80.1459 68.6914H74.4219V74.4154H80.1459V68.6914Z" fill="black"/>
<path d="M85.8608 68.6836H80.1367V74.4076H85.8608V68.6836Z" fill="black"/>
<path d="M108.767 68.6836H103.043V74.4076H108.767V68.6836Z" fill="black"/>
<path d="M120.212 68.6914H114.488V74.4154H120.212V68.6914Z" fill="black"/>
<path d="M131.654 68.6836H125.93V74.4076H131.654V68.6836Z" fill="black"/>
<path d="M137.38 68.6914H131.656V74.4154H137.38V68.6914Z" fill="black"/>
<path d="M166.001 68.6836H160.277V74.4076H166.001V68.6836Z" fill="black"/>
<path d="M17.1694 74.4219H11.4453V80.1459H17.1694V74.4219Z" fill="black"/>
<path d="M68.685 74.418H62.9609V80.142H68.685V74.418Z" fill="black"/>
<path d="M74.4154 74.418H68.6914V80.142H74.4154V74.418Z" fill="black"/>
<path d="M103.037 74.418H97.3125V80.142H103.037V74.418Z" fill="black"/>
<path d="M108.767 74.418H103.043V80.142H108.767V74.418Z" fill="black"/>
<path d="M125.931 74.418H120.207V80.142H125.931V74.418Z" fill="black"/>
<path d="M131.654 74.418H125.93V80.142H131.654V74.418Z" fill="black"/>
<path d="M143.103 74.4219H137.379V80.1459H143.103V74.4219Z" fill="black"/>
<path d="M148.822 74.4219H143.098V80.1459H148.822V74.4219Z" fill="black"/>
<path d="M154.548 74.418H148.824V80.142H154.548V74.418Z" fill="black"/>
<path d="M160.275 74.418H154.551V80.142H160.275V74.418Z" fill="black"/>
<path d="M165.997 74.4219H160.273V80.1459H165.997V74.4219Z" fill="black"/>
<path d="M11.4506 80.1367H5.72656V85.8608H11.4506V80.1367Z" fill="black"/>
<path d="M34.349 80.1328H28.625V85.8569H34.349V80.1328Z" fill="black"/>
<path d="M40.0717 80.1328H34.3477V85.8569H40.0717V80.1328Z" fill="black"/>
<path d="M45.7944 80.1328H40.0703V85.8569H45.7944V80.1328Z" fill="black"/>
<path d="M51.5248 80.1328H45.8008V85.8569H51.5248V80.1328Z" fill="black"/>
<path d="M62.9701 80.1328H57.2461V85.8569H62.9701V80.1328Z" fill="black"/>
<path d="M85.8608 80.1328H80.1367V85.8569H85.8608V80.1328Z" fill="black"/>
<path d="M91.5873 80.1328H85.8633V85.8569H91.5873V80.1328Z" fill="black"/>
<path d="M103.037 80.1328H97.3125V85.8569H103.037V80.1328Z" fill="black"/>
<path d="M114.486 80.1328H108.762V85.8569H114.486V80.1328Z" fill="black"/>
<path d="M120.208 80.1328H114.484V85.8569H120.208V80.1328Z" fill="black"/>
<path d="M125.931 80.1328H120.207V85.8569H125.931V80.1328Z" fill="black"/>
<path d="M131.654 80.1328H125.93V85.8569H131.654V80.1328Z" fill="black"/>
<path d="M137.376 80.1328H131.652V85.8569H137.376V80.1328Z" fill="black"/>
<path d="M154.548 80.1328H148.824V85.8569H154.548V80.1328Z" fill="black"/>
<path d="M166.001 80.1367H160.277V85.8608H166.001V80.1367Z" fill="black"/>
<path d="M5.72404 85.8555H0V91.5795H5.72404V85.8555Z" fill="black"/>
<path d="M11.4506 85.8555H5.72656V91.5795H11.4506V85.8555Z" fill="black"/>
<path d="M28.6225 85.8555H22.8984V91.5795H28.6225V85.8555Z" fill="black"/>
<path d="M45.7944 85.8555H40.0703V91.5795H45.7944V85.8555Z" fill="black"/>
<path d="M57.2397 85.8555H51.5156V91.5795H57.2397V85.8555Z" fill="black"/>
<path d="M62.9701 85.8555H57.2461V91.5795H62.9701V85.8555Z" fill="black"/>
<path d="M80.1459 85.8555H74.4219V91.5795H80.1459V85.8555Z" fill="black"/>
<path d="M85.8608 85.8555H80.1367V91.5795H85.8608V85.8555Z" fill="black"/>
<path d="M97.3022 85.8555H91.5781V91.5795H97.3022V85.8555Z" fill="black"/>
<path d="M108.771 85.8555H103.047V91.5795H108.771V85.8555Z" fill="black"/>
<path d="M137.376 85.8555H131.652V91.5795H137.376V85.8555Z" fill="black"/>
<path d="M143.107 85.8555H137.383V91.5795H143.107V85.8555Z" fill="black"/>
<path d="M154.548 85.8555H148.824V91.5795H154.548V85.8555Z" fill="black"/>
<path d="M166.001 85.8555H160.277V91.5795H166.001V85.8555Z" fill="black"/>
<path d="M28.6225 91.5781H22.8984V97.3022H28.6225V91.5781Z" fill="black"/>
<path d="M40.0756 91.5742H34.3516V97.2983H40.0756V91.5742Z" fill="black"/>
<path d="M74.4154 91.5781H68.6914V97.3022H74.4154V91.5781Z" fill="black"/>
<path d="M91.5873 91.5742H85.8633V97.2983H91.5873V91.5742Z" fill="black"/>
<path d="M114.486 91.5742H108.762V97.2983H114.486V91.5742Z" fill="black"/>
<path d="M120.212 91.5742H114.488V97.2983H120.212V91.5742Z" fill="black"/>
<path d="M148.822 91.5781H143.098V97.3022H148.822V91.5781Z" fill="black"/>
<path d="M5.72404 97.3047H0V103.029H5.72404V97.3047Z" fill="black"/>
<path d="M22.8998 97.3047H17.1758V103.029H22.8998V97.3047Z" fill="black"/>
<path d="M51.5248 97.3047H45.8008V103.029H51.5248V97.3047Z" fill="black"/>
<path d="M57.2397 97.3047H51.5156V103.029H57.2397V97.3047Z" fill="black"/>
<path d="M103.037 97.3008H97.3125V103.025H103.037V97.3008Z" fill="black"/>
<path d="M108.767 97.3008H103.043V103.025H108.767V97.3008Z" fill="black"/>
<path d="M114.486 97.3047H108.762V103.029H114.486V97.3047Z" fill="black"/>
<path d="M143.107 97.3047H137.383V103.029H143.107V97.3047Z" fill="black"/>
<path d="M154.548 97.3047H148.824V103.029H154.548V97.3047Z" fill="black"/>
<path d="M160.275 97.3047H154.551V103.029H160.275V97.3047Z" fill="black"/>
<path d="M5.72404 103.031H0V108.755H5.72404V103.031Z" fill="black"/>
<path d="M11.4506 103.035H5.72656V108.759H11.4506V103.035Z" fill="black"/>
<path d="M17.1694 103.035H11.4453V108.759H17.1694V103.035Z" fill="black"/>
<path d="M40.0717 103.035H34.3477V108.759H40.0717V103.035Z" fill="black"/>
<path d="M45.7944 103.035H40.0703V108.759H45.7944V103.035Z" fill="black"/>
<path d="M57.2436 103.035H51.5195V108.759H57.2436V103.035Z" fill="black"/>
<path d="M62.974 103.035H57.25V108.759H62.974V103.035Z" fill="black"/>
<path d="M80.1459 103.039H74.4219V108.763H80.1459V103.039Z" fill="black"/>
<path d="M85.8608 103.035H80.1367V108.759H85.8608V103.035Z" fill="black"/>
<path d="M97.3061 103.035H91.582V108.759H97.3061V103.035Z" fill="black"/>
<path d="M108.771 103.039H103.047V108.763H108.771V103.039Z" fill="black"/>
<path d="M114.486 103.035H108.762V108.759H114.486V103.035Z" fill="black"/>
<path d="M125.931 103.035H120.207V108.759H125.931V103.035Z" fill="black"/>
<path d="M131.654 103.035H125.93V108.759H131.654V103.035Z" fill="black"/>
<path d="M148.822 103.035H143.098V108.759H148.822V103.035Z" fill="black"/>
<path d="M165.997 103.035H160.273V108.759H165.997V103.035Z" fill="black"/>
<path d="M5.72404 108.754H0V114.478H5.72404V108.754Z" fill="black"/>
<path d="M11.4506 108.754H5.72656V114.478H11.4506V108.754Z" fill="black"/>
<path d="M28.6186 108.754H22.8945V114.478H28.6186V108.754Z" fill="black"/>
<path d="M34.349 108.754H28.625V114.478H34.349V108.754Z" fill="black"/>
<path d="M45.7944 108.754H40.0703V114.478H45.7944V108.754Z" fill="black"/>
<path d="M51.5248 108.754H45.8008V114.478H51.5248V108.754Z" fill="black"/>
<path d="M57.2397 108.754H51.5156V114.478H57.2397V108.754Z" fill="black"/>
<path d="M62.974 108.754H57.25V114.478H62.974V108.754Z" fill="black"/>
<path d="M68.6811 108.754H62.957V114.478H68.6811V108.754Z" fill="black"/>
<path d="M80.142 108.754H74.418V114.478H80.142V108.754Z" fill="black"/>
<path d="M91.5873 108.754H85.8633V114.478H91.5873V108.754Z" fill="black"/>
<path d="M97.3022 108.754H91.5781V114.478H97.3022V108.754Z" fill="black"/>
<path d="M114.486 108.754H108.762V114.478H114.486V108.754Z" fill="black"/>
<path d="M125.927 108.754H120.203V114.478H125.927V108.754Z" fill="black"/>
<path d="M131.654 108.754H125.93V114.478H131.654V108.754Z" fill="black"/>
<path d="M137.372 108.754H131.648V114.478H137.372V108.754Z" fill="black"/>
<path d="M143.103 108.754H137.379V114.478H143.103V108.754Z" fill="black"/>
<path d="M148.822 108.75H143.098V114.474H148.822V108.75Z" fill="black"/>
<path d="M154.548 108.75H148.824V114.474H154.548V108.75Z" fill="black"/>
<path d="M5.72404 114.484H0V120.208H5.72404V114.484Z" fill="black"/>
<path d="M11.4506 114.484H5.72656V120.208H11.4506V114.484Z" fill="black"/>
<path d="M17.1733 114.484H11.4492V120.208H17.1733V114.484Z" fill="black"/>
<path d="M34.349 114.484H28.625V120.208H34.349V114.484Z" fill="black"/>
<path d="M40.0678 114.484H34.3438V120.208H40.0678V114.484Z" fill="black"/>
<path d="M57.2397 114.484H51.5156V120.208H57.2397V114.484Z" fill="black"/>
<path d="M62.974 114.484H57.25V120.208H62.974V114.484Z" fill="black"/>
<path d="M74.4154 114.484H68.6914V120.208H74.4154V114.484Z" fill="black"/>
<path d="M80.142 114.484H74.418V120.208H80.142V114.484Z" fill="black"/>
<path d="M103.037 114.484H97.3125V120.208H103.037V114.484Z" fill="black"/>
<path d="M114.486 114.484H108.762V120.208H114.486V114.484Z" fill="black"/>
<path d="M120.208 114.484H114.484V120.208H120.208V114.484Z" fill="black"/>
<path d="M125.927 114.484H120.203V120.208H125.927V114.484Z" fill="black"/>
<path d="M131.654 114.484H125.93V120.208H131.654V114.484Z" fill="black"/>
<path d="M137.376 114.484H131.652V120.208H137.376V114.484Z" fill="black"/>
<path d="M143.103 114.484H137.379V120.208H143.103V114.484Z" fill="black"/>
<path d="M148.822 114.484H143.098V120.208H148.822V114.484Z" fill="black"/>
<path d="M154.548 114.484H148.824V120.208H154.548V114.484Z" fill="black"/>
<path d="M160.271 114.484H154.547V120.208H160.271V114.484Z" fill="black"/>
<path d="M51.5248 120.203H45.8008V125.927H51.5248V120.203Z" fill="black"/>
<path d="M68.685 120.207H62.9609V125.931H68.685V120.207Z" fill="black"/>
<path d="M80.142 120.203H74.418V125.927H80.142V120.203Z" fill="black"/>
<path d="M97.3022 120.203H91.5781V125.927H97.3022V120.203Z" fill="black"/>
<path d="M103.037 120.207H97.3125V125.931H103.037V120.207Z" fill="black"/>
<path d="M108.771 120.203H103.047V125.927H108.771V120.203Z" fill="black"/>
<path d="M120.212 120.203H114.488V125.927H120.212V120.203Z" fill="black"/>
<path d="M143.103 120.203H137.379V125.927H143.103V120.203Z" fill="black"/>
<path d="M148.822 120.203H143.098V125.927H148.822V120.203Z" fill="black"/>
<path d="M51.5248 125.93H45.8008V131.654H51.5248V125.93Z" fill="black"/>
<path d="M80.142 125.93H74.418V131.654H80.142V125.93Z" fill="black"/>
<path d="M91.5873 125.93H85.8633V131.654H91.5873V125.93Z" fill="black"/>
<path d="M97.3022 125.93H91.5781V131.654H97.3022V125.93Z" fill="black"/>
<path d="M114.486 125.93H108.762V131.654H114.486V125.93Z" fill="black"/>
<path d="M120.212 125.93H114.488V131.654H120.212V125.93Z" fill="black"/>
<path d="M131.654 125.93H125.93V131.654H131.654V125.93Z" fill="black"/>
<path d="M143.103 125.93H137.379V131.654H143.103V125.93Z" fill="black"/>
<path d="M148.822 125.93H143.098V131.654H148.822V125.93Z" fill="black"/>
<path d="M51.5248 131.656H45.8008V137.38H51.5248V131.656Z" fill="black"/>
<path d="M57.2397 131.656H51.5156V137.38H57.2397V131.656Z" fill="black"/>
<path d="M62.974 131.656H57.25V137.38H62.974V131.656Z" fill="black"/>
<path d="M74.4154 131.652H68.6914V137.376H74.4154V131.652Z" fill="black"/>
<path d="M80.142 131.656H74.418V137.38H80.142V131.656Z" fill="black"/>
<path d="M97.3022 131.652H91.5781V137.376H97.3022V131.652Z" fill="black"/>
<path d="M103.037 131.648H97.3125V137.372H103.037V131.648Z" fill="black"/>
<path d="M114.486 131.652H108.762V137.376H114.486V131.652Z" fill="black"/>
<path d="M120.208 131.656H114.484V137.38H120.208V131.656Z" fill="black"/>
<path d="M143.103 131.652H137.379V137.376H143.103V131.652Z" fill="black"/>
<path d="M160.275 131.652H154.551V137.376H160.275V131.652Z" fill="black"/>
<path d="M166.001 131.656H160.277V137.38H166.001V131.656Z" fill="black"/>
<path d="M51.5248 137.371H45.8008V143.095H51.5248V137.371Z" fill="black"/>
<path d="M68.685 137.371H62.9609V143.095H68.685V137.371Z" fill="black"/>
<path d="M74.4115 137.371H68.6875V143.095H74.4115V137.371Z" fill="black"/>
<path d="M80.142 137.371H74.418V143.095H80.142V137.371Z" fill="black"/>
<path d="M91.5873 137.371H85.8633V143.095H91.5873V137.371Z" fill="black"/>
<path d="M97.3022 137.371H91.5781V143.095H97.3022V137.371Z" fill="black"/>
<path d="M114.486 137.371H108.762V143.095H114.486V137.371Z" fill="black"/>
<path d="M120.208 137.371H114.484V143.095H120.208V137.371Z" fill="black"/>
<path d="M125.927 137.371H120.203V143.095H125.927V137.371Z" fill="black"/>
<path d="M131.654 137.371H125.93V143.095H131.654V137.371Z" fill="black"/>
<path d="M137.376 137.371H131.652V143.095H137.376V137.371Z" fill="black"/>
<path d="M143.103 137.371H137.379V143.095H143.103V137.371Z" fill="black"/>
<path d="M148.822 137.371H143.098V143.095H148.822V137.371Z" fill="black"/>
<path d="M51.5248 143.102H45.8008V148.826H51.5248V143.102Z" fill="black"/>
<path d="M74.4115 143.102H68.6875V148.826H74.4115V143.102Z" fill="black"/>
<path d="M80.1459 143.102H74.4219V148.826H80.1459V143.102Z" fill="black"/>
<path d="M85.8608 143.102H80.1367V148.826H85.8608V143.102Z" fill="black"/>
<path d="M97.3022 143.102H91.5781V148.826H97.3022V143.102Z" fill="black"/>
<path d="M103.037 143.102H97.3125V148.826H103.037V143.102Z" fill="black"/>
<path d="M108.771 143.102H103.047V148.826H108.771V143.102Z" fill="black"/>
<path d="M114.486 143.102H108.762V148.826H114.486V143.102Z" fill="black"/>
<path d="M120.208 143.102H114.484V148.826H120.208V143.102Z" fill="black"/>
<path d="M125.927 143.102H120.203V148.826H125.927V143.102Z" fill="black"/>
<path d="M137.376 143.102H131.652V148.826H137.376V143.102Z" fill="black"/>
<path d="M160.271 143.102H154.547V148.826H160.271V143.102Z" fill="black"/>
<path d="M62.974 148.816H57.25V154.54H62.974V148.816Z" fill="black"/>
<path d="M80.142 148.82H74.418V154.544H80.142V148.82Z" fill="black"/>
<path d="M97.3022 148.816H91.5781V154.54H97.3022V148.816Z" fill="black"/>
<path d="M125.927 148.816H120.203V154.54H125.927V148.816Z" fill="black"/>
<path d="M137.376 148.816H131.652V154.54H137.376V148.816Z" fill="black"/>
<path d="M143.103 148.816H137.379V154.54H143.103V148.816Z" fill="black"/>
<path d="M154.548 148.816H148.824V154.54H154.548V148.816Z" fill="black"/>
<path d="M160.279 148.816H154.555V154.54H160.279V148.816Z" fill="black"/>
<path d="M166.001 148.816H160.277V154.54H166.001V148.816Z" fill="black"/>
<path d="M68.685 154.539H62.9609V160.263H68.685V154.539Z" fill="black"/>
<path d="M80.142 154.539H74.418V160.263H80.142V154.539Z" fill="black"/>
<path d="M91.5873 154.543H85.8633V160.267H91.5873V154.543Z" fill="black"/>
<path d="M125.931 154.539H120.207V160.263H125.931V154.539Z" fill="black"/>
<path d="M137.376 154.539H131.652V160.263H137.376V154.539Z" fill="black"/>
<path d="M148.822 154.543H143.098V160.267H148.822V154.543Z" fill="black"/>
<path d="M154.548 154.539H148.824V160.263H154.548V154.539Z" fill="black"/>
<path d="M166.001 154.539H160.277V160.263H166.001V154.539Z" fill="black"/>
<path d="M51.5248 160.273H45.8008V165.997H51.5248V160.273Z" fill="black"/>
<path d="M68.685 160.273H62.9609V165.997H68.685V160.273Z" fill="black"/>
<path d="M74.4115 160.273H68.6875V165.997H74.4115V160.273Z" fill="black"/>
<path d="M103.037 160.273H97.3125V165.997H103.037V160.273Z" fill="black"/>
<path d="M108.771 160.273H103.047V165.997H108.771V160.273Z" fill="black"/>
<path d="M114.486 160.273H108.762V165.997H114.486V160.273Z" fill="black"/>
<path d="M120.212 160.273H114.488V165.997H120.212V160.273Z" fill="black"/>
<path d="M131.654 160.27H125.93V165.994H131.654V160.27Z" fill="black"/>
<path d="M143.103 160.27H137.379V165.994H143.103V160.27Z" fill="black"/>
<path d="M148.822 160.27H143.098V165.994H148.822V160.27Z" fill="black"/>
<path d="M34.0581 0H6.01025H0V6.00991V34.0562V40.0661H6.01025H34.0581H40.0683V34.0562V6.00991V0H34.0581ZM34.0581 34.0562H6.01025V6.00991H34.0581V34.0562Z" fill="black"/>
<path d="M159.98 0H131.932H125.922V6.00991V34.0562V40.0661H131.932H159.98H165.99V34.0562V6.00991V0H159.98ZM159.98 34.0562H131.932V6.00991H159.98V34.0562Z" fill="black"/>
<path d="M34.062 125.93H6.01415H0.00390625V131.94V159.986V165.996H6.01415H34.062H40.0722V159.986V131.94V125.93H34.062ZM34.062 159.986H6.01415V131.94H34.062V159.986Z" fill="black"/>
<path d="M28.6174 11.4609H11.4453V28.6331H28.6174V11.4609Z" fill="black"/>
<path d="M154.551 11.4609H137.379V28.6331H154.551V11.4609Z" fill="black"/>
<path d="M28.6174 137.371H11.4453V154.543H28.6174V137.371Z" fill="black"/>
</svg>
