<svg width="26" height="20" viewBox="0 0 26 20" fill="none" xmlns="http://www.w3.org/2000/svg">
<path d="M6.23531 20C4.35965 20 2.83884 19.3651 1.67289 18.0953C0.55763 16.7766 0 15.0672 0 12.9671C0 10.2321 0.836445 7.69242 2.50933 5.34811C4.18222 2.95498 6.26066 1.17233 8.74465 0.000180272L9.20089 0.879292C8.13632 1.66073 7.19849 2.66194 6.38739 3.88293C5.5763 5.10392 4.99332 6.61794 4.63847 8.42501L6.23531 8.79131C8.00959 9.18202 9.37832 9.91462 10.3415 10.9891C11.3554 12.0147 11.8623 13.2601 11.8623 14.7253C11.8623 16.2882 11.3047 17.558 10.1894 18.5348C9.12485 19.5116 7.80682 20 6.23531 20ZM20.373 19.9998C18.4973 19.9998 16.9765 19.3649 15.8106 18.0951C14.6953 16.7764 14.1377 15.067 14.1377 12.9669C14.1377 10.2319 14.9741 7.69224 16.647 5.34793C18.3199 2.9548 20.3984 1.17215 22.8823 0L23.3386 0.879112C22.274 1.66055 21.3362 2.66176 20.5251 3.88275C19.714 5.10374 19.131 6.61776 18.7762 8.42483L20.373 8.79113C22.1473 9.18184 23.516 9.91444 24.4792 10.9889C25.4931 12.0145 26 13.26 26 14.7251C26 16.288 25.4424 17.5578 24.3271 18.5346C23.2625 19.5114 21.9445 19.9998 20.373 19.9998Z" fill="white"/>
</svg>
