<svg width="24" height="25" viewBox="0 0 24 25" fill="none" xmlns="http://www.w3.org/2000/svg">
<mask id="mask0_6_1120" style="mask-type:alpha" maskUnits="userSpaceOnUse" x="0" y="0" width="24" height="25">
<rect y="0.5" width="24" height="24" fill="#D9D9D9"/>
</mask>
<g mask="url(#mask0_6_1120)">
<path d="M9.24922 22.5L8.84922 19.3C8.63255 19.2167 8.42839 19.1167 8.23672 19C8.04505 18.8833 7.85755 18.7583 7.67422 18.625L4.69922 19.875L1.94922 15.125L4.52422 13.175C4.50755 13.0583 4.49922 12.9458 4.49922 12.8375V12.1625C4.49922 12.0542 4.50755 11.9417 4.52422 11.825L1.94922 9.875L4.69922 5.125L7.67422 6.375C7.85755 6.24167 8.04922 6.11667 8.24922 6C8.44922 5.88333 8.64922 5.78333 8.84922 5.7L9.24922 2.5H14.7492L15.1492 5.7C15.3659 5.78333 15.5701 5.88333 15.7617 6C15.9534 6.11667 16.1409 6.24167 16.3242 6.375L19.2992 5.125L22.0492 9.875L19.4742 11.825C19.4909 11.9417 19.4992 12.0542 19.4992 12.1625V12.8375C19.4992 12.9458 19.4826 13.0583 19.4492 13.175L22.0242 15.125L19.2742 19.875L16.3242 18.625C16.1409 18.7583 15.9492 18.8833 15.7492 19C15.5492 19.1167 15.3492 19.2167 15.1492 19.3L14.7492 22.5H9.24922ZM10.9992 20.5H12.9742L13.3242 17.85C13.8409 17.7167 14.3201 17.5208 14.7617 17.2625C15.2034 17.0042 15.6076 16.6917 15.9742 16.325L18.4492 17.35L19.4242 15.65L17.2742 14.025C17.3576 13.7917 17.4159 13.5458 17.4492 13.2875C17.4826 13.0292 17.4992 12.7667 17.4992 12.5C17.4992 12.2333 17.4826 11.9708 17.4492 11.7125C17.4159 11.4542 17.3576 11.2083 17.2742 10.975L19.4242 9.35L18.4492 7.65L15.9742 8.7C15.6076 8.31667 15.2034 7.99583 14.7617 7.7375C14.3201 7.47917 13.8409 7.28333 13.3242 7.15L12.9992 4.5H11.0242L10.6742 7.15C10.1576 7.28333 9.67839 7.47917 9.23672 7.7375C8.79505 7.99583 8.39089 8.30833 8.02422 8.675L5.54922 7.65L4.57422 9.35L6.72422 10.95C6.64089 11.2 6.58255 11.45 6.54922 11.7C6.51589 11.95 6.49922 12.2167 6.49922 12.5C6.49922 12.7667 6.51589 13.025 6.54922 13.275C6.58255 13.525 6.64089 13.775 6.72422 14.025L4.57422 15.65L5.54922 17.35L8.02422 16.3C8.39089 16.6833 8.79505 17.0042 9.23672 17.2625C9.67839 17.5208 10.1576 17.7167 10.6742 17.85L10.9992 20.5ZM12.0492 16C13.0159 16 13.8409 15.6583 14.5242 14.975C15.2076 14.2917 15.5492 13.4667 15.5492 12.5C15.5492 11.5333 15.2076 10.7083 14.5242 10.025C13.8409 9.34167 13.0159 9 12.0492 9C11.0659 9 10.2367 9.34167 9.56172 10.025C8.88672 10.7083 8.54922 11.5333 8.54922 12.5C8.54922 13.4667 8.88672 14.2917 9.56172 14.975C10.2367 15.6583 11.0659 16 12.0492 16Z" fill="#2D5551"/>
</g>
</svg>
