<svg width="20" height="21" viewBox="0 0 20 21" fill="none" xmlns="http://www.w3.org/2000/svg">
<mask id="mask0_866_16991" style="mask-type:alpha" maskUnits="userSpaceOnUse" x="0" y="0" width="20" height="21">
<path d="M0 0.5H20V20.5H0V0.5Z" fill="#D9D9D9"/>
</mask>
<g mask="url(#mask0_866_16991)">
<path d="M15 18.8346C14.3056 18.8346 13.7153 18.5916 13.2292 18.1055C12.7431 17.6194 12.5 17.0291 12.5 16.3346C12.5 16.2374 12.5069 16.1367 12.5208 16.0326C12.5347 15.9284 12.5556 15.8346 12.5833 15.7513L6.70833 12.3346C6.47222 12.543 6.20833 12.7062 5.91667 12.8242C5.625 12.9423 5.31944 13.0013 5 13.0013C4.30556 13.0013 3.71528 12.7582 3.22917 12.2721C2.74306 11.786 2.5 11.1957 2.5 10.5013C2.5 9.80686 2.74306 9.21658 3.22917 8.73047C3.71528 8.24436 4.30556 8.0013 5 8.0013C5.31944 8.0013 5.625 8.06033 5.91667 8.17839C6.20833 8.29644 6.47222 8.45964 6.70833 8.66797L12.5833 5.2513C12.5556 5.16797 12.5347 5.07422 12.5208 4.97005C12.5069 4.86589 12.5 4.76519 12.5 4.66797C12.5 3.97352 12.7431 3.38325 13.2292 2.89714C13.7153 2.41102 14.3056 2.16797 15 2.16797C15.6944 2.16797 16.2847 2.41102 16.7708 2.89714C17.2569 3.38325 17.5 3.97352 17.5 4.66797C17.5 5.36241 17.2569 5.95269 16.7708 6.4388C16.2847 6.92491 15.6944 7.16797 15 7.16797C14.6806 7.16797 14.375 7.10894 14.0833 6.99089C13.7917 6.87283 13.5278 6.70964 13.2917 6.5013L7.41667 9.91797C7.44444 10.0013 7.46528 10.0951 7.47917 10.1992C7.49306 10.3034 7.5 10.4041 7.5 10.5013C7.5 10.5985 7.49306 10.6992 7.47917 10.8034C7.46528 10.9076 7.44444 11.0013 7.41667 11.0846L13.2917 14.5013C13.5278 14.293 13.7917 14.1298 14.0833 14.0117C14.375 13.8937 14.6806 13.8346 15 13.8346C15.6944 13.8346 16.2847 14.0777 16.7708 14.5638C17.2569 15.0499 17.5 15.6402 17.5 16.3346C17.5 17.0291 17.2569 17.6194 16.7708 18.1055C16.2847 18.5916 15.6944 18.8346 15 18.8346ZM15 5.5013C15.2361 5.5013 15.434 5.42144 15.5938 5.26172C15.7535 5.102 15.8333 4.90408 15.8333 4.66797C15.8333 4.43186 15.7535 4.23394 15.5938 4.07422C15.434 3.9145 15.2361 3.83464 15 3.83464C14.7639 3.83464 14.566 3.9145 14.4062 4.07422C14.2465 4.23394 14.1667 4.43186 14.1667 4.66797C14.1667 4.90408 14.2465 5.102 14.4062 5.26172C14.566 5.42144 14.7639 5.5013 15 5.5013ZM5 11.3346C5.23611 11.3346 5.43403 11.2548 5.59375 11.0951C5.75347 10.9353 5.83333 10.7374 5.83333 10.5013C5.83333 10.2652 5.75347 10.0673 5.59375 9.90755C5.43403 9.74783 5.23611 9.66797 5 9.66797C4.76389 9.66797 4.56597 9.74783 4.40625 9.90755C4.24653 10.0673 4.16667 10.2652 4.16667 10.5013C4.16667 10.7374 4.24653 10.9353 4.40625 11.0951C4.56597 11.2548 4.76389 11.3346 5 11.3346ZM15 17.168C15.2361 17.168 15.434 17.0881 15.5938 16.9284C15.7535 16.7687 15.8333 16.5707 15.8333 16.3346C15.8333 16.0985 15.7535 15.9006 15.5938 15.7409C15.434 15.5812 15.2361 15.5013 15 15.5013C14.7639 15.5013 14.566 15.5812 14.4062 15.7409C14.2465 15.9006 14.1667 16.0985 14.1667 16.3346C14.1667 16.5707 14.2465 16.7687 14.4062 16.9284C14.566 17.0881 14.7639 17.168 15 17.168Z" fill="white"/>
</g>
</svg>
