<svg width="25" height="24" viewBox="0 0 25 24" fill="none" xmlns="http://www.w3.org/2000/svg">
<path fill-rule="evenodd" clip-rule="evenodd" d="M22.3417 6.05642C22.3854 5.79174 22.3572 5.5202 22.2602 5.2701C22.1632 5.02 22.0009 4.80048 21.7902 4.63443C21.5795 4.46838 21.3282 4.36186 21.0623 4.32598C20.7965 4.2901 20.5259 4.32616 20.2787 4.43042L3.17874 11.6304C1.98674 12.1324 1.92574 13.8564 3.17874 14.3764C4.41962 14.8934 5.67841 15.3664 6.95274 15.7944C8.12074 16.1804 9.39474 16.5374 10.4157 16.6384C10.6947 16.9724 11.0457 17.2944 11.4037 17.5884C11.9507 18.0384 12.6087 18.5014 13.2887 18.9454C14.6507 19.8354 16.1617 20.6864 17.1797 21.2404C18.3967 21.9004 19.8537 21.1404 20.0717 19.8134L22.3417 6.05642ZM5.09574 12.9934L20.2197 6.62542L18.1017 19.4654C17.1027 18.9224 15.6637 18.1094 14.3817 17.2714C13.7909 16.892 13.2204 16.4818 12.6727 16.0424C12.5264 15.9228 12.3843 15.7981 12.2467 15.6684L16.2077 11.7084C16.3954 11.5209 16.5008 11.2665 16.5009 11.0013C16.501 10.736 16.3957 10.4816 16.2082 10.2939C16.0207 10.1063 15.7664 10.0008 15.5011 10.0007C15.2358 10.0006 14.9814 10.1059 14.7937 10.2934L10.4567 14.6304C9.72274 14.5364 8.70074 14.2644 7.57874 13.8944C6.74345 13.6161 5.91582 13.3153 5.09674 12.9924L5.09574 12.9934Z" fill="white"/>
</svg>
