<svg width="100" height="100" viewBox="0 0 100 100" fill="none" xmlns="http://www.w3.org/2000/svg">
<g clip-path="url(#clip0_115_28578)">
<path d="M100 50C100 22.3858 77.6142 0 50 0C22.3858 0 0 22.3858 0 50C0 77.6142 22.3858 100 50 100C77.6142 100 100 77.6142 100 50Z" fill="#419FD9"/>
<path d="M100 50C100 22.3858 77.6142 0 50 0C22.3858 0 0 22.3858 0 50C0 77.6142 22.3858 100 50 100C77.6142 100 100 77.6142 100 50Z" fill="url(#paint0_linear_115_28578)"/>
<path d="M22.4737 48.8989C37.014 42.431 46.7096 38.1668 51.561 36.1064C65.4123 30.2241 68.2906 29.2023 70.1667 29.1683C70.5792 29.1612 71.5017 29.2656 72.0994 29.7606C72.604 30.1787 72.7427 30.7435 72.8092 31.1398C72.8756 31.5362 72.9583 32.4391 72.8925 33.1445C72.1419 41.197 68.8942 60.7385 67.2417 69.7575C66.5425 73.5737 65.1658 74.8533 63.8331 74.9785C60.9367 75.2506 58.7371 73.0241 55.9319 71.1464C51.5419 68.2085 49.0621 66.3793 44.8008 63.5125C39.8765 60.1991 43.0687 58.3781 45.8752 55.4018C46.6096 54.6231 59.3715 42.771 59.6185 41.696C59.6494 41.5614 59.6781 41.0602 59.3865 40.7956C59.0948 40.531 58.6644 40.6214 58.3537 40.6933C57.9135 40.7954 50.9006 45.5281 37.3152 54.8914C35.3246 56.287 33.5217 56.9668 31.9062 56.9312C30.1254 56.892 26.6998 55.9033 24.1531 55.0581C21.0296 54.0212 18.547 53.4733 18.7631 51.7127C18.8757 50.7956 20.1126 49.8577 22.4737 48.8989Z" fill="white"/>
</g>
<defs>
<linearGradient id="paint0_linear_115_28578" x1="50" y1="0" x2="50" y2="99.2583" gradientUnits="userSpaceOnUse">
<stop stop-color="#2AABEE"/>
<stop offset="1" stop-color="#229ED9"/>
</linearGradient>
<clipPath id="clip0_115_28578">
<rect width="100" height="100" fill="white"/>
</clipPath>
</defs>
</svg>
