<svg width="29" height="28" viewBox="0 0 29 28" fill="none" xmlns="http://www.w3.org/2000/svg">
<g clip-path="url(#clip0_2567_27437)">
<rect x="0.5" width="28" height="28" rx="14" fill="white"/>
<path d="M14.5 0C6.772 0 0.5 6.272 0.5 14C0.5 21.728 6.772 28 14.5 28C22.228 28 28.5 21.728 28.5 14C28.5 6.272 22.228 0 14.5 0ZM20.996 9.52C20.786 11.732 19.876 17.108 19.414 19.586C19.218 20.636 18.826 20.986 18.462 21.028C17.65 21.098 17.034 20.496 16.25 19.978C15.018 19.166 14.318 18.662 13.128 17.878C11.742 16.968 12.638 16.464 13.436 15.652C13.646 15.442 17.23 12.18 17.3 11.886C17.3097 11.8415 17.3084 11.7952 17.2962 11.7513C17.284 11.7074 17.2613 11.6671 17.23 11.634C17.146 11.564 17.034 11.592 16.936 11.606C16.81 11.634 14.85 12.936 11.028 15.512C10.468 15.89 9.964 16.086 9.516 16.072C9.012 16.058 8.06 15.792 7.346 15.554C6.464 15.274 5.778 15.12 5.834 14.63C5.862 14.378 6.212 14.126 6.87 13.86C10.958 12.082 13.674 10.906 15.032 10.346C18.924 8.722 19.722 8.442 20.254 8.442C20.366 8.442 20.632 8.47 20.8 8.61C20.94 8.722 20.982 8.876 20.996 8.988C20.982 9.072 21.01 9.324 20.996 9.52Z" fill="white"/>
<path d="M20.996 9.52C20.786 11.732 19.876 17.108 19.414 19.586C19.218 20.636 18.826 20.986 18.462 21.028C17.65 21.098 17.034 20.496 16.25 19.978C15.018 19.166 14.318 18.662 13.128 17.878C11.742 16.968 12.638 16.464 13.436 15.652C13.646 15.442 17.23 12.18 17.3 11.886C17.3097 11.8415 17.3084 11.7952 17.2962 11.7513C17.284 11.7074 17.2613 11.6671 17.23 11.634C17.146 11.564 17.034 11.592 16.936 11.606C16.81 11.634 14.85 12.936 11.028 15.512C10.468 15.89 9.964 16.086 9.516 16.072C9.012 16.058 8.06 15.792 7.346 15.554C6.464 15.274 5.778 15.12 5.834 14.63C5.862 14.378 6.212 14.126 6.87 13.86C10.958 12.082 13.674 10.906 15.032 10.346C18.924 8.722 19.722 8.442 20.254 8.442C20.366 8.442 20.632 8.47 20.8 8.61C20.94 8.722 20.982 8.876 20.996 8.988C20.982 9.072 21.01 9.324 20.996 9.52Z" fill="#2D5551"/>
</g>
<defs>
<clipPath id="clip0_2567_27437">
<rect x="0.5" width="28" height="28" rx="14" fill="white"/>
</clipPath>
</defs>
</svg>
