<svg width="24" height="25" viewBox="0 0 24 25" fill="none" xmlns="http://www.w3.org/2000/svg">
<g clip-path="url(#clip0_841_13541)">
<path d="M12.0039 24.5C18.6313 24.5 24.0039 19.1274 24.0039 12.5C24.0039 5.87258 18.6313 0.5 12.0039 0.5C5.37649 0.5 0.00390625 5.87258 0.00390625 12.5C0.00390625 19.1274 5.37649 24.5 12.0039 24.5Z" fill="#26A17B"/>
<path fill-rule="evenodd" clip-rule="evenodd" d="M13.4431 13.5363V13.5348C13.3606 13.5408 12.9353 13.5663 11.9866 13.5663C11.2291 13.5663 10.6958 13.5438 10.5083 13.5348V13.537C7.59231 13.4088 5.41581 12.901 5.41581 12.2935C5.41581 11.6868 7.59231 11.179 10.5083 11.0485V13.0315C10.6988 13.045 11.2448 13.0773 11.9993 13.0773C12.9046 13.0773 13.3583 13.0398 13.4431 13.0323V11.05C16.3531 11.1798 18.5243 11.6875 18.5243 12.2935C18.5243 12.901 16.3531 13.4073 13.4431 13.5363ZM13.4431 10.8438V9.06928H17.5036V6.36328H6.44781V9.06928H10.5083V10.843C7.20831 10.9945 4.72656 11.6485 4.72656 12.4315C4.72656 13.2145 7.20831 13.8678 10.5083 14.02V19.7065H13.4431V14.0185C16.7378 13.867 19.2136 13.2138 19.2136 12.4315C19.2136 11.6493 16.7378 10.996 13.4431 10.8438Z" fill="white"/>
</g>
<defs>
<clipPath id="clip0_841_13541">
<rect width="24" height="24" fill="white" transform="translate(0 0.5)"/>
</clipPath>
</defs>
</svg>
