<svg width="29" height="28" viewBox="0 0 29 28" fill="none" xmlns="http://www.w3.org/2000/svg">
<g clip-path="url(#clip0_2567_27429)">
<path d="M14.5 0C22.2322 0 28.5 6.2678 28.5 14C28.5 21.7322 22.2322 28 14.5 28C12.0259 28.004 9.59533 27.3492 7.45801 26.103L0.50562 28L2.39842 21.0448C1.15115 18.9068 0.495886 16.4752 0.500019 14C0.500019 6.2678 6.76782 0 14.5 0ZM9.72881 7.42L9.44881 7.4312C9.26754 7.44223 9.09039 7.48986 8.92801 7.5712C8.77614 7.6572 8.63751 7.76471 8.51641 7.8904C8.34841 8.0486 8.25321 8.1858 8.15101 8.3188C7.63318 8.99206 7.35438 9.81863 7.35861 10.668C7.36141 11.354 7.54061 12.0218 7.82061 12.6462C8.39321 13.909 9.33541 15.246 10.5786 16.485C10.8782 16.7832 11.1722 17.0828 11.4886 17.3614C13.0334 18.7214 14.8742 19.7022 16.8646 20.2258L17.6598 20.3476C17.9188 20.3616 18.1778 20.342 18.4382 20.3294C18.8459 20.3083 19.2441 20.1979 19.6044 20.006C19.7877 19.9116 19.9667 19.8088 20.1406 19.698C20.1406 19.698 20.2008 19.6588 20.3156 19.572C20.5046 19.432 20.6208 19.3326 20.7776 19.1688C20.8938 19.0484 20.9946 18.907 21.0716 18.746C21.1808 18.5178 21.29 18.0824 21.3348 17.7198C21.3684 17.4426 21.3586 17.2914 21.3544 17.1976C21.3488 17.0478 21.2242 16.8924 21.0884 16.8266L20.2736 16.4612C20.2736 16.4612 19.0556 15.9306 18.3108 15.5918C18.2329 15.5578 18.1494 15.5383 18.0644 15.5344C17.9686 15.5246 17.8718 15.5353 17.7806 15.566C17.6893 15.5967 17.6056 15.6465 17.5352 15.7122C17.5282 15.7094 17.4344 15.7892 16.4222 17.0156C16.3641 17.0937 16.2841 17.1527 16.1923 17.1851C16.1006 17.2175 16.0012 17.2218 15.907 17.1976C15.8158 17.1731 15.7265 17.1423 15.6396 17.1052C15.466 17.0324 15.4058 17.0044 15.2868 16.954C14.4833 16.6034 13.7394 16.1296 13.0818 15.5498C12.9054 15.3958 12.7416 15.2278 12.5736 15.0654C12.0228 14.5379 11.5428 13.9412 11.1456 13.2902L11.063 13.1572C11.0037 13.0678 10.9557 12.9714 10.9202 12.8702C10.867 12.6644 11.0056 12.4992 11.0056 12.4992C11.0056 12.4992 11.3458 12.1268 11.504 11.9252C11.658 11.7292 11.7882 11.5388 11.8722 11.403C12.0374 11.137 12.0892 10.864 12.0024 10.6526C11.6104 9.69499 11.2044 8.74159 10.7872 7.7952C10.7046 7.60759 10.4596 7.4732 10.237 7.4466C10.1614 7.4382 10.0858 7.4298 10.0102 7.4242C9.8222 7.41486 9.6338 7.41673 9.44601 7.4298L9.72881 7.42Z" fill="white"/>
</g>
<defs>
<clipPath id="clip0_2567_27429">
<rect width="28" height="28" fill="white" transform="translate(0.5)"/>
</clipPath>
</defs>
</svg>
