<svg width="100" height="101" viewBox="0 0 100 101" fill="none" xmlns="http://www.w3.org/2000/svg">
<g clip-path="url(#clip0_115_28582)">
<path d="M85.4283 14.5963C76.0277 5.18921 63.5277 0.00573946 50.2099 0C22.7664 0 0.43289 22.3264 0.421903 49.7686C0.418706 58.5407 2.71072 67.1034 7.06722 74.6513L0.00390625 100.442L26.3971 93.5213C33.6689 97.4871 41.8565 99.5768 50.1885 99.5802H50.2096H50.2099C77.6489 99.5802 99.9858 77.2499 99.9974 49.809C100.002 36.5091 94.8277 24.004 85.4283 14.5963ZM50.2099 91.1741H50.1937C42.767 91.1702 35.4841 89.1763 29.1317 85.4068L27.6199 84.5107L11.9577 88.6171L16.1393 73.3521L15.1543 71.7871C11.0116 65.2002 8.82464 57.5881 8.82776 49.7718C8.83686 26.9627 27.3996 8.40643 50.2255 8.40643C61.2791 8.41102 71.6681 12.7196 79.4816 20.5384C87.2945 28.3572 91.5941 38.7512 91.5908 49.8054C91.5812 72.6153 73.0178 91.1741 50.2099 91.1741Z" fill="#E0E0E0"/>
<path d="M2.28906 97.5821L9.02974 72.9697C4.87117 65.7665 2.68427 57.5942 2.68689 49.2245C2.69779 23.0363 24.0113 1.73047 50.1989 1.73047C62.909 1.73621 74.8383 6.68264 83.8074 15.6602C92.7785 24.6377 97.716 36.5708 97.7109 49.2617C97.6999 75.4505 76.3851 96.7583 50.2008 96.7583C50.2021 96.7583 50.1989 96.7583 50.2008 96.7583H50.1796C42.2283 96.7558 34.4153 94.7597 27.4761 90.9778L2.28906 97.5821Z" fill="url(#paint0_linear_115_28582)"/>
<path fill-rule="evenodd" clip-rule="evenodd" d="M37.9067 28.638C36.9856 26.5901 36.0158 26.5491 35.1395 26.5133C34.4227 26.4825 33.6021 26.4844 32.7829 26.4844C31.9629 26.4844 30.6306 26.7925 29.5038 28.0231C28.3764 29.2536 25.1992 32.2284 25.1992 38.2785C25.1992 44.3293 29.6063 50.1758 30.2206 50.9969C30.8355 51.8168 38.728 64.6295 51.2273 69.5586C61.6153 73.655 63.7292 72.8402 65.984 72.6352C68.2388 72.4302 73.2595 69.6611 74.2844 66.7894C75.3093 63.9183 75.3093 61.4573 75.0019 60.9429C74.6944 60.4305 73.8745 60.123 72.6446 59.508C71.4147 58.8931 65.3691 55.9177 64.2417 55.5077C63.1143 55.0978 62.2944 54.8928 61.4744 56.124C60.6545 57.3539 58.2991 60.123 57.5817 60.9429C56.8643 61.7647 56.1468 61.8672 54.9169 61.2523C53.6871 60.6354 49.7264 59.3382 45.0279 55.1489C41.3722 51.8897 38.9041 47.8644 38.1866 46.6333C37.4692 45.4034 38.1097 44.7372 38.7266 44.1241C39.2788 43.5732 39.9565 42.6886 40.5715 41.9705C41.1851 41.2524 41.3901 40.74 41.8 39.9201C42.21 39.0988 42.005 38.3808 41.6976 37.7659C41.3901 37.1509 39.0002 31.0696 37.9067 28.638Z" fill="white"/>
<path d="M85.0219 14.4366C75.7292 5.1375 63.3727 0.013634 50.2078 0.0078125C23.0793 0.0078125 1.00219 22.0779 0.991284 49.2051C0.988087 57.8765 3.25378 66.3409 7.56027 73.8022L0.578125 99.2967L26.6683 92.4554C33.8568 96.3756 41.9503 98.4415 50.1867 98.4447H50.2076H50.2078C77.3319 98.4447 99.4122 76.3708 99.4238 49.2448C99.4283 36.0979 94.3133 23.7363 85.0219 14.4366ZM50.2078 90.1354H50.1919C42.8503 90.1315 35.651 88.1605 29.3715 84.4344L27.8771 83.5484L12.3946 87.6077L16.5282 72.5179L15.5545 70.971C11.4594 64.4596 9.29752 56.9349 9.30072 49.2084C9.30965 26.6611 27.6593 8.3179 50.2233 8.3179C61.1501 8.32241 71.4196 12.5815 79.1435 20.3106C86.8668 28.0397 91.117 38.3143 91.1138 49.2418C91.1041 71.7896 72.7538 90.1354 50.2078 90.1354Z" fill="white"/>
</g>
<defs>
<linearGradient id="paint0_linear_115_28582" x1="50" y1="97.5821" x2="50" y2="1.73063" gradientUnits="userSpaceOnUse">
<stop stop-color="#20B038"/>
<stop offset="1" stop-color="#60D66A"/>
</linearGradient>
<clipPath id="clip0_115_28582">
<rect width="100" height="100.442" fill="white"/>
</clipPath>
</defs>
</svg>
