<svg width="21" height="22" viewBox="0 0 21 22" fill="none" xmlns="http://www.w3.org/2000/svg">
<path d="M17.9007 3.55555C16.9381 2.58318 15.7915 1.81221 14.5278 1.28761C13.264 0.763018 11.9085 0.495296 10.5402 0.500063C4.80727 0.500063 0.134781 5.17255 0.134781 10.9055C0.134781 12.743 0.61778 14.528 1.52078 16.103L0.0507812 21.5L5.56326 20.051C7.08576 20.8805 8.79725 21.3215 10.5402 21.3215C16.2732 21.3215 20.9457 16.649 20.9457 10.916C20.9457 8.13354 19.8642 5.51905 17.9007 3.55555ZM10.5402 19.5575C8.98625 19.5575 7.46376 19.1375 6.13026 18.35L5.81526 18.161L2.53927 19.022L3.41077 15.83L3.20077 15.5045C2.33741 14.1258 1.87897 12.5322 1.87778 10.9055C1.87778 6.13855 5.76276 2.25356 10.5297 2.25356C12.8397 2.25356 15.0132 3.15655 16.6407 4.79455C17.4466 5.59671 18.0852 6.55084 18.5196 7.60164C18.954 8.65244 19.1755 9.779 19.1712 10.916C19.1922 15.683 15.3072 19.5575 10.5402 19.5575ZM15.2862 13.0895C15.0237 12.9635 13.7427 12.3335 13.5117 12.239C13.2702 12.155 13.1022 12.113 12.9237 12.365C12.7452 12.6275 12.2517 13.2155 12.1047 13.3835C11.9577 13.562 11.8002 13.583 11.5377 13.4465C11.2752 13.3205 10.4353 13.037 9.44825 12.155C8.67126 11.462 8.15676 10.6115 7.99926 10.349C7.85226 10.0865 7.97826 9.95003 8.11476 9.81353C8.23026 9.69803 8.37726 9.50904 8.50326 9.36203C8.62926 9.21504 8.68176 9.09954 8.76576 8.93154C8.84976 8.75304 8.80775 8.60604 8.74475 8.48004C8.68176 8.35404 8.15676 7.07304 7.94676 6.54804C7.73676 6.04405 7.51626 6.10705 7.35876 6.09655H6.85476C6.67626 6.09655 6.40326 6.15955 6.16176 6.42204C5.93076 6.68454 5.25877 7.31454 5.25877 8.59554C5.25877 9.87653 6.19326 11.1155 6.31926 11.2835C6.44526 11.462 8.15676 14.087 10.7607 15.2105C11.3802 15.4835 11.8632 15.641 12.2412 15.7565C12.8607 15.956 13.4277 15.9245 13.8792 15.8615C14.3832 15.788 15.4227 15.2315 15.6327 14.6225C15.8532 14.0135 15.8532 13.499 15.7797 13.3835C15.7062 13.268 15.5487 13.2155 15.2862 13.0895Z" fill="white"/>
</svg>
